{
.appVersion = "1286";
copyright = "Copyright 2012 Google Inc. All Rights Reserved.";
customParameters = (
{
name = vendorID;
value = MONO;
},
{
name = panose;
value = (
2,
2,
6,
0,
6,
5,
0,
2,
2,
0
);
},
{
name = unicodeRanges;
value = (
0,
1,
2,
3,
4,
5,
6,
7,
9,
29,
30,
31,
32,
33,
34,
35,
36,
37,
38,
39,
43,
44,
45,
46,
60,
62,
64,
67,
69
);
},
{
name = glyphOrder;
value = (
.notdef,
CR,
space,
uni0000,
exclam,
quotedbl,
numbersign,
dollar,
percent,
ampersand,
quotesingle,
parenleft,
parenright,
asterisk,
plus,
comma,
hyphen,
period,
slash,
zero,
one,
two,
three,
four,
five,
six,
seven,
eight,
nine,
colon,
semicolon,
less,
equal,
greater,
question,
at,
A,
B,
C,
D,
E,
F,
G,
H,
I,
J,
K,
L,
M,
N,
O,
P,
Q,
R,
S,
T,
U,
V,
W,
X,
Y,
Z,
bracketleft,
backslash,
bracketright,
asciicircum,
underscore,
grave,
a,
b,
c,
d,
e,
f,
g,
h,
i,
j,
k,
l,
m,
n,
o,
p,
q,
r,
s,
t,
u,
v,
w,
x,
y,
z,
braceleft,
bar,
braceright,
asciitilde,
uni00A0,
exclamdown,
cent,
sterling,
currency,
yen,
brokenbar,
section,
dieresis,
copyright,
ordfeminine,
guillemotleft,
logicalnot,
uni00AD,
registered,
macron,
degree,
plusminus,
uni00B2,
uni00B3,
acute,
uni00B5,
paragraph,
periodcentered,
cedilla,
uni00B9,
ordmasculine,
guillemotright,
onequarter,
onehalf,
threequarters,
questiondown,
Agrave,
Aacute,
Acircumflex,
Atilde,
Adieresis,
Aring,
AE,
Ccedilla,
Egrave,
Eacute,
Ecircumflex,
Edieresis,
Igrave,
Iacute,
Icircumflex,
Idieresis,
Eth,
Ntilde,
Ograve,
Oacute,
Ocircumflex,
Otilde,
Odieresis,
multiply,
Oslash,
Ugrave,
Uacute,
Ucircumflex,
Udieresis,
Yacute,
Thorn,
germandbls,
agrave,
aacute,
acircumflex,
atilde,
adieresis,
aring,
ae,
ccedilla,
egrave,
eacute,
ecircumflex,
edieresis,
igrave,
iacute,
icircumflex,
idieresis,
eth,
ntilde,
ograve,
oacute,
ocircumflex,
otilde,
odieresis,
divide,
oslash,
ugrave,
uacute,
ucircumflex,
udieresis,
yacute,
thorn,
ydieresis,
Amacron,
amacron,
Abreve,
abreve,
Aogonek,
aogonek,
Cacute,
cacute,
Ccircumflex,
ccircumflex,
Cdotaccent,
cdotaccent,
Ccaron,
ccaron,

glyphs = (
{
glyphname = .notdef;
layers = (
{
layerId = "B9B2530D-1BC0-47AE-88F4-2EE543D2AECB";
paths = (
{
closed = 1;
nodes = (
"922 0 LINE",
"922 1462 LINE",
"102 1462 LINE",
"102 0 LINE",
"102 0 LINE"
);
},
{
closed = 1;
nodes = (
"201 1364 LINE",
"823 1364 LINE",
"823 98 LINE",
"201 98 LINE",
"201 98 LINE"
);
}
);
userData = {
assembly = "NPUSHB[ ]	/* 39 values pushed */\0120 0 0 3 2 0 3 103 0 2 1 1 2 87 0 2 2 1 95 4 1 1 2 1 79 0 0 7 6 5 4 0 3 0 3 17 5 6 23 \012CALL[ ]	/* CallFunction */";
};
width = 1024;
}
);
note = .notdef;
},
{
glyphname = exclam;
layers = (
{
layerId = "B9B2530D-1BC0-47AE-88F4-2EE543D2AECB";
paths = (
{
closed = 1;
nodes = (
"211 125 LINE",
"211 125 LINE",
"211 86 OFFCURVE",
"231 32 OFFCURVE",
"266 0 OFFCURVE",
"313 -14 OFFCURVE",
"340 -14 QCURVE SMOOTH",
"366 -14 OFFCURVE",
"413 0 OFFCURVE",
"448 32 OFFCURVE",
"469 86 OFFCURVE",
"469 125 QCURVE SMOOTH",
"469 165 OFFCURVE",
"448 218 OFFCURVE",
"413 250 OFFCURVE",
"366 264 OFFCURVE",
"340 264 QCURVE SMOOTH",
"313 264 OFFCURVE",
"266 250 OFFCURVE",
"231 218 OFFCURVE",
"211 165 OFFCURVE",
"211 125 QCURVE",
"211 125 LINE"
);
},
{
closed = 1;
nodes = (
"293 412 LINE",
"387 412 LINE",
"459 1462 LINE",
"221 1462 LINE",
"221 1462 LINE"
);
}
);
userData = {
assembly = "NPUSHB[ ]	/* 28 values pushed */\0120 3 3 2 95 0 2 2 37 77 0 0 0 1 97 0 1 1 44 1 78 17 22 40 36 4 8 26 \012CALL[ ]	/* CallFunction */";
};
width = 682;
}
);
note = exclam;
unicode = 0021;
},
{
glyphname = quotedbl;
layers = (
{
layerId = "B9B2530D-1BC0-47AE-88F4-2EE543D2AECB";
paths = (
{
closed = 1;
nodes = (
"178 981 LINE",
"272 981 LINE",
"334 1462 LINE",
"117 1462 LINE",
"117 1462 LINE"
);
},
{
closed = 1;
nodes = (
"563 981 LINE",
"657 981 LINE",
"719 1462 LINE",
"502 1462 LINE",
"502 1462 LINE"
);
}
);
userData = {
assembly = "NPUSHB[ ]	/* 20 values pushed */\0123 1 1 1 0 95 2 1 0 0 37 1 78 17 17 17 16 4 8 26 \012CALL[ ]	/* CallFunction */";
};
width = 836;
}
);
note = quotedbl;
unicode = 0022;
},
{
glyphname = numbersign;
layers = (
{
layerId = "B9B2530D-1BC0-47AE-88F4-2EE543D2AECB";
paths = (
{
closed = 1;
nodes = (
"795 537 LINE",
"870 938 LINE",
"1094 938 LINE",
"1094 1059 LINE",
"893 1059 LINE",
"969 1462 LINE",
"846 1462 LINE",
"770 1059 LINE",
"485 1059 LINE",
"561 1462 LINE",
"436 1462 LINE",
"362 1059 LINE",
"117 1059 LINE",
"117 938 LINE",
"340 938 LINE",
"262 537 LINE",
"51 537 LINE",
"51 416 LINE",
"240 416 LINE",
"162 0 LINE",
"285 0 LINE",
"362 416 LINE",
"647 416 LINE",
"569 0 LINE",
"692 0 LINE",
"770 416 LINE",
"1028 416 LINE",
"1028 537 LINE",
"1028 537 LINE"
);
},
{
closed = 1;
nodes = (
"463 938 LINE",
"748 938 LINE",
"672 537 LINE",
"387 537 LINE",
"387 537 LINE"
);
}
);
userData = {
assembly = "MPPEM[ ]	/* MeasurePixelPerEm */\012PUSHB[ ]	/* 1 value pushed */\01227 \012LT[ ]	/* LessThan */\012IF[ ]	/* If */\012NPUSHB[ ]	/* 40 values pushed */\01214 16 13 3 5 4 2 2 0 1 5 0 103 10 1 8 8 37 77 15 12 2 6 6 7 95 11 9 2 7 7 40 77 3 1 1 1 38 1 78 \012ELSE[ ]	/* Else */\012NPUSHB[ ]	/* 38 values pushed */\01211 9 2 7 15 12 2 6 5 7 6 104 14 16 13 3 5 4 2 2 0 1 5 0 103 10 1 8 8 37 77 3 1 1 1 38 1 78 \012EIF[ ]	/* EndIf */\012NPUSHB[ ]	/* 30 values pushed */\0120 0 31 30 29 28 0 27 0 27 26 25 24 23 22 21 20 19 17 17 17 17 17 17 17 17 17 17 8 31 \012CALL[ ]	/* CallFunction */";
};
width = 1145;
}
);
note = numbersign;
unicode = 0023;
},
{
glyphname = dollar;
layers = (
{
layerId = "B9B2530D-1BC0-47AE-88F4-2EE543D2AECB";
paths = (
{
closed = 1;
nodes = (
"621 1401 LINE",
"621 1401 LINE",
"621 1556 LINE",
"518 1556 LINE",
"518 1397 LINE",
"438 1388 OFFCURVE",
"309 1337 OFFCURVE",
"219 1254 OFFCURVE",
"170 1142 OFFCURVE",
"170 1073 QCURVE SMOOTH",
"170 1006 OFFCURVE",
"207 898 OFFCURVE",
"289 805 OFFCURVE",
"422 721 OFFCURVE",
"518 678 QCURVE",
"518 172 LINE",
"452 177 OFFCURVE",
"343 232 OFFCURVE",
"264 317 OFFCURVE",
"221 424 OFFCURVE",
"221 481 QCURVE",
"135 481 LINE",
"135 166 LINE",
"173 144 OFFCURVE",
"264 112 OFFCURVE",
"363 91 OFFCURVE",
"467 82 OFFCURVE",
"518 82 QCURVE",
"518 -162 LINE",
"621 -162 LINE",
"621 86 LINE",
"803 105 OFFCURVE",
"1001 276 OFFCURVE",
"1001 430 QCURVE SMOOTH",
"1001 503 OFFCURVE",
"951 616 OFFCURVE",
"855 709 OFFCURVE",
"713 789 OFFCURVE",
"621 829 QCURVE",
"621 1307 LINE",
"675 1301 OFFCURVE",
"745 1249 OFFCURVE",
"784 1174 OFFCURVE",
"799 1083 OFFCURVE",
"799 1038 QCURVE",
"873 1038 OFFCURVE",
"961 1105 OFFCURVE",
"961 1171 QCURVE SMOOTH",
"961 1219 OFFCURVE",
"924 1301 OFFCURVE",
"842 1362 OFFCURVE",
"713 1399 OFFCURVE",
"621 1401 QCURVE",
"621 1401 LINE"
);
},
{
closed = 1;
nodes = (
"813 399 LINE",
"813 399 LINE",
"813 311 OFFCURVE",
"713 194 OFFCURVE",
"621 178 QCURVE",
"621 633 LINE",
"674 609 OFFCURVE",
"747 561 OFFCURVE",
"793 505 OFFCURVE",
"813 440 OFFCURVE",
"813 399 QCURVE",
"813 399 LINE"
);
},
{
closed = 1;
nodes = (
"354 1090 LINE",
"354 1090 LINE",
"354 1130 OFFCURVE",
"375 1200 OFFCURVE",
"416 1255 OFFCURVE",
"478 1294 OFFCURVE",
"518 1303 QCURVE",
"518 874 LINE",
"478 892 OFFCURVE",
"417 932 OFFCURVE",
"375 982 OFFCURVE",
"354 1047 OFFCURVE",
"354 1090 QCURVE",
"354 1090 LINE"
);
}
);
userData = {
assembly = "NPUSHB[ ]	/* 81 values pushed */\01270 48 13 3 1 0 69 58 38 14 4 4 1 59 37 30 22 4 3 4 3 76 6 1 0 5 1 5 0 1 128 0 1 4 5 1 4 126 0 4 3 5 4 3 126 0 3 2 5 3 2 126 0 2 2 132 0 5 5 39 5 78 1 0 50 49 32 31 26 25 24 23 8 7 0 52 1 51 7 8 22 \012CALL[ ]	/* CallFunction */";
};
width = 1145;
}
);
note = dollar;
unicode = 0024;
},
{
glyphname = percent;
layers = (
{
layerId = "B9B2530D-1BC0-47AE-88F4-2EE543D2AECB";
paths = (
{
closed = 1;
nodes = (
"764 1030 LINE",
"764 1030 LINE",
"764 1133 OFFCURVE",
"722 1300 OFFCURVE",
"639 1419 OFFCURVE",
"514 1483 OFFCURVE",
"430 1483 QCURVE SMOOTH",
"341 1483 OFFCURVE",
"213 1419 OFFCURVE",
"131 1300 OFFCURVE",
"92 1133 OFFCURVE",
"92 1030 QCURVE SMOOTH",
"92 927 OFFCURVE",
"131 759 OFFCURVE",
"213 639 OFFCURVE",
"340 573 OFFCURVE",
"428 573 QCURVE SMOOTH",
"512 573 OFFCURVE",
"638 639 OFFCURVE",
"722 759 OFFCURVE",
"764 927 OFFCURVE",
"764 1030 QCURVE",
"764 1030 LINE"
);
},
{
closed = 1;
nodes = (
"276 1030 LINE",
"276 1030 LINE",
"276 1117 OFFCURVE",
"292 1253 OFFCURVE",
"329 1348 OFFCURVE",
"388 1397 OFFCURVE",
"430 1397 QCURVE SMOOTH",
"472 1397 OFFCURVE",
"528 1348 OFFCURVE",
"563 1253 OFFCURVE",
"578 1117 OFFCURVE",
"578 1030 QCURVE SMOOTH",
"578 942 OFFCURVE",
"563 803 OFFCURVE",
"528 707 OFFCURVE",
"470 657 OFFCURVE",
"428 657 QCURVE SMOOTH",
"386 657 OFFCURVE",
"328 707 OFFCURVE",
"292 803 OFFCURVE",
"276 942 OFFCURVE",
"276 1030 QCURVE",
"276 1030 LINE"
);
},
{
closed = 1;
nodes = (
"1743 436 LINE",
"1743 436 LINE",
"1743 539 OFFCURVE",
"1701 706 OFFCURVE",
"1618 825 OFFCURVE",
"1493 889 OFFCURVE",
"1409 889 QCURVE SMOOTH",
"1320 889 OFFCURVE",
"1192 825 OFFCURVE",
"1110 706 OFFCURVE",
"1071 539 OFFCURVE",
"1071 436 QCURVE SMOOTH",
"1071 333 OFFCURVE",
"1110 165 OFFCURVE",
"1191 45 OFFCURVE",
"1319 -20 OFFCURVE",
"1407 -20 QCURVE SMOOTH",
"1491 -20 OFFCURVE",
"1617 45 OFFCURVE",
"1701 165 OFFCURVE",
"1743 333 OFFCURVE",
"1743 436 QCURVE",
"1743 436 LINE"
);
},
{
closed = 1;
nodes = (
"1255 436 LINE",
"1255 436 LINE",
"1255 523 OFFCURVE",
"1271 659 OFFCURVE",
"1308 754 OFFCURVE",
"1367 803 OFFCURVE",
"1409 803 QCURVE SMOOTH",
"1451 803 OFFCURVE",
"1507 754 OFFCURVE",
"1541 659 OFFCURVE",
"1556 523 OFFCURVE",
"1556 436 QCURVE SMOOTH",
"1556 348 OFFCURVE",
"1541 209 OFFCURVE",
"1507 113 OFFCURVE",
"1449 63 OFFCURVE",
"1407 63 QCURVE SMOOTH",
"1365 63 OFFCURVE",
"1307 113 OFFCURVE",
"1271 209 OFFCURVE",
"1255 348 OFFCURVE",
"1255 436 QCURVE",
"1255 436 LINE"
);
},
{
closed = 1;
nodes = (
"1346 1462 LINE",
"1212 1462 LINE",
"481 0 LINE",
"616 0 LINE",
"616 0 LINE"
);
}
);
userData = {
assembly = "MPPEM[ ]	/* MeasurePixelPerEm */\012PUSHB[ ]	/* 1 value pushed */\01210 \012LT[ ]	/* LessThan */\012IF[ ]	/* If */\012NPUSHB[ ]	/* 43 values pushed */\0120 5 0 7 2 5 7 105 0 2 0 0 6 2 0 105 0 9 9 37 77 0 3 3 1 97 0 1 1 43 77 0 6 6 4 97 8 1 4 4 44 4 78 \012ELSE[ ]	/* Else */\012MPPEM[ ]	/* MeasurePixelPerEm */\012PUSHB[ ]	/* 1 value pushed */\01214 \012LT[ ]	/* LessThan */\012IF[ ]	/* If */\012NPUSHB[ ]	/* 47 values pushed */\0120 5 0 7 2 5 7 105 0 2 0 0 6 2 0 105 0 9 9 37 77 0 3 3 1 97 0 1 1 43 77 0 8 8 38 77 0 6 6 4 97 0 4 4 44 4 78 \012ELSE[ ]	/* Else */\012MPPEM[ ]	/* MeasurePixelPerEm */\012PUSHB[ ]	/* 1 value pushed */\01216 \012LT[ ]	/* LessThan */\012IF[ ]	/* If */\012NPUSHB[ ]	/* 39 values pushed */\0120 5 0 7 2 5 7 105 0 2 0 0 6 2 0 105 0 3 3 1 97 9 1 1 1 43 77 0 6 6 4 97 8 1 4 4 44 4 78 \012ELSE[ ]	/* Else */\012MPPEM[ ]	/* MeasurePixelPerEm */\012PUSHB[ ]	/* 1 value pushed */\01221 \012LT[ ]	/* LessThan */\012IF[ ]	/* If */\012NPUSHB[ ]	/* 43 values pushed */\0120 5 0 7 2 5 7 105 0 2 0 0 6 2 0 105 0 9 9 37 77 0 3 3 1 97 0 1 1 43 77 0 6 6 4 97 8 1 4 4 44 4 78 \012ELSE[ ]	/* Else */\012MPPEM[ ]	/* MeasurePixelPerEm */\012PUSHB[ ]	/* 1 value pushed */\01223 \012LT[ ]	/* LessThan */\012IF[ ]	/* If */\012NPUSHB[ ]	/* 47 values pushed */\0120 5 0 7 2 5 7 105 0 2 0 0 6 2 0 105 0 9 9 37 77 0 3 3 1 97 0 1 1 43 77 0 8 8 38 77 0 6 6 4 97 0 4 4 44 4 78 \012ELSE[ ]	/* Else */\012MPPEM[ ]	/* MeasurePixelPerEm */\012PUSHB[ ]	/* 1 value pushed */\01225 \012LT[ ]	/* LessThan */\012IF[ ]	/* If */\012NPUSHB[ ]	/* 39 values pushed */\0120 5 0 7 2 5 7 105 0 2 0 0 6 2 0 105 0 3 3 1 97 9 1 1 1 43 77 0 6 6 4 97 8 1 4 4 44 4 78 \012ELSE[ ]	/* Else */\012NPUSHB[ ]	/* 47 values pushed */\0120 5 0 7 2 5 7 105 0 2 0 0 6 2 0 105 0 9 9 37 77 0 3 3 1 97 0 1 1 43 77 0 8 8 38 77 0 6 6 4 97 0 4 4 44 4 78 \012EIF[ ]	/* EndIf */\012EIF[ ]	/* EndIf */\012EIF[ ]	/* EndIf */\012EIF[ ]	/* EndIf */\012EIF[ ]	/* EndIf */\012EIF[ ]	/* EndIf */\012NPUSHB[ ]	/* 14 values pushed */\01291 90 22 40 42 40 42 40 42 40 36 10 8 31 \012CALL[ ]	/* CallFunction */";
};
width = 1835;
}
);
note = percent;
unicode = 0025;
},
{
glyphname = ampersand;
layers = (
{
layerId = "B9B2530D-1BC0-47AE-88F4-2EE543D2AECB";
paths = (
{
closed = 1;
nodes = (
"1174 0 LINE",
"1174 0 LINE",
"1501 0 LINE",
"1501 86 LINE",
"1483 86 LINE SMOOTH",
"1441 86 OFFCURVE",
"1382 90 OFFCURVE",
"1339 102 OFFCURVE",
"1307 122 OFFCURVE",
"1292 137 QCURVE SMOOTH",
"1102 340 LINE",
"1137 417 OFFCURVE",
"1184 571 OFFCURVE",
"1202 637 QCURVE SMOOTH",
"1215 684 OFFCURVE",
"1260 739 OFFCURVE",
"1317 768 OFFCURVE",
"1383 776 OFFCURVE",
"1417 776 QCURVE SMOOTH",
"1436 776 LINE",
"1436 862 LINE",
"1067 862 LINE",
"1067 782 LINE SMOOTH",
"1067 745 OFFCURVE",
"1063 658 OFFCURVE",
"1052 567 OFFCURVE",
"1034 472 OFFCURVE",
"1020 426 QCURVE",
"647 821 LINE",
"741 861 OFFCURVE",
"872 938 OFFCURVE",
"955 1024 OFFCURVE",
"993 1126 OFFCURVE",
"993 1192 QCURVE SMOOTH",
"993 1251 OFFCURVE",
"954 1357 OFFCURVE",
"867 1437 OFFCURVE",
"729 1483 OFFCURVE",
"631 1483 QCURVE SMOOTH",
"529 1483 OFFCURVE",
"382 1440 OFFCURVE",
"288 1360 OFFCURVE",
"244 1250 OFFCURVE",
"244 1182 QCURVE SMOOTH",
"244 1132 OFFCURVE",
"264 1044 OFFCURVE",
"303 960 OFFCURVE",
"362 875 OFFCURVE",
"401 829 QCURVE",
"327 798 OFFCURVE",
"206 724 OFFCURVE",
"121 626 OFFCURVE",
"74 497 OFFCURVE",
"74 410 QCURVE SMOOTH",
"74 313 OFFCURVE",
"134 155 OFFCURVE",
"255 42 OFFCURVE",
"438 -20 OFFCURVE",
"561 -20 QCURVE SMOOTH",
"639 -20 OFFCURVE",
"770 11 OFFCURVE",
"878 65 OFFCURVE",
"967 138 OFFCURVE",
"1004 180 QCURVE",
"1174 0 LINE",
"1174 0 LINE"
);
},
{
closed = 1;
nodes = (
"580 94 LINE",
"580 94 LINE",
"511 94 OFFCURVE",
"399 134 OFFCURVE",
"318 213 OFFCURVE",
"274 328 OFFCURVE",
"274 403 QCURVE SMOOTH",
"274 469 OFFCURVE",
"302 573 OFFCURVE",
"355 656 OFFCURVE",
"430 719 OFFCURVE",
"477 745 QCURVE",
"930 260 LINE",
"901 224 OFFCURVE",
"829 163 OFFCURVE",
"743 119 OFFCURVE",
"640 94 OFFCURVE",
"580 94 QCURVE",
"580 94 LINE"
);
},
{
closed = 1;
nodes = (
"813 1190 LINE",
"813 1190 LINE",
"813 1136 OFFCURVE",
"785 1052 OFFCURVE",
"727 983 OFFCURVE",
"638 925 OFFCURVE",
"578 899 QCURVE",
"539 942 OFFCURVE",
"485 1014 OFFCURVE",
"450 1081 OFFCURVE",
"434 1149 OFFCURVE",
"434 1188 QCURVE SMOOTH",
"434 1276 OFFCURVE",
"532 1382 OFFCURVE",
"623 1382 QCURVE SMOOTH",
"675 1382 OFFCURVE",
"748 1352 OFFCURVE",
"793 1301 OFFCURVE",
"813 1231 OFFCURVE",
"813 1190 QCURVE",
"813 1190 LINE"
);
}
);
userData = {
assembly = "NPUSHB[ ]	/* 19 values pushed */\01296 1 2 7 36 16 2 3 2 71 70 54 37 1 5 4 3 3 76 \012MPPEM[ ]	/* MeasurePixelPerEm */\012PUSHB[ ]	/* 1 value pushed */\01210 \012LT[ ]	/* LessThan */\012IF[ ]	/* If */\012NPUSHB[ ]	/* 32 values pushed */\0120 2 0 3 4 2 3 105 0 7 7 1 97 0 1 1 43 77 8 6 2 4 4 0 97 5 1 0 0 44 0 78 \012ELSE[ ]	/* Else */\012MPPEM[ ]	/* MeasurePixelPerEm */\012PUSHB[ ]	/* 1 value pushed */\01214 \012LT[ ]	/* LessThan */\012IF[ ]	/* If */\012NPUSHB[ ]	/* 43 values pushed */\0120 2 0 3 4 2 3 105 0 7 7 1 97 0 1 1 43 77 8 6 2 4 4 5 95 0 5 5 38 77 8 6 2 4 4 0 97 0 0 0 44 0 78 \012ELSE[ ]	/* Else */\012MPPEM[ ]	/* MeasurePixelPerEm */\012PUSHB[ ]	/* 1 value pushed */\01221 \012LT[ ]	/* LessThan */\012IF[ ]	/* If */\012NPUSHB[ ]	/* 32 values pushed */\0120 2 0 3 4 2 3 105 0 7 7 1 97 0 1 1 43 77 8 6 2 4 4 0 97 5 1 0 0 44 0 78 \012ELSE[ ]	/* Else */\012MPPEM[ ]	/* MeasurePixelPerEm */\012PUSHB[ ]	/* 1 value pushed */\01223 \012LT[ ]	/* LessThan */\012IF[ ]	/* If */\012NPUSHB[ ]	/* 43 values pushed */\0120 2 0 3 4 2 3 105 0 7 7 1 97 0 1 1 43 77 8 6 2 4 4 5 95 0 5 5 38 77 8 6 2 4 4 0 97 0 0 0 44 0 78 \012ELSE[ ]	/* Else */\012MPPEM[ ]	/* MeasurePixelPerEm */\012PUSHB[ ]	/* 1 value pushed */\01225 \012LT[ ]	/* LessThan */\012IF[ ]	/* If */\012NPUSHB[ ]	/* 32 values pushed */\0120 2 0 3 4 2 3 105 0 7 7 1 97 0 1 1 43 77 8 6 2 4 4 0 97 5 1 0 0 44 0 78 \012ELSE[ ]	/* Else */\012NPUSHB[ ]	/* 43 values pushed */\0120 2 0 3 4 2 3 105 0 7 7 1 97 0 1 1 43 77 8 6 2 4 4 5 95 0 5 5 38 77 8 6 2 4 4 0 97 0 0 0 44 0 78 \012EIF[ ]	/* EndIf */\012EIF[ ]	/* EndIf */\012EIF[ ]	/* EndIf */\012EIF[ ]	/* EndIf */\012EIF[ ]	/* EndIf */\012NPUSHB[ ]	/* 22 values pushed */\01266 65 89 87 65 82 66 80 63 62 60 58 47 45 44 43 27 25 37 9 8 23 \012CALL[ ]	/* CallFunction */";
};
width = 1520;
}
);
note = ampersand;
unicode = 0026;
},
{
glyphname = quotesingle;
layers = (
{
layerId = "B9B2530D-1BC0-47AE-88F4-2EE543D2AECB";
paths = (
{
closed = 1;
nodes = (
"178 981 LINE",
"272 981 LINE",
"334 1462 LINE",
"117 1462 LINE",
"117 1462 LINE"
);
}
);
userData = {
assembly = "NPUSHB[ ]	/* 16 values pushed */\0120 1 1 0 95 0 0 0 37 1 78 17 16 2 8 24 \012CALL[ ]	/* CallFunction */";
};
width = 451;
}
);
note = quotesingle;
unicode = 0027;
},
{
glyphname = parenleft;
layers = (
{
layerId = "B9B2530D-1BC0-47AE-88F4-2EE543D2AECB";
paths = (
{
closed = 1;
nodes = (
"330 649 LINE",
"330 649 LINE",
"330 771 OFFCURVE",
"349 1009 OFFCURVE",
"413 1221 OFFCURVE",
"538 1400 OFFCURVE",
"643 1464 QCURVE",
"643 1556 LINE",
"502 1500 OFFCURVE",
"302 1341 OFFCURVE",
"175 1121 OFFCURVE",
"117 834 OFFCURVE",
"117 649 QCURVE SMOOTH",
"117 464 OFFCURVE",
"175 175 OFFCURVE",
"302 -46 OFFCURVE",
"502 -206 OFFCURVE",
"643 -262 QCURVE",
"643 -168 LINE",
"538 -104 OFFCURVE",
"413 76 OFFCURVE",
"349 289 OFFCURVE",
"330 527 OFFCURVE",
"330 649 QCURVE",
"330 649 LINE"
);
}
);
userData = {
assembly = "PUSHB[ ]	/* 4 values pushed */\01216 6 1 50 \012CALL[ ]	/* CallFunction */";
};
width = 709;
}
);
note = parenleft;
unicode = 0028;
},
{
glyphname = parenright;
layers = (
{
layerId = "B9B2530D-1BC0-47AE-88F4-2EE543D2AECB";
paths = (
{
closed = 1;
nodes = (
"379 649 LINE",
"379 649 LINE",
"379 527 OFFCURVE",
"360 289 OFFCURVE",
"295 76 OFFCURVE",
"171 -104 OFFCURVE",
"66 -168 QCURVE",
"66 -262 LINE",
"207 -206 OFFCURVE",
"407 -46 OFFCURVE",
"533 175 OFFCURVE",
"592 464 OFFCURVE",
"592 649 QCURVE SMOOTH",
"592 834 OFFCURVE",
"533 1121 OFFCURVE",
"407 1341 OFFCURVE",
"207 1500 OFFCURVE",
"66 1556 QCURVE",
"66 1464 LINE",
"171 1400 OFFCURVE",
"295 1221 OFFCURVE",
"360 1009 OFFCURVE",
"379 771 OFFCURVE",
"379 649 QCURVE",
"379 649 LINE"
);
}
);
userData = {
assembly = "PUSHB[ ]	/* 4 values pushed */\01216 6 1 50 \012CALL[ ]	/* CallFunction */";
};
width = 709;
}
);
note = parenright;
unicode = 0029;
},
{
glyphname = asterisk;
layers = (
{
layerId = "B9B2530D-1BC0-47AE-88F4-2EE543D2AECB";
paths = (
{
closed = 1;
nodes = (
"428 1165 LINE",
"84 1063 LINE",
"156 903 LINE",
"469 1098 LINE",
"418 774 LINE",
"596 774 LINE",
"539 1098 LINE",
"856 907 LINE",
"928 1065 LINE",
"582 1165 LINE",
"928 1266 LINE",
"856 1425 LINE",
"539 1233 LINE",
"596 1556 LINE",
"418 1556 LINE",
"471 1231 LINE",
"156 1430 LINE",
"84 1268 LINE",
"84 1268 LINE"
);
}
);
userData = {
assembly = "NPUSHB[ ]	/* 34 values pushed */\01217 16 15 14 11 10 9 8 7 6 5 2 1 13 1 0 1 76 0 1 1 0 95 0 0 0 39 1 78 24 19 2 8 24 \012CALL[ ]	/* CallFunction */";
};
width = 1024;
}
);
note = asterisk;
unicode = 002A;
},
{
glyphname = plus;
layers = (
{
layerId = "B9B2530D-1BC0-47AE-88F4-2EE543D2AECB";
paths = (
{
closed = 1;
nodes = (
"1012 672 LINE",
"1012 793 LINE",
"633 793 LINE",
"633 1171 LINE",
"510 1171 LINE",
"510 793 LINE",
"133 793 LINE",
"133 672 LINE",
"510 672 LINE",
"510 293 LINE",
"633 293 LINE",
"633 672 LINE",
"633 672 LINE"
);
}
);
userData = {
assembly = "NPUSHB[ ]	/* 41 values pushed */\0120 3 2 0 3 87 4 1 2 6 5 2 1 0 2 1 103 0 3 3 0 95 0 0 3 0 79 0 0 0 11 0 11 17 17 17 17 17 7 8 27 \012CALL[ ]	/* CallFunction */";
};
width = 1145;
}
);
note = plus;
unicode = 002B;
},
{
glyphname = comma;
layers = (
{
layerId = "B9B2530D-1BC0-47AE-88F4-2EE543D2AECB";
paths = (
{
closed = 1;
nodes = (
"397 86 LINE",
"397 86 LINE",
"397 129 OFFCURVE",
"372 196 OFFCURVE",
"328 241 OFFCURVE",
"272 264 OFFCURVE",
"240 264 QCURVE SMOOTH",
"183 264 OFFCURVE",
"106 202 OFFCURVE",
"106 143 QCURVE SMOOTH",
"106 112 OFFCURVE",
"128 71 OFFCURVE",
"162 43 OFFCURVE",
"200 23 OFFCURVE",
"234 2 OFFCURVE",
"256 -25 OFFCURVE",
"256 -45 QCURVE SMOOTH",
"256 -105 OFFCURVE",
"162 -197 OFFCURVE",
"61 -229 QCURVE",
"61 -315 LINE",
"153 -288 OFFCURVE",
"280 -205 OFFCURVE",
"361 -101 OFFCURVE",
"397 21 OFFCURVE",
"397 86 QCURVE",
"397 86 LINE"
);
}
);
userData = {
assembly = "NPUSHB[ ]	/* 14 values pushed */\0126 5 2 0 73 0 0 0 118 20 18 1 8 22 \012CALL[ ]	/* CallFunction */";
};
width = 512;
}
);
note = comma;
unicode = 002C;
},
{
glyphname = hyphen;
layers = (
{
layerId = "B9B2530D-1BC0-47AE-88F4-2EE543D2AECB";
paths = (
{
closed = 1;
nodes = (
"584 481 LINE",
"584 635 LINE",
"51 635 LINE",
"51 481 LINE",
"51 481 LINE"
);
}
);
userData = {
assembly = "NPUSHB[ ]	/* 27 values pushed */\0120 0 1 1 0 87 0 0 0 1 95 2 1 1 0 1 79 0 0 0 3 0 3 17 3 8 23 \012CALL[ ]	/* CallFunction */";
};
width = 635;
}
);
note = hyphen;
unicode = 002D;
},
{
glyphname = period;
layers = (
{
layerId = "B9B2530D-1BC0-47AE-88F4-2EE543D2AECB";
paths = (
{
closed = 1;
nodes = (
"127 125 LINE",
"127 125 LINE",
"127 86 OFFCURVE",
"147 32 OFFCURVE",
"182 0 OFFCURVE",
"229 -14 OFFCURVE",
"256 -14 QCURVE SMOOTH",
"282 -14 OFFCURVE",
"329 0 OFFCURVE",
"364 32 OFFCURVE",
"385 86 OFFCURVE",
"385 125 QCURVE SMOOTH",
"385 165 OFFCURVE",
"364 218 OFFCURVE",
"329 250 OFFCURVE",
"282 264 OFFCURVE",
"256 264 QCURVE SMOOTH",
"229 264 OFFCURVE",
"182 250 OFFCURVE",
"147 218 OFFCURVE",
"127 165 OFFCURVE",
"127 125 QCURVE",
"127 125 LINE"
);
}
);
userData = {
assembly = "NPUSHB[ ]	/* 16 values pushed */\0120 0 0 1 97 0 1 1 44 1 78 40 36 2 8 24 \012CALL[ ]	/* CallFunction */";
};
width = 512;
}
);
note = period;
unicode = 002E;
},
{
glyphname = slash;
layers = (
{
layerId = "B9B2530D-1BC0-47AE-88F4-2EE543D2AECB";
paths = (
{
closed = 1;
nodes = (
"590 1556 LINE",
"471 1556 LINE",
"0 -248 LINE",
"121 -248 LINE",
"121 -248 LINE"
);
}
);
userData = {
assembly = "NPUSHB[ ]	/* 16 values pushed */\0120 0 1 0 134 0 1 1 39 1 78 17 16 2 8 24 \012CALL[ ]	/* CallFunction */";
};
width = 590;
}
);
note = slash;
unicode = 002F;
},
{
glyphname = zero;
layers = (
{
layerId = "B9B2530D-1BC0-47AE-88F4-2EE543D2AECB";
paths = (
{
closed = 1;
nodes = (
"1053 733 LINE",
"1053 733 LINE",
"1053 904 OFFCURVE",
"994 1181 OFFCURVE",
"874 1377 OFFCURVE",
"695 1483 OFFCURVE",
"575 1483 QCURVE SMOOTH",
"448 1483 OFFCURVE",
"265 1377 OFFCURVE",
"148 1181 OFFCURVE",
"92 905 OFFCURVE",
"92 735 QCURVE SMOOTH",
"92 565 OFFCURVE",
"148 286 OFFCURVE",
"265 88 OFFCURVE",
"447 -20 OFFCURVE",
"573 -20 QCURVE SMOOTH",
"694 -20 OFFCURVE",
"874 88 OFFCURVE",
"994 286 OFFCURVE",
"1053 564 OFFCURVE",
"1053 733 QCURVE",
"1053 733 LINE"
);
},
{
closed = 1;
nodes = (
"305 733 LINE",
"305 733 LINE",
"305 885 OFFCURVE",
"333 1123 OFFCURVE",
"397 1287 OFFCURVE",
"500 1372 OFFCURVE",
"575 1372 QCURVE SMOOTH",
"649 1372 OFFCURVE",
"750 1287 OFFCURVE",
"813 1123 OFFCURVE",
"840 885 OFFCURVE",
"840 733 QCURVE SMOOTH",
"840 581 OFFCURVE",
"813 342 OFFCURVE",
"750 177 OFFCURVE",
"648 90 OFFCURVE",
"573 90 QCURVE SMOOTH",
"499 90 OFFCURVE",
"396 177 OFFCURVE",
"333 342 OFFCURVE",
"305 581 OFFCURVE",
"305 733 QCURVE",
"305 733 LINE"
);
}
);
userData = {
assembly = "NPUSHB[ ]	/* 28 values pushed */\0120 3 3 1 97 0 1 1 43 77 0 2 2 0 97 0 0 0 44 0 78 40 42 40 36 4 8 26 \012CALL[ ]	/* CallFunction */";
};
width = 1145;
}
);
note = zero;
unicode = 0030;
},
{
glyphname = one;
layers = (
{
layerId = "B9B2530D-1BC0-47AE-88F4-2EE543D2AECB";
paths = (
{
closed = 1;
nodes = (
"197 0 LINE",
"197 0 LINE",
"977 0 LINE",
"977 86 LINE",
"877 86 LINE SMOOTH",
"842 86 OFFCURVE",
"781 96 OFFCURVE",
"735 127 OFFCURVE",
"709 185 OFFCURVE",
"709 233 QCURVE SMOOTH",
"709 1470 LINE",
"578 1470 LINE",
"434 1364 LINE SMOOTH",
"383 1327 OFFCURVE",
"300 1274 OFFCURVE",
"229 1237 OFFCURVE",
"166 1214 OFFCURVE",
"135 1206 QCURVE",
"135 1157 OFFCURVE",
"193 1096 OFFCURVE",
"238 1096 QCURVE SMOOTH",
"268 1096 OFFCURVE",
"329 1127 OFFCURVE",
"393 1183 OFFCURVE",
"463 1261 OFFCURVE",
"502 1309 QCURVE",
"502 233 LINE SMOOTH",
"502 185 OFFCURVE",
"475 127 OFFCURVE",
"430 96 OFFCURVE",
"369 86 OFFCURVE",
"334 86 QCURVE SMOOTH",
"197 86 LINE",
"197 0 LINE",
"197 0 LINE"
);
}
);
userData = {
assembly = "NPUSHB[ ]	/* 40 values pushed */\01216 8 2 1 2 1 76 0 1 2 0 2 1 0 128 0 2 2 37 77 3 1 0 0 4 95 0 4 4 38 4 78 17 37 24 41 33 5 8 27 \012CALL[ ]	/* CallFunction */";
};
width = 1145;
}
);
note = one;
unicode = 0031;
},
{
glyphname = two;
layers = (
{
layerId = "B9B2530D-1BC0-47AE-88F4-2EE543D2AECB";
paths = (
{
closed = 1;
nodes = (
"944 1141 LINE",
"944 1141 LINE",
"944 1219 OFFCURVE",
"887 1345 OFFCURVE",
"779 1434 OFFCURVE",
"625 1483 OFFCURVE",
"528 1483 QCURVE SMOOTH",
"429 1483 OFFCURVE",
"279 1442 OFFCURVE",
"178 1368 OFFCURVE",
"127 1267 OFFCURVE",
"127 1208 QCURVE SMOOTH",
"127 1169 OFFCURVE",
"154 1118 OFFCURVE",
"202 1087 OFFCURVE",
"266 1075 OFFCURVE",
"303 1075 QCURVE",
"303 1136 OFFCURVE",
"321 1246 OFFCURVE",
"371 1330 OFFCURVE",
"458 1380 OFFCURVE",
"528 1380 QCURVE SMOOTH",
"582 1380 OFFCURVE",
"661 1343 OFFCURVE",
"712 1274 OFFCURVE",
"737 1179 OFFCURVE",
"737 1120 QCURVE SMOOTH",
"737 1050 OFFCURVE",
"707 923 OFFCURVE",
"639 790 OFFCURVE",
"528 640 OFFCURVE",
"446 545 QCURVE SMOOTH",
"104 150 LINE",
"104 0 LINE",
"985 0 LINE",
"995 354 LINE",
"909 354 LINE",
"901 317 LINE SMOOTH",
"894 287 OFFCURVE",
"873 232 OFFCURVE",
"835 190 OFFCURVE",
"775 164 OFFCURVE",
"729 164 QCURVE SMOOTH",
"256 164 LINE",
"602 547 LINE SMOOTH",
"683 636 OFFCURVE",
"810 790 OFFCURVE",
"898 933 OFFCURVE",
"944 1069 OFFCURVE",
"944 1141 QCURVE",
"944 1141 LINE"
);
}
);
userData = {
assembly = "PUSHB[ ]	/* 6 values pushed */\01217 1 2 0 1 76 \012MPPEM[ ]	/* MeasurePixelPerEm */\012PUSHB[ ]	/* 1 value pushed */\01214 \012LT[ ]	/* LessThan */\012IF[ ]	/* If */\012NPUSHB[ ]	/* 35 values pushed */\0120 4 3 1 3 4 1 128 0 1 0 0 1 112 0 3 3 5 97 0 5 5 43 77 0 0 0 2 96 0 2 2 38 2 78 \012ELSE[ ]	/* Else */\012NPUSHB[ ]	/* 36 values pushed */\0120 4 3 1 3 4 1 128 0 1 0 3 1 0 126 0 3 3 5 97 0 5 5 43 77 0 0 0 2 96 0 2 2 38 2 78 \012EIF[ ]	/* EndIf */\012NPUSHB[ ]	/* 9 values pushed */\01240 20 43 17 21 38 6 8 28 \012CALL[ ]	/* CallFunction */";
};
width = 1145;
}
);
note = two;
unicode = 0032;
},
{
glyphname = three;
layers = (
{
layerId = "B9B2530D-1BC0-47AE-88F4-2EE543D2AECB";
paths = (
{
closed = 1;
nodes = (
"508 90 LINE",
"508 90 LINE",
"446 90 OFFCURVE",
"349 127 OFFCURVE",
"283 193 OFFCURVE",
"248 284 OFFCURVE",
"248 338 QCURVE",
"189 338 OFFCURVE",
"119 269 OFFCURVE",
"119 207 QCURVE SMOOTH",
"119 162 OFFCURVE",
"164 79 OFFCURVE",
"259 17 OFFCURVE",
"405 -20 OFFCURVE",
"506 -20 QCURVE SMOOTH",
"565 -20 OFFCURVE",
"687 -1 OFFCURVE",
"803 41 OFFCURVE",
"905 109 OFFCURVE",
"982 206 OFFCURVE",
"1026 336 OFFCURVE",
"1026 418 QCURVE SMOOTH",
"1026 486 OFFCURVE",
"991 589 OFFCURVE",
"932 667 OFFCURVE",
"855 721 OFFCURVE",
"771 757 OFFCURVE",
"685 776 OFFCURVE",
"647 780 QCURVE",
"718 797 OFFCURVE",
"838 867 OFFCURVE",
"926 966 OFFCURVE",
"975 1088 OFFCURVE",
"975 1157 QCURVE SMOOTH",
"975 1235 OFFCURVE",
"913 1356 OFFCURVE",
"800 1439 OFFCURVE",
"642 1483 OFFCURVE",
"545 1483 QCURVE SMOOTH",
"446 1483 OFFCURVE",
"296 1442 OFFCURVE",
"194 1368 OFFCURVE",
"143 1267 OFFCURVE",
"143 1208 QCURVE SMOOTH",
"143 1169 OFFCURVE",
"170 1118 OFFCURVE",
"218 1087 OFFCURVE",
"282 1075 OFFCURVE",
"319 1075 QCURVE",
"319 1136 OFFCURVE",
"337 1246 OFFCURVE",
"387 1330 OFFCURVE",
"475 1380 OFFCURVE",
"545 1380 QCURVE SMOOTH",
"604 1380 OFFCURVE",
"687 1346 OFFCURVE",
"740 1280 OFFCURVE",
"764 1186 OFFCURVE",
"764 1126 QCURVE SMOOTH",
"764 1053 OFFCURVE",
"714 936 OFFCURVE",
"627 854 OFFCURVE",
"510 809 OFFCURVE",
"442 809 QCURVE SMOOTH",
"377 809 LINE",
"377 705 LINE",
"442 705 LINE SMOOTH",
"528 705 OFFCURVE",
"666 664 OFFCURVE",
"762 590 OFFCURVE",
"813 485 OFFCURVE",
"813 420 QCURVE SMOOTH",
"813 328 OFFCURVE",
"763 202 OFFCURVE",
"679 124 OFFCURVE",
"569 90 OFFCURVE",
"508 90 QCURVE",
"508 90 LINE"
);
}
);
userData = {
assembly = "NPUSHB[ ]	/* 75 values pushed */\01248 1 1 2 1 76 0 4 3 2 3 4 2 128 0 7 1 0 1 7 0 128 0 2 0 1 7 2 1 105 0 3 3 5 97 0 5 5 43 77 8 1 0 0 6 97 0 6 6 44 6 78 1 0 70 69 63 61 39 37 29 28 24 22 14 12 11 9 0 76 1 74 9 8 22 \012CALL[ ]	/* CallFunction */";
};
width = 1145;
}
);
note = three;
unicode = 0033;
},
{
glyphname = four;
layers = (
{
layerId = "B9B2530D-1BC0-47AE-88F4-2EE543D2AECB";
paths = (
{
closed = 1;
nodes = (
"862 401 LINE",
"862 401 LINE",
"1116 401 LINE",
"1116 516 LINE",
"862 516 LINE",
"862 1462 LINE",
"668 1462 LINE",
"35 485 LINE",
"35 401 LINE",
"666 401 LINE",
"666 233 LINE SMOOTH",
"666 185 OFFCURVE",
"639 127 OFFCURVE",
"594 96 OFFCURVE",
"533 86 OFFCURVE",
"498 86 QCURVE SMOOTH",
"440 86 LINE",
"440 0 LINE",
"1057 0 LINE",
"1057 86 LINE",
"1030 86 LINE SMOOTH",
"996 86 OFFCURVE",
"934 96 OFFCURVE",
"889 127 OFFCURVE",
"862 185 OFFCURVE",
"862 233 QCURVE SMOOTH",
"862 401 LINE",
"862 401 LINE"
);
},
{
closed = 1;
nodes = (
"666 895 LINE",
"666 895 LINE",
"666 516 LINE",
"182 516 LINE",
"496 1004 LINE SMOOTH",
"508 1022 OFFCURVE",
"540 1075 OFFCURVE",
"577 1136 OFFCURVE",
"614 1200 OFFCURVE",
"647 1258 OFFCURVE",
"673 1305 OFFCURVE",
"680 1319 QCURVE",
"676 1271 OFFCURVE",
"671 1160 OFFCURVE",
"668 1048 OFFCURVE",
"666 940 OFFCURVE",
"666 895 QCURVE",
"666 895 LINE"
);
}
);
userData = {
assembly = "NPUSHB[ ]	/* 48 values pushed */\01232 1 5 4 19 1 3 5 2 76 7 1 5 6 1 3 0 5 3 103 0 4 4 37 77 2 1 0 0 1 95 0 1 1 38 1 78 31 17 17 18 21 33 17 37 8 8 30 \012CALL[ ]	/* CallFunction */";
};
width = 1145;
}
);
note = four;
unicode = 0034;
},
{
glyphname = five;
layers = (
{
layerId = "B9B2530D-1BC0-47AE-88F4-2EE543D2AECB";
paths = (
{
closed = 1;
nodes = (
"489 100 LINE",
"489 100 LINE",
"427 100 OFFCURVE",
"334 132 OFFCURVE",
"273 187 OFFCURVE",
"242 263 OFFCURVE",
"242 307 QCURVE",
"176 307 OFFCURVE",
"113 243 OFFCURVE",
"113 186 QCURVE SMOOTH",
"113 152 OFFCURVE",
"149 79 OFFCURVE",
"237 19 OFFCURVE",
"386 -20 OFFCURVE",
"500 -20 QCURVE SMOOTH",
"617 -20 OFFCURVE",
"801 47 OFFCURVE",
"928 170 OFFCURVE",
"995 342 OFFCURVE",
"995 446 QCURVE SMOOTH",
"995 554 OFFCURVE",
"924 717 OFFCURVE",
"798 825 OFFCURVE",
"627 879 OFFCURVE",
"528 879 QCURVE SMOOTH",
"437 879 OFFCURVE",
"320 857 OFFCURVE",
"289 846 QCURVE",
"328 1296 LINE",
"725 1296 LINE SMOOTH",
"757 1296 OFFCURVE",
"798 1286 OFFCURVE",
"822 1265 OFFCURVE",
"833 1234 OFFCURVE",
"836 1212 QCURVE SMOOTH",
"844 1151 LINE",
"930 1151 LINE",
"920 1460 LINE",
"236 1460 LINE",
"170 735 LINE",
"219 721 LINE",
"238 729 OFFCURVE",
"282 745 OFFCURVE",
"341 758 OFFCURVE",
"418 766 OFFCURVE",
"471 766 QCURVE SMOOTH",
"542 766 OFFCURVE",
"656 727 OFFCURVE",
"738 647 OFFCURVE",
"782 527 OFFCURVE",
"782 446 QCURVE SMOOTH",
"782 349 OFFCURVE",
"738 216 OFFCURVE",
"659 135 OFFCURVE",
"552 100 OFFCURVE",
"489 100 QCURVE",
"489 100 LINE"
);
}
);
userData = {
assembly = "NPUSHB[ ]	/* 11 values pushed */\01228 1 1 5 16 15 2 7 1 2 76 \012MPPEM[ ]	/* MeasurePixelPerEm */\012PUSHB[ ]	/* 1 value pushed */\01218 \012LT[ ]	/* LessThan */\012IF[ ]	/* If */\012NPUSHB[ ]	/* 45 values pushed */\0120 3 4 5 4 3 114 0 7 1 0 1 7 0 128 0 5 0 1 7 5 1 105 0 4 4 2 95 0 2 2 37 77 8 1 0 0 6 97 0 6 6 44 6 78 \012ELSE[ ]	/* Else */\012NPUSHB[ ]	/* 46 values pushed */\0120 3 4 5 4 3 5 128 0 7 1 0 1 7 0 128 0 5 0 1 7 5 1 105 0 4 4 2 95 0 2 2 37 77 8 1 0 0 6 97 0 6 6 44 6 78 \012EIF[ ]	/* EndIf */\012NPUSHB[ ]	/* 23 values pushed */\0121 0 49 48 42 40 32 30 27 25 20 19 18 17 11 9 0 55 1 53 9 8 22 \012CALL[ ]	/* CallFunction */";
};
width = 1145;
}
);
note = five;
unicode = 0035;
},
{
glyphname = six;
layers = (
{
layerId = "B9B2530D-1BC0-47AE-88F4-2EE543D2AECB";
paths = (
{
closed = 1;
nodes = (
"659 1384 LINE",
"659 1384 LINE",
"709 1384 OFFCURVE",
"777 1347 OFFCURVE",
"821 1282 OFFCURVE",
"840 1195 OFFCURVE",
"840 1145 QCURVE",
"917 1145 OFFCURVE",
"997 1209 OFFCURVE",
"997 1268 QCURVE SMOOTH",
"997 1309 OFFCURVE",
"956 1387 OFFCURVE",
"872 1447 OFFCURVE",
"745 1483 OFFCURVE",
"659 1483 QCURVE SMOOTH",
"569 1483 OFFCURVE",
"419 1427 OFFCURVE",
"300 1326 OFFCURVE",
"212 1186 OFFCURVE",
"154 1020 OFFCURVE",
"125 834 OFFCURVE",
"125 737 QCURVE SMOOTH",
"125 535 OFFCURVE",
"197 248 OFFCURVE",
"324 65 OFFCURVE",
"498 -20 OFFCURVE",
"600 -20 QCURVE SMOOTH",
"705 -20 OFFCURVE",
"868 52 OFFCURVE",
"981 181 OFFCURVE",
"1040 361 OFFCURVE",
"1040 469 QCURVE SMOOTH",
"1040 567 OFFCURVE",
"982 723 OFFCURVE",
"875 831 OFFCURVE",
"723 889 OFFCURVE",
"629 889 QCURVE SMOOTH",
"579 889 OFFCURVE",
"494 871 OFFCURVE",
"422 842 OFFCURVE",
"361 803 OFFCURVE",
"336 782 QCURVE",
"347 1081 OFFCURVE",
"505 1384 OFFCURVE",
"659 1384 QCURVE",
"659 1384 LINE"
);
},
{
closed = 1;
nodes = (
"588 784 LINE",
"588 784 LINE",
"706 784 OFFCURVE",
"831 624 OFFCURVE",
"831 449 QCURVE SMOOTH",
"831 263 OFFCURVE",
"716 92 OFFCURVE",
"606 92 QCURVE SMOOTH",
"545 92 OFFCURVE",
"445 156 OFFCURVE",
"375 294 OFFCURVE",
"336 512 OFFCURVE",
"334 666 QCURVE",
"355 687 OFFCURVE",
"409 730 OFFCURVE",
"474 763 OFFCURVE",
"548 784 OFFCURVE",
"588 784 QCURVE",
"588 784 LINE"
);
}
);
userData = {
assembly = "NPUSHB[ ]	/* 71 values pushed */\01250 3 2 6 5 1 76 0 4 0 1 0 4 1 128 0 1 8 1 5 6 1 5 105 7 1 0 0 3 97 0 3 3 43 77 0 6 6 2 97 0 2 2 44 2 78 46 45 1 0 56 54 45 62 46 60 38 37 31 29 19 17 9 7 0 44 1 42 9 8 22 \012CALL[ ]	/* CallFunction */";
};
width = 1145;
}
);
note = six;
unicode = 0036;
},
{
glyphname = seven;
layers = (
{
layerId = "B9B2530D-1BC0-47AE-88F4-2EE543D2AECB";
paths = (
{
closed = 1;
nodes = (
"389 0 LINE",
"389 0 LINE",
"543 0 LINE",
"1047 1401 LINE",
"1047 1460 LINE",
"131 1460 LINE",
"121 1090 LINE",
"207 1090 LINE",
"215 1192 LINE SMOOTH",
"224 1296 OFFCURVE",
"334 1296 QCURVE SMOOTH",
"872 1296 LINE",
"389 0 LINE",
"389 0 LINE"
);
}
);
userData = {
assembly = "PUSHB[ ]	/* 6 values pushed */\0129 1 0 2 1 76 \012MPPEM[ ]	/* MeasurePixelPerEm */\012PUSHB[ ]	/* 1 value pushed */\01212 \012LT[ ]	/* LessThan */\012IF[ ]	/* If */\012NPUSHB[ ]	/* 23 values pushed */\0120 1 0 3 0 1 114 0 0 0 2 95 0 2 2 37 77 0 3 3 38 3 78 \012ELSE[ ]	/* Else */\012NPUSHB[ ]	/* 24 values pushed */\0120 1 0 3 0 1 3 128 0 0 0 2 95 0 2 2 37 77 0 3 3 38 3 78 \012EIF[ ]	/* EndIf */\012PUSHB[ ]	/* 7 values pushed */\01218 17 18 33 4 8 26 \012CALL[ ]	/* CallFunction */";
};
width = 1145;
}
);
note = seven;
unicode = 0037;
},
{
glyphname = eight;
layers = (
{
layerId = "B9B2530D-1BC0-47AE-88F4-2EE543D2AECB";
paths = (
{
closed = 1;
nodes = (
"94 367 LINE",
"94 367 LINE",
"94 286 OFFCURVE",
"153 145 OFFCURVE",
"270 40 OFFCURVE",
"444 -20 OFFCURVE",
"559 -20 QCURVE SMOOTH",
"671 -20 OFFCURVE",
"853 35 OFFCURVE",
"981 141 OFFCURVE",
"1051 294 OFFCURVE",
"1051 391 QCURVE SMOOTH",
"1051 458 OFFCURVE",
"1002 570 OFFCURVE",
"912 666 OFFCURVE",
"787 748 OFFCURVE",
"711 784 QCURVE",
"773 815 OFFCURVE",
"875 880 OFFCURVE",
"947 961 OFFCURVE",
"987 1063 OFFCURVE",
"987 1130 QCURVE SMOOTH",
"987 1207 OFFCURVE",
"933 1336 OFFCURVE",
"830 1430 OFFCURVE",
"680 1483 OFFCURVE",
"584 1483 QCURVE SMOOTH",
"466 1483 OFFCURVE",
"297 1421 OFFCURVE",
"191 1319 OFFCURVE",
"141 1187 OFFCURVE",
"141 1116 QCURVE SMOOTH",
"141 1052 OFFCURVE",
"180 943 OFFCURVE",
"250 851 OFFCURVE",
"348 774 OFFCURVE",
"406 741 QCURVE",
"339 709 OFFCURVE",
"225 639 OFFCURVE",
"141 552 OFFCURVE",
"94 441 OFFCURVE",
"94 367 QCURVE",
"94 367 LINE"
);
},
{
closed = 1;
nodes = (
"569 74 LINE",
"569 74 LINE",
"501 74 OFFCURVE",
"397 115 OFFCURVE",
"328 190 OFFCURVE",
"293 294 OFFCURVE",
"293 358 QCURVE SMOOTH",
"293 474 OFFCURVE",
"407 640 OFFCURVE",
"504 692 QCURVE",
"603 649 OFFCURVE",
"740 570 OFFCURVE",
"826 487 OFFCURVE",
"864 398 OFFCURVE",
"864 346 QCURVE SMOOTH",
"864 287 OFFCURVE",
"822 187 OFFCURVE",
"745 115 OFFCURVE",
"636 74 OFFCURVE",
"569 74 QCURVE",
"569 74 LINE"
);
},
{
closed = 1;
nodes = (
"805 1135 LINE",
"805 1135 LINE",
"805 1081 OFFCURVE",
"787 994 OFFCURVE",
"743 921 OFFCURVE",
"668 860 OFFCURVE",
"610 831 QCURVE",
"542 863 OFFCURVE",
"438 926 OFFCURVE",
"369 998 OFFCURVE",
"334 1086 OFFCURVE",
"334 1141 QCURVE SMOOTH",
"334 1194 OFFCURVE",
"365 1284 OFFCURVE",
"425 1349 OFFCURVE",
"514 1386 OFFCURVE",
"571 1386 QCURVE SMOOTH",
"636 1386 OFFCURVE",
"725 1343 OFFCURVE",
"780 1272 OFFCURVE",
"805 1182 OFFCURVE",
"805 1135 QCURVE",
"805 1135 LINE"
);
}
);
userData = {
assembly = "NPUSHB[ ]	/* 45 values pushed */\01277 52 25 5 4 2 3 1 76 0 3 3 0 97 0 0 0 43 77 4 1 2 2 1 97 0 1 1 44 1 78 43 42 68 66 42 61 43 59 36 34 46 5 8 23 \012CALL[ ]	/* CallFunction */";
};
width = 1145;
}
);
note = eight;
unicode = 0038;
},
{
glyphname = nine;
layers = (
{
layerId = "B9B2530D-1BC0-47AE-88F4-2EE543D2AECB";
paths = (
{
closed = 1;
nodes = (
"467 90 LINE",
"467 90 LINE",
"419 90 OFFCURVE",
"343 116 OFFCURVE",
"284 161 OFFCURVE",
"243 220 OFFCURVE",
"229 252 QCURVE",
"206 244 OFFCURVE",
"168 192 OFFCURVE",
"168 154 QCURVE SMOOTH",
"168 122 OFFCURVE",
"196 58 OFFCURVE",
"263 8 OFFCURVE",
"378 -23 OFFCURVE",
"465 -23 QCURVE SMOOTH",
"564 -23 OFFCURVE",
"724 38 OFFCURVE",
"847 149 OFFCURVE",
"936 301 OFFCURVE",
"993 483 OFFCURVE",
"1020 688 OFFCURVE",
"1020 795 QCURVE SMOOTH",
"1020 975 OFFCURVE",
"949 1235 OFFCURVE",
"821 1403 OFFCURVE",
"647 1483 OFFCURVE",
"543 1483 QCURVE SMOOTH",
"440 1483 OFFCURVE",
"277 1408 OFFCURVE",
"164 1275 OFFCURVE",
"104 1090 OFFCURVE",
"104 979 QCURVE SMOOTH",
"104 875 OFFCURVE",
"163 719 OFFCURVE",
"270 615 OFFCURVE",
"419 563 OFFCURVE",
"508 563 QCURVE SMOOTH",
"562 563 OFFCURVE",
"653 586 OFFCURVE",
"728 625 OFFCURVE",
"787 675 OFFCURVE",
"809 702 QCURVE",
"799 394 OFFCURVE",
"637 90 OFFCURVE",
"467 90 QCURVE",
"467 90 LINE"
);
},
{
closed = 1;
nodes = (
"553 684 LINE",
"553 684 LINE",
"494 684 OFFCURVE",
"405 719 OFFCURVE",
"345 795 OFFCURVE",
"315 915 OFFCURVE",
"315 999 QCURVE SMOOTH",
"315 1180 OFFCURVE",
"434 1370 OFFCURVE",
"543 1370 QCURVE SMOOTH",
"602 1370 OFFCURVE",
"699 1310 OFFCURVE",
"769 1184 OFFCURVE",
"809 989 OFFCURVE",
"811 854 QCURVE SMOOTH",
"811 850 LINE",
"797 817 OFFCURVE",
"750 757 OFFCURVE",
"686 712 OFFCURVE",
"603 685 OFFCURVE",
"553 684 QCURVE",
"553 684 LINE"
);
}
);
userData = {
assembly = "NPUSHB[ ]	/* 65 values pushed */\01250 3 2 4 5 38 1 0 1 2 76 7 1 4 0 1 0 4 1 105 0 5 5 2 97 0 2 2 43 77 6 1 0 0 3 97 0 3 3 44 3 78 46 45 1 0 57 55 45 65 46 63 31 29 19 17 9 7 0 44 1 42 8 8 22 \012CALL[ ]	/* CallFunction */";
};
width = 1145;
}
);
note = nine;
unicode = 0039;
},
{
glyphname = colon;
layers = (
{
layerId = "B9B2530D-1BC0-47AE-88F4-2EE543D2AECB";
paths = (
{
closed = 1;
nodes = (
"166 125 LINE",
"166 125 LINE",
"166 86 OFFCURVE",
"186 32 OFFCURVE",
"221 0 OFFCURVE",
"268 -14 OFFCURVE",
"295 -14 QCURVE SMOOTH",
"321 -14 OFFCURVE",
"368 0 OFFCURVE",
"403 32 OFFCURVE",
"424 86 OFFCURVE",
"424 125 QCURVE SMOOTH",
"424 165 OFFCURVE",
"403 218 OFFCURVE",
"368 250 OFFCURVE",
"321 264 OFFCURVE",
"295 264 QCURVE SMOOTH",
"268 264 OFFCURVE",
"221 250 OFFCURVE",
"186 218 OFFCURVE",
"166 165 OFFCURVE",
"166 125 QCURVE",
"166 125 LINE"
);
},
{
closed = 1;
nodes = (
"166 969 LINE",
"166 969 LINE",
"166 930 OFFCURVE",
"186 876 OFFCURVE",
"221 843 OFFCURVE",
"268 829 OFFCURVE",
"295 829 QCURVE SMOOTH",
"321 829 OFFCURVE",
"368 843 OFFCURVE",
"403 876 OFFCURVE",
"424 930 OFFCURVE",
"424 969 QCURVE SMOOTH",
"424 1009 OFFCURVE",
"403 1062 OFFCURVE",
"368 1094 OFFCURVE",
"321 1108 OFFCURVE",
"295 1108 QCURVE SMOOTH",
"268 1108 OFFCURVE",
"221 1094 OFFCURVE",
"186 1062 OFFCURVE",
"166 1009 OFFCURVE",
"166 969 QCURVE",
"166 969 LINE"
);
}
);
userData = {
assembly = "NPUSHB[ ]	/* 28 values pushed */\0120 3 3 2 97 0 2 2 40 77 0 0 0 1 97 0 1 1 44 1 78 40 42 40 36 4 8 26 \012CALL[ ]	/* CallFunction */";
};
width = 586;
}
);
note = colon;
unicode = 003A;
},
{
glyphname = semicolon;
layers = (
{
layerId = "B9B2530D-1BC0-47AE-88F4-2EE543D2AECB";
paths = (
{
closed = 1;
nodes = (
"434 86 LINE",
"434 86 LINE",
"434 129 OFFCURVE",
"409 196 OFFCURVE",
"365 241 OFFCURVE",
"309 264 OFFCURVE",
"277 264 QCURVE SMOOTH",
"220 264 OFFCURVE",
"143 202 OFFCURVE",
"143 143 QCURVE SMOOTH",
"143 112 OFFCURVE",
"165 71 OFFCURVE",
"199 43 OFFCURVE",
"237 23 OFFCURVE",
"271 2 OFFCURVE",
"293 -25 OFFCURVE",
"293 -45 QCURVE SMOOTH",
"293 -105 OFFCURVE",
"199 -197 OFFCURVE",
"98 -229 QCURVE",
"98 -315 LINE",
"190 -288 OFFCURVE",
"317 -205 OFFCURVE",
"398 -101 OFFCURVE",
"434 21 OFFCURVE",
"434 86 QCURVE",
"434 86 LINE"
);
},
{
closed = 1;
nodes = (
"166 969 LINE",
"166 969 LINE",
"166 930 OFFCURVE",
"186 876 OFFCURVE",
"221 843 OFFCURVE",
"268 829 OFFCURVE",
"295 829 QCURVE SMOOTH",
"321 829 OFFCURVE",
"368 843 OFFCURVE",
"403 876 OFFCURVE",
"424 930 OFFCURVE",
"424 969 QCURVE SMOOTH",
"424 1009 OFFCURVE",
"403 1062 OFFCURVE",
"368 1094 OFFCURVE",
"321 1108 OFFCURVE",
"295 1108 QCURVE SMOOTH",
"268 1108 OFFCURVE",
"221 1094 OFFCURVE",
"186 1062 OFFCURVE",
"166 1009 OFFCURVE",
"166 969 QCURVE",
"166 969 LINE"
);
}
);
userData = {
assembly = "NPUSHB[ ]	/* 30 values pushed */\0126 5 2 0 73 0 0 2 0 134 0 2 2 1 97 0 1 1 40 2 78 42 40 32 30 20 18 3 8 22 \012CALL[ ]	/* CallFunction */";
};
width = 586;
}
);
note = semicolon;
unicode = 003B;
},
{
glyphname = less;
layers = (
{
layerId = "B9B2530D-1BC0-47AE-88F4-2EE543D2AECB";
paths = (
{
closed = 1;
nodes = (
"1012 225 LINE",
"1012 362 LINE",
"324 731 LINE",
"1012 1104 LINE",
"1012 1241 LINE",
"133 768 LINE",
"133 696 LINE",
"133 696 LINE"
);
}
);
userData = {
assembly = "PUSHB[ ]	/* 4 values pushed */\0126 2 1 50 \012CALL[ ]	/* CallFunction */";
};
width = 1145;
}
);
note = less;
unicode = 003C;
},
{
glyphname = equal;
layers = (
{
layerId = "B9B2530D-1BC0-47AE-88F4-2EE543D2AECB";
paths = (
{
closed = 1;
nodes = (
"133 993 LINE",
"133 872 LINE",
"1012 872 LINE",
"1012 993 LINE",
"1012 993 LINE"
);
},
{
closed = 1;
nodes = (
"133 590 LINE",
"133 469 LINE",
"1012 469 LINE",
"1012 590 LINE",
"1012 590 LINE"
);
}
);
userData = {
assembly = "NPUSHB[ ]	/* 45 values pushed */\0124 1 1 0 0 3 1 0 103 5 1 3 2 2 3 87 5 1 3 3 2 95 0 2 3 2 79 4 4 0 0 4 7 4 7 6 5 0 3 0 3 17 6 8 23 \012CALL[ ]	/* CallFunction */";
};
width = 1145;
}
);
note = equal;
unicode = 003D;
},
{
glyphname = greater;
layers = (
{
layerId = "B9B2530D-1BC0-47AE-88F4-2EE543D2AECB";
paths = (
{
closed = 1;
nodes = (
"1012 696 LINE",
"1012 768 LINE",
"133 1241 LINE",
"133 1104 LINE",
"821 731 LINE",
"133 362 LINE",
"133 225 LINE",
"133 225 LINE"
);
}
);
userData = {
assembly = "PUSHB[ ]	/* 4 values pushed */\0124 0 1 50 \012CALL[ ]	/* CallFunction */";
};
width = 1145;
}
);
note = greater;
unicode = 003E;
},
{
glyphname = question;
layers = (
{
layerId = "B9B2530D-1BC0-47AE-88F4-2EE543D2AECB";
paths = (
{
closed = 1;
nodes = (
"522 412 LINE",
"522 412 LINE",
"522 643 LINE",
"617 682 OFFCURVE",
"765 776 OFFCURVE",
"867 890 OFFCURVE",
"920 1028 OFFCURVE",
"920 1112 QCURVE SMOOTH",
"920 1200 OFFCURVE",
"852 1338 OFFCURVE",
"732 1433 OFFCURVE",
"568 1483 OFFCURVE",
"471 1483 QCURVE SMOOTH",
"372 1483 OFFCURVE",
"228 1448 OFFCURVE",
"133 1386 OFFCURVE",
"88 1302 OFFCURVE",
"88 1253 QCURVE SMOOTH",
"88 1220 OFFCURVE",
"114 1170 OFFCURVE",
"159 1137 OFFCURVE",
"221 1120 OFFCURVE",
"258 1120 QCURVE",
"258 1173 OFFCURVE",
"282 1268 OFFCURVE",
"336 1340 OFFCURVE",
"423 1382 OFFCURVE",
"487 1382 QCURVE SMOOTH",
"546 1382 OFFCURVE",
"631 1348 OFFCURVE",
"685 1287 OFFCURVE",
"711 1200 OFFCURVE",
"711 1147 QCURVE SMOOTH",
"711 1086 OFFCURVE",
"680 965 OFFCURVE",
"607 854 OFFCURVE",
"486 759 OFFCURVE",
"397 723 QCURVE",
"397 412 LINE",
"522 412 LINE",
"522 412 LINE"
);
},
{
closed = 1;
nodes = (
"328 125 LINE",
"328 125 LINE",
"328 86 OFFCURVE",
"348 32 OFFCURVE",
"383 0 OFFCURVE",
"430 -14 OFFCURVE",
"457 -14 QCURVE SMOOTH",
"483 -14 OFFCURVE",
"530 0 OFFCURVE",
"565 32 OFFCURVE",
"586 86 OFFCURVE",
"586 125 QCURVE SMOOTH",
"586 165 OFFCURVE",
"565 218 OFFCURVE",
"530 250 OFFCURVE",
"483 264 OFFCURVE",
"457 264 QCURVE SMOOTH",
"430 264 OFFCURVE",
"383 250 OFFCURVE",
"348 218 OFFCURVE",
"328 165 OFFCURVE",
"328 125 QCURVE",
"328 125 LINE"
);
}
);
userData = {
assembly = "NPUSHB[ ]	/* 63 values pushed */\01237 2 2 0 2 1 76 0 2 1 0 1 2 0 128 6 1 0 4 1 0 4 126 0 1 1 3 97 0 3 3 43 77 0 4 4 5 97 0 5 5 44 5 78 1 0 56 54 46 44 28 26 18 17 13 11 0 39 1 38 7 8 22 \012CALL[ ]	/* CallFunction */";
};
width = 1024;
}
);
note = question;
unicode = 003F;
},
{
glyphname = at;
layers = (
{
layerId = "B9B2530D-1BC0-47AE-88F4-2EE543D2AECB";
paths = (
{
closed = 1;
nodes = (
"1778 803 LINE",
"1778 803 LINE",
"1778 942 OFFCURVE",
"1691 1183 OFFCURVE",
"1517 1360 OFFCURVE",
"1257 1462 OFFCURVE",
"1085 1462 QCURVE SMOOTH",
"945 1462 OFFCURVE",
"696 1392 OFFCURVE",
"484 1263 OFFCURVE",
"315 1080 OFFCURVE",
"196 854 OFFCURVE",
"133 591 OFFCURVE",
"133 446 QCURVE SMOOTH",
"133 260 OFFCURVE",
"245 -16 OFFCURVE",
"444 -200 OFFCURVE",
"720 -291 OFFCURVE",
"885 -291 QCURVE SMOOTH",
"980 -291 OFFCURVE",
"1149 -256 OFFCURVE",
"1296 -199 OFFCURVE",
"1422 -126 OFFCURVE",
"1473 -88 QCURVE",
"1425 -14 LINE",
"1381 -46 OFFCURVE",
"1270 -107 OFFCURVE",
"1139 -155 OFFCURVE",
"989 -184 OFFCURVE",
"905 -184 QCURVE SMOOTH",
"781 -184 OFFCURVE",
"560 -114 OFFCURVE",
"393 39 OFFCURVE",
"295 280 OFFCURVE",
"295 451 QCURVE SMOOTH",
"295 591 OFFCURVE",
"355 835 OFFCURVE",
"461 1036 OFFCURVE",
"608 1193 OFFCURVE",
"780 1302 OFFCURVE",
"973 1358 OFFCURVE",
"1073 1358 QCURVE SMOOTH",
"1201 1358 OFFCURVE",
"1414 1287 OFFCURVE",
"1567 1148 OFFCURVE",
"1653 943 OFFCURVE",
"1653 809 QCURVE SMOOTH",
"1653 679 OFFCURVE",
"1604 477 OFFCURVE",
"1528 338 OFFCURVE",
"1434 266 OFFCURVE",
"1389 266 QCURVE SMOOTH",
"1364 266 OFFCURVE",
"1319 282 OFFCURVE",
"1285 317 OFFCURVE",
"1264 370 OFFCURVE",
"1264 406 QCURVE SMOOTH",
"1264 427 OFFCURVE",
"1268 475 OFFCURVE",
"1271 495 QCURVE SMOOTH",
"1275 519 OFFCURVE",
"1278 543 QCURVE",
"1382 1065 LINE",
"1333 1065 LINE",
"1251 1022 LINE",
"1220 1047 OFFCURVE",
"1125 1083 OFFCURVE",
"1059 1083 QCURVE SMOOTH",
"965 1083 OFFCURVE",
"814 1028 OFFCURVE",
"698 937 OFFCURVE",
"615 818 OFFCURVE",
"562 691 OFFCURVE",
"537 563 OFFCURVE",
"537 508 QCURVE SMOOTH",
"537 418 OFFCURVE",
"588 286 OFFCURVE",
"673 200 OFFCURVE",
"786 158 OFFCURVE",
"848 158 QCURVE SMOOTH",
"900 158 OFFCURVE",
"983 186 OFFCURVE",
"1050 236 OFFCURVE",
"1103 304 OFFCURVE",
"1124 344 QCURVE",
"1135 344 LINE",
"1164 256 OFFCURVE",
"1285 158 OFFCURVE",
"1376 158 QCURVE SMOOTH",
"1447 158 OFFCURVE",
"1590 248 OFFCURVE",
"1706 416 OFFCURVE",
"1778 655 OFFCURVE",
"1778 803 QCURVE",
"1778 803 LINE"
);
},
{
closed = 1;
nodes = (
"727 479 LINE",
"727 479 LINE",
"727 523 OFFCURVE",
"743 633 OFFCURVE",
"778 749 OFFCURVE",
"832 860 OFFCURVE",
"907 946 OFFCURVE",
"1006 999 OFFCURVE",
"1067 999 QCURVE SMOOTH",
"1104 999 OFFCURVE",
"1169 967 OFFCURVE",
"1182 938 QCURVE",
"1104 522 LINE SMOOTH",
"1095 475 OFFCURVE",
"1063 383 OFFCURVE",
"1011 311 OFFCURVE",
"935 266 OFFCURVE",
"883 266 QCURVE SMOOTH",
"814 266 OFFCURVE",
"727 371 OFFCURVE",
"727 479 QCURVE",
"727 479 LINE"
);
}
);
userData = {
assembly = "MPPEM[ ]	/* MeasurePixelPerEm */\012PUSHB[ ]	/* 1 value pushed */\01229 \012LT[ ]	/* LessThan */\012IF[ ]	/* If */\012NPUSHB[ ]	/* 16 values pushed */\01229 1 10 2 103 8 2 4 10 70 69 2 6 0 3 76 \012ELSE[ ]	/* Else */\012NPUSHB[ ]	/* 16 values pushed */\01229 1 10 3 103 8 2 4 10 70 69 2 6 0 3 76 \012EIF[ ]	/* EndIf */\012MPPEM[ ]	/* MeasurePixelPerEm */\012PUSHB[ ]	/* 1 value pushed */\01229 \012LT[ ]	/* LessThan */\012IF[ ]	/* If */\012NPUSHB[ ]	/* 39 values pushed */\0129 1 4 1 1 0 6 4 0 106 0 6 0 7 6 7 101 0 5 5 8 97 0 8 8 37 77 0 10 10 2 97 3 1 2 2 40 10 78 \012ELSE[ ]	/* Else */\012MPPEM[ ]	/* MeasurePixelPerEm */\012PUSHB[ ]	/* 1 value pushed */\01230 \012LT[ ]	/* LessThan */\012IF[ ]	/* If */\012NPUSHB[ ]	/* 43 values pushed */\0129 1 4 1 1 0 6 4 0 106 0 6 0 7 6 7 101 0 5 5 8 97 0 8 8 37 77 0 3 3 40 77 0 10 10 2 97 0 2 2 40 10 78 \012ELSE[ ]	/* Else */\012NPUSHB[ ]	/* 46 values pushed */\0120 3 2 10 2 3 10 128 9 1 4 1 1 0 6 4 0 106 0 6 0 7 6 7 101 0 5 5 8 97 0 8 8 37 77 0 10 10 2 97 0 2 2 40 10 78 \012EIF[ ]	/* EndIf */\012EIF[ ]	/* EndIf */\012NPUSHB[ ]	/* 16 values pushed */\012107 105 98 96 42 41 42 40 42 19 42 39 36 11 8 31 \012CALL[ ]	/* CallFunction */";
};
width = 1886;
}
);
note = at;
unicode = 0040;
},
{
glyphname = A;
layers = (
{
layerId = "B9B2530D-1BC0-47AE-88F4-2EE543D2AECB";
paths = (
{
closed = 1;
nodes = (
"414 489 LINE",
"414 489 LINE",
"952 489 LINE",
"1034 260 LINE SMOOTH",
"1042 237 OFFCURVE",
"1051 201 OFFCURVE",
"1051 184 QCURVE SMOOTH",
"1051 86 OFFCURVE",
"928 86 QCURVE SMOOTH",
"881 86 LINE",
"881 0 LINE",
"1444 0 LINE",
"1444 86 LINE",
"1417 86 LINE SMOOTH",
"1387 86 OFFCURVE",
"1343 96 OFFCURVE",
"1309 121 OFFCURVE",
"1284 163 OFFCURVE",
"1272 195 QCURVE SMOOTH",
"809 1462 LINE",
"649 1462 LINE",
"195 246 LINE SMOOTH",
"176 197 OFFCURVE",
"145 135 OFFCURVE",
"111 99 OFFCURVE",
"69 86 OFFCURVE",
"39 86 QCURVE SMOOTH",
"0 86 LINE",
"0 0 LINE",
"500 0 LINE",
"500 86 LINE",
"453 86 LINE SMOOTH",
"384 86 OFFCURVE",
"317 134 OFFCURVE",
"317 186 QCURVE SMOOTH",
"317 203 OFFCURVE",
"327 250 OFFCURVE",
"336 274 QCURVE SMOOTH",
"414 489 LINE",
"414 489 LINE"
);
},
{
closed = 1;
nodes = (
"788 950 LINE",
"788 950 LINE",
"915 592 LINE",
"453 592 LINE",
"592 969 LINE SMOOTH",
"610 1017 OFFCURVE",
"638 1096 OFFCURVE",
"660 1168 OFFCURVE",
"679 1237 OFFCURVE",
"686 1274 QCURVE",
"703 1200 OFFCURVE",
"756 1041 OFFCURVE",
"788 950 QCURVE",
"788 950 LINE"
);
}
);
userData = {
assembly = "NPUSHB[ ]	/* 50 values pushed */\01242 1 8 3 32 1 0 7 2 76 0 8 0 7 0 8 7 104 0 3 3 37 77 6 4 2 3 0 0 1 95 5 1 1 1 38 1 78 27 21 33 17 37 21 33 17 38 9 8 31 \012CALL[ ]	/* CallFunction */";
};
width = 1444;
}
);
note = A;
unicode = 0041;
},
{
glyphname = B;
layers = (
{
layerId = "B9B2530D-1BC0-47AE-88F4-2EE543D2AECB";
paths = (
{
closed = 1;
nodes = (
"1153 1096 LINE",
"1153 1096 LINE",
"1153 1285 OFFCURVE",
"893 1462 OFFCURVE",
"627 1462 QCURVE SMOOTH",
"78 1462 LINE",
"78 1376 LINE",
"104 1376 LINE SMOOTH",
"138 1376 OFFCURVE",
"199 1367 OFFCURVE",
"245 1337 OFFCURVE",
"272 1282 OFFCURVE",
"272 1237 QCURVE SMOOTH",
"272 233 LINE SMOOTH",
"272 185 OFFCURVE",
"246 127 OFFCURVE",
"200 96 OFFCURVE",
"139 86 OFFCURVE",
"104 86 QCURVE SMOOTH",
"78 86 LINE",
"78 0 LINE",
"688 0 LINE SMOOTH",
"954 0 OFFCURVE",
"1214 197 OFFCURVE",
"1214 395 QCURVE SMOOTH",
"1214 476 OFFCURVE",
"1168 603 OFFCURVE",
"1085 696 OFFCURVE",
"969 754 OFFCURVE",
"899 766 QCURVE",
"899 774 LINE",
"953 792 OFFCURVE",
"1046 845 OFFCURVE",
"1114 923 OFFCURVE",
"1153 1027 OFFCURVE",
"1153 1096 QCURVE",
"1153 1096 LINE"
);
},
{
closed = 1;
nodes = (
"479 102 LINE",
"479 102 LINE",
"479 715 LINE",
"682 715 LINE SMOOTH",
"772 715 OFFCURVE",
"892 677 OFFCURVE",
"965 599 OFFCURVE",
"995 481 OFFCURVE",
"995 401 QCURVE SMOOTH",
"995 319 OFFCURVE",
"961 205 OFFCURVE",
"885 134 OFFCURVE",
"765 102 OFFCURVE",
"678 102 QCURVE SMOOTH",
"479 102 LINE",
"479 102 LINE"
);
},
{
closed = 1;
nodes = (
"479 817 LINE",
"479 817 LINE",
"479 1360 LINE",
"616 1360 LINE SMOOTH",
"703 1360 OFFCURVE",
"824 1334 OFFCURVE",
"900 1272 OFFCURVE",
"934 1171 OFFCURVE",
"934 1096 QCURVE SMOOTH",
"934 1022 OFFCURVE",
"903 916 OFFCURVE",
"831 849 OFFCURVE",
"711 817 OFFCURVE",
"621 817 QCURVE SMOOTH",
"479 817 LINE",
"479 817 LINE"
);
}
);
userData = {
assembly = "PUSHB[ ]	/* 6 values pushed */\0125 1 5 6 1 76 \012MPPEM[ ]	/* MeasurePixelPerEm */\012PUSHB[ ]	/* 1 value pushed */\01230 \012LT[ ]	/* LessThan */\012IF[ ]	/* If */\012NPUSHB[ ]	/* 33 values pushed */\0129 1 6 0 5 1 6 5 103 7 1 2 2 3 95 0 3 3 37 77 8 4 2 1 1 0 95 0 0 0 38 0 78 \012ELSE[ ]	/* Else */\012NPUSHB[ ]	/* 45 values pushed */\0120 2 3 7 7 2 114 0 1 4 0 4 1 114 9 1 6 0 5 4 6 5 103 0 7 7 3 96 0 3 3 37 77 8 1 4 4 0 95 0 0 0 38 0 78 \012EIF[ ]	/* EndIf */\012NPUSHB[ ]	/* 23 values pushed */\01253 51 38 36 63 61 51 65 53 64 48 46 36 50 38 49 33 41 33 45 10 8 26 \012CALL[ ]	/* CallFunction */";
};
width = 1339;
}
);
note = B;
unicode = 0042;
},
{
glyphname = C;
layers = (
{
layerId = "B9B2530D-1BC0-47AE-88F4-2EE543D2AECB";
paths = (
{
closed = 1;
nodes = (
"774 1483 LINE",
"774 1483 LINE",
"612 1483 OFFCURVE",
"366 1373 OFFCURVE",
"201 1175 OFFCURVE",
"117 899 OFFCURVE",
"117 733 QCURVE SMOOTH",
"117 564 OFFCURVE",
"197 286 OFFCURVE",
"354 88 OFFCURVE",
"586 -20 OFFCURVE",
"739 -20 QCURVE SMOOTH",
"853 -20 OFFCURVE",
"1019 23 OFFCURVE",
"1127 89 OFFCURVE",
"1180 170 OFFCURVE",
"1180 209 QCURVE SMOOTH",
"1180 240 OFFCURVE",
"1158 278 OFFCURVE",
"1141 289 QCURVE",
"1115 255 OFFCURVE",
"1048 192 OFFCURVE",
"960 144 OFFCURVE",
"845 115 OFFCURVE",
"770 115 QCURVE SMOOTH",
"657 115 OFFCURVE",
"496 205 OFFCURVE",
"392 368 OFFCURVE",
"344 596 OFFCURVE",
"344 733 QCURVE SMOOTH",
"344 887 OFFCURVE",
"390 1126 OFFCURVE",
"492 1289 OFFCURVE",
"654 1374 OFFCURVE",
"770 1374 QCURVE SMOOTH",
"837 1374 OFFCURVE",
"928 1327 OFFCURVE",
"985 1252 OFFCURVE",
"1010 1158 OFFCURVE",
"1010 1110 QCURVE",
"1048 1110 OFFCURVE",
"1113 1130 OFFCURVE",
"1161 1167 OFFCURVE",
"1188 1220 OFFCURVE",
"1188 1253 QCURVE SMOOTH",
"1188 1302 OFFCURVE",
"1137 1386 OFFCURVE",
"1034 1448 OFFCURVE",
"879 1483 OFFCURVE",
"774 1483 QCURVE",
"774 1483 LINE"
);
}
);
userData = {
assembly = "NPUSHB[ ]	/* 53 values pushed */\01230 1 3 1 1 76 0 1 2 3 2 1 3 128 0 2 2 0 97 5 1 0 0 43 77 0 3 3 4 97 0 4 4 44 4 78 1 0 39 37 26 24 16 14 10 9 0 49 1 47 6 8 22 \012CALL[ ]	/* CallFunction */";
};
width = 1257;
}
);
note = C;
unicode = 0043;
},
{
glyphname = D;
layers = (
{
layerId = "B9B2530D-1BC0-47AE-88F4-2EE543D2AECB";
paths = (
{
closed = 1;
nodes = (
"1372 733 LINE",
"1372 733 LINE",
"1372 907 OFFCURVE",
"1282 1179 OFFCURVE",
"1111 1365 OFFCURVE",
"863 1462 OFFCURVE",
"705 1462 QCURVE SMOOTH",
"78 1462 LINE",
"78 1376 LINE",
"104 1376 LINE SMOOTH",
"138 1376 OFFCURVE",
"199 1367 OFFCURVE",
"245 1337 OFFCURVE",
"272 1282 OFFCURVE",
"272 1237 QCURVE SMOOTH",
"272 233 LINE SMOOTH",
"272 185 OFFCURVE",
"246 127 OFFCURVE",
"200 96 OFFCURVE",
"139 86 OFFCURVE",
"104 86 QCURVE SMOOTH",
"78 86 LINE",
"78 0 LINE",
"705 0 LINE SMOOTH",
"872 0 OFFCURVE",
"1122 103 OFFCURVE",
"1288 294 OFFCURVE",
"1372 565 OFFCURVE",
"1372 733 QCURVE",
"1372 733 LINE"
);
},
{
closed = 1;
nodes = (
"657 104 LINE",
"657 104 LINE",
"479 104 LINE",
"479 1360 LINE",
"659 1360 LINE SMOOTH",
"902 1360 OFFCURVE",
"1145 1038 OFFCURVE",
"1145 733 QCURVE SMOOTH",
"1145 581 OFFCURVE",
"1084 347 OFFCURVE",
"962 187 OFFCURVE",
"779 104 OFFCURVE",
"657 104 QCURVE",
"657 104 LINE"
);
}
);
userData = {
assembly = "MPPEM[ ]	/* MeasurePixelPerEm */\012PUSHB[ ]	/* 1 value pushed */\01229 \012LT[ ]	/* LessThan */\012IF[ ]	/* If */\012NPUSHB[ ]	/* 24 values pushed */\0125 1 2 2 3 95 0 3 3 37 77 6 4 2 1 1 0 95 0 0 0 38 0 78 \012ELSE[ ]	/* Else */\012MPPEM[ ]	/* MeasurePixelPerEm */\012PUSHB[ ]	/* 1 value pushed */\01230 \012LT[ ]	/* LessThan */\012IF[ ]	/* If */\012NPUSHB[ ]	/* 30 values pushed */\0120 1 4 0 4 1 114 5 1 2 2 3 95 0 3 3 37 77 6 1 4 4 0 95 0 0 0 38 0 78 \012ELSE[ ]	/* Else */\012NPUSHB[ ]	/* 36 values pushed */\0120 2 3 5 5 2 114 0 1 4 0 4 1 114 0 5 5 3 96 0 3 3 37 77 6 1 4 4 0 95 0 0 0 38 0 78 \012EIF[ ]	/* EndIf */\012EIF[ ]	/* EndIf */\012NPUSHB[ ]	/* 15 values pushed */\01230 29 38 36 29 41 30 39 33 41 33 36 7 8 26 \012CALL[ ]	/* CallFunction */";
};
width = 1489;
}
);
note = D;
unicode = 0044;
},
{
glyphname = E;
layers = (
{
layerId = "B9B2530D-1BC0-47AE-88F4-2EE543D2AECB";
paths = (
{
closed = 1;
nodes = (
"479 102 LINE",
"479 102 LINE",
"479 715 LINE",
"973 715 LINE",
"973 815 LINE",
"479 815 LINE",
"479 1360 LINE",
"823 1360 LINE SMOOTH",
"869 1360 OFFCURVE",
"934 1333 OFFCURVE",
"977 1287 OFFCURVE",
"1000 1226 OFFCURVE",
"1004 1192 QCURVE SMOOTH",
"1014 1104 LINE",
"1120 1104 LINE",
"1110 1462 LINE",
"78 1462 LINE",
"78 1376 LINE",
"104 1376 LINE SMOOTH",
"139 1376 OFFCURVE",
"200 1366 OFFCURVE",
"246 1335 OFFCURVE",
"272 1277 OFFCURVE",
"272 1229 QCURVE SMOOTH",
"272 223 LINE SMOOTH",
"272 178 OFFCURVE",
"245 123 OFFCURVE",
"199 95 OFFCURVE",
"138 86 OFFCURVE",
"104 86 QCURVE SMOOTH",
"78 86 LINE",
"78 0 LINE",
"1176 0 LINE",
"1190 358 LINE",
"1083 358 LINE",
"1069 270 LINE SMOOTH",
"1064 236 OFFCURVE",
"1038 175 OFFCURVE",
"992 129 OFFCURVE",
"923 102 OFFCURVE",
"874 102 QCURVE SMOOTH",
"479 102 LINE",
"479 102 LINE"
);
}
);
userData = {
assembly = "MPPEM[ ]	/* MeasurePixelPerEm */\012PUSHB[ ]	/* 1 value pushed */\01210 \012LT[ ]	/* LessThan */\012IF[ ]	/* If */\012NPUSHB[ ]	/* 46 values pushed */\0120 6 4 8 4 6 114 0 1 9 0 0 1 114 0 8 0 9 1 8 9 103 7 1 4 4 5 95 0 5 5 37 77 3 10 2 0 0 2 96 0 2 2 38 2 78 \012ELSE[ ]	/* Else */\012MPPEM[ ]	/* MeasurePixelPerEm */\012PUSHB[ ]	/* 1 value pushed */\01230 \012LT[ ]	/* LessThan */\012IF[ ]	/* If */\012NPUSHB[ ]	/* 48 values pushed */\0120 6 4 8 4 6 8 128 0 1 9 0 9 1 0 128 0 8 0 9 1 8 9 103 7 1 4 4 5 95 0 5 5 37 77 3 10 2 0 0 2 96 0 2 2 38 2 78 \012ELSE[ ]	/* Else */\012NPUSHB[ ]	/* 60 values pushed */\0120 4 5 7 7 4 114 0 6 7 8 7 6 8 128 0 1 9 0 9 1 0 128 0 3 0 2 0 3 114 0 8 0 9 1 8 9 103 0 7 7 5 96 0 5 5 37 77 10 1 0 0 2 96 0 2 2 38 2 78 \012EIF[ ]	/* EndIf */\012EIF[ ]	/* EndIf */\012NPUSHB[ ]	/* 27 values pushed */\0122 0 39 38 37 36 35 33 28 27 26 25 24 22 13 11 10 9 8 7 0 41 2 40 11 8 22 \012CALL[ ]	/* CallFunction */";
};
width = 1276;
}
);
note = E;
unicode = 0045;
},
{
glyphname = F;
layers = (
{
layerId = "B9B2530D-1BC0-47AE-88F4-2EE543D2AECB";
paths = (
{
closed = 1;
nodes = (
"479 1360 LINE",
"479 1360 LINE",
"815 1360 LINE SMOOTH",
"863 1360 OFFCURVE",
"931 1333 OFFCURVE",
"976 1288 OFFCURVE",
"1000 1227 OFFCURVE",
"1004 1192 QCURVE SMOOTH",
"1014 1104 LINE",
"1120 1104 LINE",
"1110 1462 LINE",
"78 1462 LINE",
"78 1376 LINE",
"104 1376 LINE SMOOTH",
"138 1376 OFFCURVE",
"199 1367 OFFCURVE",
"245 1337 OFFCURVE",
"272 1282 OFFCURVE",
"272 1237 QCURVE SMOOTH",
"272 223 LINE SMOOTH",
"272 178 OFFCURVE",
"245 123 OFFCURVE",
"199 95 OFFCURVE",
"138 86 OFFCURVE",
"104 86 QCURVE SMOOTH",
"78 86 LINE",
"78 0 LINE",
"715 0 LINE",
"715 86 LINE",
"647 86 LINE SMOOTH",
"613 86 OFFCURVE",
"551 96 OFFCURVE",
"506 127 OFFCURVE",
"479 185 OFFCURVE",
"479 233 QCURVE SMOOTH",
"479 668 LINE",
"973 668 LINE",
"973 768 LINE",
"479 768 LINE",
"479 1360 LINE",
"479 1360 LINE"
);
}
);
userData = {
assembly = "MPPEM[ ]	/* MeasurePixelPerEm */\012PUSHB[ ]	/* 1 value pushed */\01210 \012LT[ ]	/* LessThan */\012IF[ ]	/* If */\012NPUSHB[ ]	/* 38 values pushed */\0120 7 5 0 5 7 114 0 0 0 1 2 0 1 103 8 1 5 5 6 95 0 6 6 37 77 4 1 2 2 3 95 0 3 3 38 3 78 \012ELSE[ ]	/* Else */\012MPPEM[ ]	/* MeasurePixelPerEm */\012PUSHB[ ]	/* 1 value pushed */\01230 \012LT[ ]	/* LessThan */\012IF[ ]	/* If */\012NPUSHB[ ]	/* 39 values pushed */\0120 7 5 0 5 7 0 128 0 0 0 1 2 0 1 103 8 1 5 5 6 95 0 6 6 37 77 4 1 2 2 3 95 0 3 3 38 3 78 \012ELSE[ ]	/* Else */\012NPUSHB[ ]	/* 45 values pushed */\0120 5 6 8 8 5 114 0 7 8 0 8 7 0 128 0 0 0 1 2 0 1 103 0 8 8 6 96 0 6 6 37 77 4 1 2 2 3 95 0 3 3 38 3 78 \012EIF[ ]	/* EndIf */\012EIF[ ]	/* EndIf */\012NPUSHB[ ]	/* 12 values pushed */\01237 17 17 41 33 17 37 17 17 9 8 31 \012CALL[ ]	/* CallFunction */";
};
width = 1208;
}
);
note = F;
unicode = 0046;
},
{
glyphname = G;
layers = (
{
layerId = "B9B2530D-1BC0-47AE-88F4-2EE543D2AECB";
paths = (
{
closed = 1;
nodes = (
"821 -20 LINE",
"821 -20 LINE",
"953 -20 OFFCURVE",
"1171 26 OFFCURVE",
"1274 74 QCURVE",
"1274 442 LINE SMOOTH",
"1274 490 OFFCURVE",
"1296 549 OFFCURVE",
"1334 580 OFFCURVE",
"1386 590 OFFCURVE",
"1415 590 QCURVE SMOOTH",
"1423 590 LINE",
"1423 676 LINE",
"891 676 LINE",
"891 590 LINE",
"899 590 LINE SMOOTH",
"933 590 OFFCURVE",
"994 580 OFFCURVE",
"1040 551 OFFCURVE",
"1067 496 OFFCURVE",
"1067 451 QCURVE SMOOTH",
"1067 121 LINE",
"1024 108 OFFCURVE",
"913 96 OFFCURVE",
"854 96 QCURVE SMOOTH",
"714 96 OFFCURVE",
"520 180 OFFCURVE",
"398 342 OFFCURVE",
"344 580 OFFCURVE",
"344 733 QCURVE SMOOTH",
"344 887 OFFCURVE",
"396 1126 OFFCURVE",
"512 1289 OFFCURVE",
"695 1374 OFFCURVE",
"825 1374 QCURVE SMOOTH",
"900 1374 OFFCURVE",
"1004 1327 OFFCURVE",
"1068 1252 OFFCURVE",
"1096 1158 OFFCURVE",
"1096 1110 QCURVE",
"1136 1110 OFFCURVE",
"1205 1130 OFFCURVE",
"1256 1167 OFFCURVE",
"1286 1220 OFFCURVE",
"1286 1253 QCURVE SMOOTH",
"1286 1302 OFFCURVE",
"1230 1386 OFFCURVE",
"1117 1448 OFFCURVE",
"948 1483 OFFCURVE",
"834 1483 QCURVE SMOOTH",
"657 1483 OFFCURVE",
"389 1373 OFFCURVE",
"208 1175 OFFCURVE",
"117 899 OFFCURVE",
"117 733 QCURVE SMOOTH",
"117 564 OFFCURVE",
"203 286 OFFCURVE",
"378 88 OFFCURVE",
"643 -20 OFFCURVE",
"821 -20 QCURVE",
"821 -20 LINE"
);
}
);
userData = {
assembly = "NPUSHB[ ]	/* 72 values pushed */\01238 1 4 5 55 1 0 4 2 76 0 2 3 6 3 2 6 128 0 6 7 1 5 4 6 5 105 0 3 3 1 97 0 1 1 43 77 0 4 4 0 97 8 1 0 0 44 0 78 1 0 50 48 47 46 44 43 36 34 26 24 20 19 11 9 0 59 1 57 9 8 22 \012CALL[ ]	/* CallFunction */";
};
width = 1462;
}
);
note = G;
unicode = 0047;
},
{
glyphname = H;
layers = (
{
layerId = "B9B2530D-1BC0-47AE-88F4-2EE543D2AECB";
paths = (
{
closed = 1;
nodes = (
"950 0 LINE",
"950 0 LINE",
"1546 0 LINE",
"1546 86 LINE",
"1520 86 LINE SMOOTH",
"1486 86 OFFCURVE",
"1425 95 OFFCURVE",
"1379 123 OFFCURVE",
"1352 178 OFFCURVE",
"1352 223 QCURVE SMOOTH",
"1352 1229 LINE SMOOTH",
"1352 1277 OFFCURVE",
"1378 1335 OFFCURVE",
"1424 1366 OFFCURVE",
"1485 1376 OFFCURVE",
"1520 1376 QCURVE SMOOTH",
"1546 1376 LINE",
"1546 1462 LINE",
"950 1462 LINE",
"950 1376 LINE",
"977 1376 LINE SMOOTH",
"1012 1376 OFFCURVE",
"1073 1366 OFFCURVE",
"1118 1335 OFFCURVE",
"1145 1277 OFFCURVE",
"1145 1229 QCURVE SMOOTH",
"1145 815 LINE",
"479 815 LINE",
"479 1229 LINE SMOOTH",
"479 1277 OFFCURVE",
"506 1335 OFFCURVE",
"551 1366 OFFCURVE",
"613 1376 OFFCURVE",
"647 1376 QCURVE SMOOTH",
"674 1376 LINE",
"674 1462 LINE",
"78 1462 LINE",
"78 1376 LINE",
"104 1376 LINE SMOOTH",
"138 1376 OFFCURVE",
"199 1367 OFFCURVE",
"245 1337 OFFCURVE",
"272 1282 OFFCURVE",
"272 1237 QCURVE SMOOTH",
"272 233 LINE SMOOTH",
"272 185 OFFCURVE",
"246 127 OFFCURVE",
"200 96 OFFCURVE",
"139 86 OFFCURVE",
"104 86 QCURVE SMOOTH",
"78 86 LINE",
"78 0 LINE",
"674 0 LINE",
"674 86 LINE",
"647 86 LINE SMOOTH",
"613 86 OFFCURVE",
"551 96 OFFCURVE",
"506 127 OFFCURVE",
"479 185 OFFCURVE",
"479 233 QCURVE SMOOTH",
"479 713 LINE",
"1145 713 LINE",
"1145 233 LINE SMOOTH",
"1145 185 OFFCURVE",
"1118 127 OFFCURVE",
"1073 96 OFFCURVE",
"1012 86 OFFCURVE",
"977 86 QCURVE SMOOTH",
"950 86 LINE",
"950 0 LINE",
"950 0 LINE"
);
}
);
userData = {
assembly = "NPUSHB[ ]	/* 59 values pushed */\0120 8 0 1 0 8 1 103 11 9 7 3 5 5 6 95 10 1 6 6 37 77 12 4 2 3 0 0 3 95 13 1 3 3 38 3 78 68 67 66 64 55 53 52 51 50 48 21 33 17 41 33 17 37 21 33 14 8 31 \012CALL[ ]	/* CallFunction */";
};
width = 1624;
}
);
note = H;
unicode = 0048;
},
{
glyphname = I;
layers = (
{
layerId = "B9B2530D-1BC0-47AE-88F4-2EE543D2AECB";
paths = (
{
closed = 1;
nodes = (
"78 0 LINE",
"78 0 LINE",
"674 0 LINE",
"674 86 LINE",
"647 86 LINE SMOOTH",
"613 86 OFFCURVE",
"551 96 OFFCURVE",
"506 127 OFFCURVE",
"479 185 OFFCURVE",
"479 233 QCURVE SMOOTH",
"479 1229 LINE SMOOTH",
"479 1277 OFFCURVE",
"506 1335 OFFCURVE",
"551 1366 OFFCURVE",
"613 1376 OFFCURVE",
"647 1376 QCURVE SMOOTH",
"674 1376 LINE",
"674 1462 LINE",
"78 1462 LINE",
"78 1376 LINE",
"104 1376 LINE SMOOTH",
"139 1376 OFFCURVE",
"200 1366 OFFCURVE",
"246 1335 OFFCURVE",
"272 1277 OFFCURVE",
"272 1229 QCURVE SMOOTH",
"272 233 LINE SMOOTH",
"272 185 OFFCURVE",
"246 127 OFFCURVE",
"200 96 OFFCURVE",
"139 86 OFFCURVE",
"104 86 QCURVE SMOOTH",
"78 86 LINE",
"78 0 LINE",
"78 0 LINE"
);
}
);
userData = {
assembly = "NPUSHB[ ]	/* 32 values pushed */\0123 1 1 1 2 95 0 2 2 37 77 4 1 0 0 5 95 0 5 5 38 5 78 17 41 33 17 41 33 6 8 28 \012CALL[ ]	/* CallFunction */";
};
width = 752;
}
);
note = I;
unicode = 0049;
},
{
glyphname = J;
layers = (
{
layerId = "B9B2530D-1BC0-47AE-88F4-2EE543D2AECB";
paths = (
{
closed = 1;
nodes = (
"-23 -395 LINE",
"-23 -395 LINE",
"-23 -492 LINE",
"12 -492 LINE SMOOTH",
"110 -492 OFFCURVE",
"281 -446 OFFCURVE",
"407 -337 OFFCURVE",
"479 -154 OFFCURVE",
"479 -16 QCURVE SMOOTH",
"479 1229 LINE SMOOTH",
"479 1277 OFFCURVE",
"506 1335 OFFCURVE",
"551 1366 OFFCURVE",
"613 1376 OFFCURVE",
"647 1376 QCURVE SMOOTH",
"674 1376 LINE",
"674 1462 LINE",
"78 1462 LINE",
"78 1376 LINE",
"104 1376 LINE SMOOTH",
"138 1376 OFFCURVE",
"199 1367 OFFCURVE",
"245 1337 OFFCURVE",
"272 1282 OFFCURVE",
"272 1237 QCURVE SMOOTH",
"272 -18 LINE SMOOTH",
"272 -126 OFFCURVE",
"235 -271 OFFCURVE",
"165 -358 OFFCURVE",
"62 -395 OFFCURVE",
"-4 -395 QCURVE SMOOTH",
"-23 -395 LINE",
"-23 -395 LINE"
);
}
);
userData = {
assembly = "NPUSHB[ ]	/* 40 values pushed */\0123 1 1 1 2 95 0 2 2 37 77 5 1 0 0 4 97 0 4 4 42 4 78 2 0 29 27 18 16 15 14 13 11 0 31 2 30 6 8 22 \012CALL[ ]	/* CallFunction */";
};
width = 731;
}
);
note = J;
unicode = 004A;
},
{
glyphname = K;
layers = (
{
layerId = "B9B2530D-1BC0-47AE-88F4-2EE543D2AECB";
paths = (
{
closed = 1;
nodes = (
"903 1137 LINE",
"903 1137 LINE",
"479 651 LINE",
"479 1229 LINE SMOOTH",
"479 1277 OFFCURVE",
"506 1335 OFFCURVE",
"551 1366 OFFCURVE",
"613 1376 OFFCURVE",
"647 1376 QCURVE SMOOTH",
"674 1376 LINE",
"674 1462 LINE",
"78 1462 LINE",
"78 1376 LINE",
"104 1376 LINE SMOOTH",
"138 1376 OFFCURVE",
"199 1367 OFFCURVE",
"245 1337 OFFCURVE",
"272 1282 OFFCURVE",
"272 1237 QCURVE SMOOTH",
"272 223 LINE SMOOTH",
"272 178 OFFCURVE",
"245 123 OFFCURVE",
"199 95 OFFCURVE",
"138 86 OFFCURVE",
"104 86 QCURVE SMOOTH",
"78 86 LINE",
"78 0 LINE",
"674 0 LINE",
"674 86 LINE",
"647 86 LINE SMOOTH",
"613 86 OFFCURVE",
"551 96 OFFCURVE",
"506 127 OFFCURVE",
"479 185 OFFCURVE",
"479 233 QCURVE SMOOTH",
"479 549 LINE",
"653 690 LINE",
"1006 184 LINE SMOOTH",
"1044 129 OFFCURVE",
"1111 58 OFFCURVE",
"1201 16 OFFCURVE",
"1333 0 OFFCURVE",
"1436 0 QCURVE SMOOTH",
"1458 0 LINE",
"1458 86 LINE",
"1454 86 LINE SMOOTH",
"1397 86 OFFCURVE",
"1288 169 OFFCURVE",
"1229 250 QCURVE SMOOTH",
"797 852 LINE",
"1094 1186 LINE SMOOTH",
"1134 1231 OFFCURVE",
"1203 1302 OFFCURVE",
"1268 1351 OFFCURVE",
"1333 1378 OFFCURVE",
"1368 1378 QCURVE",
"1368 1462 LINE",
"915 1462 LINE",
"915 1378 LINE",
"966 1378 OFFCURVE",
"1016 1359 OFFCURVE",
"1016 1333 QCURVE SMOOTH",
"1016 1318 OFFCURVE",
"1005 1282 OFFCURVE",
"980 1234 OFFCURVE",
"936 1175 OFFCURVE",
"903 1137 QCURVE",
"903 1137 LINE"
);
}
);
userData = {
assembly = "NPUSHB[ ]	/* 53 values pushed */\01264 31 30 17 4 3 0 1 76 10 8 2 3 0 0 1 95 9 1 1 1 37 77 7 5 2 3 3 4 97 6 1 4 4 38 4 78 59 57 56 55 41 33 17 43 34 24 17 17 23 11 8 31 \012CALL[ ]	/* CallFunction */";
};
width = 1434;
}
);
note = K;
unicode = 004B;
},
{
glyphname = L;
layers = (
{
layerId = "B9B2530D-1BC0-47AE-88F4-2EE543D2AECB";
paths = (
{
closed = 1;
nodes = (
"78 0 LINE",
"78 0 LINE",
"1176 0 LINE",
"1190 440 LINE",
"1083 440 LINE",
"1063 287 LINE SMOOTH",
"1059 254 OFFCURVE",
"1036 188 OFFCURVE",
"994 135 OFFCURVE",
"929 102 OFFCURVE",
"883 102 QCURVE SMOOTH",
"479 102 LINE",
"479 1237 LINE SMOOTH",
"479 1282 OFFCURVE",
"506 1337 OFFCURVE",
"552 1367 OFFCURVE",
"613 1376 OFFCURVE",
"647 1376 QCURVE SMOOTH",
"674 1376 LINE",
"674 1462 LINE",
"78 1462 LINE",
"78 1376 LINE",
"104 1376 LINE SMOOTH",
"139 1376 OFFCURVE",
"200 1366 OFFCURVE",
"246 1335 OFFCURVE",
"272 1277 OFFCURVE",
"272 1229 QCURVE SMOOTH",
"272 233 LINE SMOOTH",
"272 185 OFFCURVE",
"246 127 OFFCURVE",
"200 96 OFFCURVE",
"139 86 OFFCURVE",
"104 86 QCURVE SMOOTH",
"78 86 LINE",
"78 0 LINE",
"78 0 LINE"
);
}
);
userData = {
assembly = "MPPEM[ ]	/* MeasurePixelPerEm */\012PUSHB[ ]	/* 1 value pushed */\01230 \012LT[ ]	/* LessThan */\012IF[ ]	/* If */\012NPUSHB[ ]	/* 31 values pushed */\0120 5 1 0 1 5 0 128 3 1 1 1 2 95 0 2 2 37 77 4 1 0 0 6 96 0 6 6 38 6 78 \012ELSE[ ]	/* Else */\012NPUSHB[ ]	/* 37 values pushed */\0120 5 1 4 1 5 4 128 0 0 4 6 4 0 114 3 1 1 1 2 95 0 2 2 37 77 0 4 4 6 96 0 6 6 38 6 78 \012EIF[ ]	/* EndIf */\012NPUSHB[ ]	/* 10 values pushed */\01217 21 37 33 17 41 33 7 8 29 \012CALL[ ]	/* CallFunction */";
};
width = 1276;
}
);
note = L;
unicode = 004C;
},
{
glyphname = M;
layers = (
{
layerId = "B9B2530D-1BC0-47AE-88F4-2EE543D2AECB";
paths = (
{
closed = 1;
nodes = (
"1298 0 LINE",
"1298 0 LINE",
"1843 0 LINE",
"1843 86 LINE",
"1817 86 LINE SMOOTH",
"1782 86 OFFCURVE",
"1721 96 OFFCURVE",
"1675 127 OFFCURVE",
"1649 185 OFFCURVE",
"1649 233 QCURVE SMOOTH",
"1649 1229 LINE SMOOTH",
"1649 1277 OFFCURVE",
"1675 1335 OFFCURVE",
"1721 1366 OFFCURVE",
"1782 1376 OFFCURVE",
"1817 1376 QCURVE SMOOTH",
"1843 1376 LINE",
"1843 1462 LINE",
"1389 1462 LINE",
"969 291 LINE",
"545 1462 LINE",
"78 1462 LINE",
"78 1376 LINE",
"104 1376 LINE SMOOTH",
"138 1376 OFFCURVE",
"199 1367 OFFCURVE",
"245 1337 OFFCURVE",
"272 1282 OFFCURVE",
"272 1237 QCURVE SMOOTH",
"272 223 LINE SMOOTH",
"272 178 OFFCURVE",
"245 123 OFFCURVE",
"199 95 OFFCURVE",
"138 86 OFFCURVE",
"104 86 QCURVE SMOOTH",
"78 86 LINE",
"78 0 LINE",
"551 0 LINE",
"551 86 LINE",
"545 86 LINE SMOOTH",
"511 86 OFFCURVE",
"456 96 OFFCURVE",
"417 127 OFFCURVE",
"397 185 OFFCURVE",
"397 233 QCURVE SMOOTH",
"397 1305 LINE",
"872 0 LINE",
"983 0 LINE",
"1452 1309 LINE",
"1452 215 LINE",
"1450 173 OFFCURVE",
"1428 122 OFFCURVE",
"1391 95 OFFCURVE",
"1338 86 OFFCURVE",
"1305 86 QCURVE SMOOTH",
"1298 86 LINE",
"1298 0 LINE",
"1298 0 LINE"
);
}
);
userData = {
assembly = "NPUSHB[ ]	/* 52 values pushed */\01237 11 8 3 0 5 1 76 8 1 5 5 6 95 7 1 6 6 37 77 9 4 2 3 0 0 1 95 10 3 2 1 1 38 1 78 55 54 53 51 33 18 17 41 33 18 22 22 33 11 8 31 \012CALL[ ]	/* CallFunction */";
};
width = 1921;
}
);
note = M;
unicode = 004D;
},
{
glyphname = N;
layers = (
{
layerId = "B9B2530D-1BC0-47AE-88F4-2EE543D2AECB";
paths = (
{
closed = 1;
nodes = (
"1165 0 LINE",
"1165 0 LINE",
"1311 0 LINE",
"1311 1229 LINE SMOOTH",
"1311 1277 OFFCURVE",
"1337 1335 OFFCURVE",
"1383 1366 OFFCURVE",
"1444 1376 OFFCURVE",
"1479 1376 QCURVE SMOOTH",
"1505 1376 LINE",
"1505 1462 LINE",
"991 1462 LINE",
"991 1376 LINE",
"1018 1376 LINE SMOOTH",
"1052 1376 OFFCURVE",
"1113 1367 OFFCURVE",
"1159 1337 OFFCURVE",
"1186 1282 OFFCURVE",
"1186 1237 QCURVE SMOOTH",
"1186 330 LINE",
"453 1462 LINE",
"78 1462 LINE",
"78 1376 LINE",
"104 1376 LINE SMOOTH",
"138 1376 OFFCURVE",
"199 1367 OFFCURVE",
"245 1337 OFFCURVE",
"272 1282 OFFCURVE",
"272 1237 QCURVE SMOOTH",
"272 233 LINE SMOOTH",
"272 185 OFFCURVE",
"246 127 OFFCURVE",
"200 96 OFFCURVE",
"139 86 OFFCURVE",
"104 86 QCURVE SMOOTH",
"78 86 LINE",
"78 0 LINE",
"592 0 LINE",
"592 86 LINE",
"565 86 LINE SMOOTH",
"531 86 OFFCURVE",
"469 96 OFFCURVE",
"424 127 OFFCURVE",
"397 185 OFFCURVE",
"397 233 QCURVE SMOOTH",
"397 1180 LINE",
"1165 0 LINE",
"1165 0 LINE"
);
}
);
userData = {
assembly = "NPUSHB[ ]	/* 45 values pushed */\01227 1 2 0 3 1 76 7 5 2 3 3 4 95 6 1 4 4 37 77 2 1 0 0 1 95 8 1 1 1 38 1 78 21 33 17 38 17 41 33 17 38 9 8 31 \012CALL[ ]	/* CallFunction */";
};
width = 1563;
}
);
note = N;
unicode = 004E;
},
{
glyphname = O;
layers = (
{
layerId = "B9B2530D-1BC0-47AE-88F4-2EE543D2AECB";
paths = (
{
closed = 1;
nodes = (
"1403 733 LINE",
"1403 733 LINE",
"1403 904 OFFCURVE",
"1319 1181 OFFCURVE",
"1155 1378 OFFCURVE",
"917 1485 OFFCURVE",
"762 1485 QCURVE SMOOTH",
"599 1485 OFFCURVE",
"355 1378 OFFCURVE",
"195 1182 OFFCURVE",
"115 905 OFFCURVE",
"115 735 QCURVE SMOOTH",
"115 565 OFFCURVE",
"195 286 OFFCURVE",
"355 88 OFFCURVE",
"597 -20 OFFCURVE",
"760 -20 QCURVE SMOOTH",
"915 -20 OFFCURVE",
"1155 88 OFFCURVE",
"1319 286 OFFCURVE",
"1403 564 OFFCURVE",
"1403 733 QCURVE",
"1403 733 LINE"
);
},
{
closed = 1;
nodes = (
"342 733 LINE",
"342 733 LINE",
"342 885 OFFCURVE",
"387 1124 OFFCURVE",
"488 1288 OFFCURVE",
"648 1374 OFFCURVE",
"762 1374 QCURVE SMOOTH",
"876 1374 OFFCURVE",
"1033 1288 OFFCURVE",
"1132 1124 OFFCURVE",
"1176 885 OFFCURVE",
"1176 733 QCURVE SMOOTH",
"1176 581 OFFCURVE",
"1132 342 OFFCURVE",
"1033 177 OFFCURVE",
"874 90 OFFCURVE",
"760 90 QCURVE SMOOTH",
"646 90 OFFCURVE",
"487 177 OFFCURVE",
"387 342 OFFCURVE",
"342 581 OFFCURVE",
"342 733 QCURVE",
"342 733 LINE"
);
}
);
userData = {
assembly = "NPUSHB[ ]	/* 28 values pushed */\0120 3 3 1 97 0 1 1 43 77 0 2 2 0 97 0 0 0 44 0 78 40 42 40 36 4 8 26 \012CALL[ ]	/* CallFunction */";
};
width = 1520;
}
);
note = O;
unicode = 004F;
},
{
glyphname = P;
layers = (
{
layerId = "B9B2530D-1BC0-47AE-88F4-2EE543D2AECB";
paths = (
{
closed = 1;
nodes = (
"78 0 LINE",
"78 0 LINE",
"715 0 LINE",
"715 86 LINE",
"647 86 LINE SMOOTH",
"613 86 OFFCURVE",
"552 95 OFFCURVE",
"506 123 OFFCURVE",
"479 178 OFFCURVE",
"479 223 QCURVE SMOOTH",
"479 569 LINE",
"608 569 LINE SMOOTH",
"760 569 OFFCURVE",
"970 646 OFFCURVE",
"1100 775 OFFCURVE",
"1157 943 OFFCURVE",
"1157 1034 QCURVE SMOOTH",
"1157 1134 OFFCURVE",
"1096 1292 OFFCURVE",
"972 1403 OFFCURVE",
"782 1462 OFFCURVE",
"653 1462 QCURVE SMOOTH",
"78 1462 LINE",
"78 1376 LINE",
"104 1376 LINE SMOOTH",
"138 1376 OFFCURVE",
"199 1367 OFFCURVE",
"245 1337 OFFCURVE",
"272 1282 OFFCURVE",
"272 1237 QCURVE SMOOTH",
"272 233 LINE SMOOTH",
"272 185 OFFCURVE",
"246 127 OFFCURVE",
"200 96 OFFCURVE",
"139 86 OFFCURVE",
"104 86 QCURVE SMOOTH",
"78 86 LINE",
"78 0 LINE",
"78 0 LINE"
);
},
{
closed = 1;
nodes = (
"479 666 LINE",
"479 666 LINE",
"479 1364 LINE",
"618 1364 LINE SMOOTH",
"705 1364 OFFCURVE",
"826 1323 OFFCURVE",
"902 1239 OFFCURVE",
"936 1112 OFFCURVE",
"936 1026 QCURVE SMOOTH",
"936 929 OFFCURVE",
"897 792 OFFCURVE",
"813 705 OFFCURVE",
"681 666 OFFCURVE",
"588 666 QCURVE SMOOTH",
"479 666 LINE",
"479 666 LINE"
);
}
);
userData = {
assembly = "MPPEM[ ]	/* MeasurePixelPerEm */\012PUSHB[ ]	/* 1 value pushed */\01241 \012LT[ ]	/* LessThan */\012IF[ ]	/* If */\012NPUSHB[ ]	/* 32 values pushed */\0128 1 6 0 3 0 6 3 105 7 1 1 1 2 95 0 2 2 37 77 4 1 0 0 5 95 0 5 5 38 5 78 \012ELSE[ ]	/* Else */\012NPUSHB[ ]	/* 38 values pushed */\0120 1 2 7 7 1 114 8 1 6 0 3 0 6 3 105 0 7 7 2 96 0 2 2 37 77 4 1 0 0 5 95 0 5 5 38 5 78 \012EIF[ ]	/* EndIf */\012NPUSHB[ ]	/* 17 values pushed */\01240 38 50 48 38 52 40 51 17 37 40 33 41 33 9 8 28 \012CALL[ ]	/* CallFunction */";
};
width = 1237;
}
);
note = P;
unicode = 0050;
},
{
glyphname = Q;
layers = (
{
layerId = "B9B2530D-1BC0-47AE-88F4-2EE543D2AECB";
paths = (
{
closed = 1;
nodes = (
"1403 733 LINE",
"1403 733 LINE",
"1403 904 OFFCURVE",
"1319 1181 OFFCURVE",
"1155 1378 OFFCURVE",
"917 1485 OFFCURVE",
"762 1485 QCURVE SMOOTH",
"599 1485 OFFCURVE",
"355 1378 OFFCURVE",
"195 1182 OFFCURVE",
"115 905 OFFCURVE",
"115 735 QCURVE SMOOTH",
"115 576 OFFCURVE",
"184 313 OFFCURVE",
"322 118 OFFCURVE",
"531 -1 OFFCURVE",
"672 -16 QCURVE",
"682 -148 OFFCURVE",
"771 -323 OFFCURVE",
"903 -428 OFFCURVE",
"1064 -471 OFFCURVE",
"1145 -471 QCURVE SMOOTH",
"1233 -471 LINE",
"1233 -375 LINE",
"1200 -375 LINE SMOOTH",
"1138 -375 OFFCURVE",
"1034 -339 OFFCURVE",
"956 -254 OFFCURVE",
"906 -113 OFFCURVE",
"897 -8 QCURVE",
"1019 14 OFFCURVE",
"1208 139 OFFCURVE",
"1337 331 OFFCURVE",
"1403 583 OFFCURVE",
"1403 733 QCURVE",
"1403 733 LINE"
);
},
{
closed = 1;
nodes = (
"342 733 LINE",
"342 733 LINE",
"342 885 OFFCURVE",
"387 1124 OFFCURVE",
"488 1288 OFFCURVE",
"648 1374 OFFCURVE",
"762 1374 QCURVE SMOOTH",
"876 1374 OFFCURVE",
"1033 1288 OFFCURVE",
"1132 1124 OFFCURVE",
"1176 885 OFFCURVE",
"1176 733 QCURVE SMOOTH",
"1176 581 OFFCURVE",
"1132 342 OFFCURVE",
"1033 177 OFFCURVE",
"874 90 OFFCURVE",
"760 90 QCURVE SMOOTH",
"646 90 OFFCURVE",
"487 177 OFFCURVE",
"387 342 OFFCURVE",
"342 581 OFFCURVE",
"342 733 QCURVE",
"342 733 LINE"
);
}
);
userData = {
assembly = "PUSHB[ ]	/* 6 values pushed */\0125 1 0 3 1 76 \012MPPEM[ ]	/* MeasurePixelPerEm */\012PUSHB[ ]	/* 1 value pushed */\01249 \012LT[ ]	/* LessThan */\012IF[ ]	/* If */\012NPUSHB[ ]	/* 29 values pushed */\0120 3 4 0 4 3 0 128 0 4 4 2 97 0 2 2 43 77 0 0 0 1 97 0 1 1 42 1 78 \012ELSE[ ]	/* Else */\012NPUSHB[ ]	/* 26 values pushed */\0120 3 4 0 4 3 0 128 0 0 0 1 0 1 101 0 4 4 2 97 0 2 2 43 4 78 \012EIF[ ]	/* EndIf */\012PUSHB[ ]	/* 8 values pushed */\01240 42 45 33 41 5 8 27 \012CALL[ ]	/* CallFunction */";
};
width = 1520;
}
);
note = Q;
unicode = 0051;
},
{
glyphname = R;
layers = (
{
layerId = "B9B2530D-1BC0-47AE-88F4-2EE543D2AECB";
paths = (
{
closed = 1;
nodes = (
"1135 250 LINE",
"1135 250 LINE",
"854 694 LINE",
"908 712 OFFCURVE",
"1016 772 OFFCURVE",
"1102 862 OFFCURVE",
"1155 985 OFFCURVE",
"1155 1067 QCURVE SMOOTH",
"1155 1265 OFFCURVE",
"895 1462 OFFCURVE",
"629 1462 QCURVE SMOOTH",
"78 1462 LINE",
"78 1376 LINE",
"104 1376 LINE SMOOTH",
"138 1376 OFFCURVE",
"199 1367 OFFCURVE",
"245 1337 OFFCURVE",
"272 1282 OFFCURVE",
"272 1237 QCURVE SMOOTH",
"272 223 LINE SMOOTH",
"272 178 OFFCURVE",
"245 123 OFFCURVE",
"199 95 OFFCURVE",
"138 86 OFFCURVE",
"104 86 QCURVE SMOOTH",
"78 86 LINE",
"78 0 LINE",
"674 0 LINE",
"674 86 LINE",
"647 86 LINE SMOOTH",
"613 86 OFFCURVE",
"552 95 OFFCURVE",
"506 123 OFFCURVE",
"479 178 OFFCURVE",
"479 223 QCURVE SMOOTH",
"479 645 LINE",
"649 645 LINE",
"926 184 LINE SMOOTH",
"961 126 OFFCURVE",
"1022 54 OFFCURVE",
"1108 14 OFFCURVE",
"1231 0 OFFCURVE",
"1327 0 QCURVE SMOOTH",
"1356 0 LINE",
"1356 86 LINE",
"1350 86 LINE SMOOTH",
"1285 86 OFFCURVE",
"1187 168 OFFCURVE",
"1135 250 QCURVE",
"1135 250 LINE"
);
},
{
closed = 1;
nodes = (
"479 741 LINE",
"479 741 LINE",
"479 1364 LINE",
"618 1364 LINE SMOOTH",
"705 1364 OFFCURVE",
"826 1331 OFFCURVE",
"902 1258 OFFCURVE",
"936 1143 OFFCURVE",
"936 1061 QCURVE SMOOTH",
"936 981 OFFCURVE",
"905 861 OFFCURVE",
"833 781 OFFCURVE",
"713 741 OFFCURVE",
"623 741 QCURVE SMOOTH",
"479 741 LINE",
"479 741 LINE"
);
}
);
userData = {
assembly = "PUSHB[ ]	/* 6 values pushed */\01246 1 2 8 1 76 \012MPPEM[ ]	/* MeasurePixelPerEm */\012PUSHB[ ]	/* 1 value pushed */\01241 \012LT[ ]	/* LessThan */\012IF[ ]	/* If */\012NPUSHB[ ]	/* 34 values pushed */\01210 1 8 0 2 0 8 2 103 9 1 6 6 7 95 0 7 7 37 77 5 3 2 0 0 1 97 4 1 1 1 38 1 78 \012ELSE[ ]	/* Else */\012NPUSHB[ ]	/* 40 values pushed */\0120 6 7 9 9 6 114 10 1 8 0 2 0 8 2 103 0 9 9 7 96 0 7 7 37 77 5 3 2 0 0 1 97 4 1 1 1 38 1 78 \012EIF[ ]	/* EndIf */\012NPUSHB[ ]	/* 19 values pushed */\01251 49 61 59 49 63 51 62 33 41 33 17 37 21 34 18 11 8 30 \012CALL[ ]	/* CallFunction */";
};
width = 1343;
}
);
note = R;
unicode = 0052;
},
{
glyphname = S;
layers = (
{
layerId = "B9B2530D-1BC0-47AE-88F4-2EE543D2AECB";
paths = (
{
closed = 1;
nodes = (
"506 -20 LINE",
"506 -20 LINE",
"621 -20 OFFCURVE",
"807 35 OFFCURVE",
"939 141 OFFCURVE",
"1010 294 OFFCURVE",
"1010 391 QCURVE SMOOTH",
"1010 470 OFFCURVE",
"958 595 OFFCURVE",
"860 696 OFFCURVE",
"719 778 OFFCURVE",
"629 815 QCURVE SMOOTH",
"540 851 OFFCURVE",
"418 918 OFFCURVE",
"343 993 OFFCURVE",
"311 1086 OFFCURVE",
"311 1147 QCURVE SMOOTH",
"311 1200 OFFCURVE",
"345 1286 OFFCURVE",
"409 1347 OFFCURVE",
"502 1380 OFFCURVE",
"561 1380 QCURVE SMOOTH",
"626 1380 OFFCURVE",
"714 1334 OFFCURVE",
"768 1261 OFFCURVE",
"791 1168 OFFCURVE",
"791 1120 QCURVE",
"865 1120 OFFCURVE",
"952 1187 OFFCURVE",
"952 1253 QCURVE SMOOTH",
"952 1298 OFFCURVE",
"901 1381 OFFCURVE",
"803 1445 OFFCURVE",
"661 1483 OFFCURVE",
"569 1483 QCURVE SMOOTH",
"472 1483 OFFCURVE",
"308 1433 OFFCURVE",
"188 1338 OFFCURVE",
"121 1200 OFFCURVE",
"121 1112 QCURVE SMOOTH",
"121 1028 OFFCURVE",
"167 894 OFFCURVE",
"261 785 OFFCURVE",
"403 696 OFFCURVE",
"498 657 QCURVE SMOOTH",
"588 620 OFFCURVE",
"709 553 OFFCURVE",
"783 480 OFFCURVE",
"815 394 OFFCURVE",
"815 338 QCURVE SMOOTH",
"815 213 OFFCURVE",
"660 80 OFFCURVE",
"522 80 QCURVE SMOOTH",
"450 80 OFFCURVE",
"348 134 OFFCURVE",
"282 224 OFFCURVE",
"249 342 OFFCURVE",
"246 406 QCURVE",
"175 406 OFFCURVE",
"98 330 OFFCURVE",
"98 268 QCURVE SMOOTH",
"98 204 OFFCURVE",
"150 97 OFFCURVE",
"253 22 OFFCURVE",
"406 -20 OFFCURVE",
"506 -20 QCURVE",
"506 -20 LINE"
);
}
);
userData = {
assembly = "NPUSHB[ ]	/* 56 values pushed */\0120 4 5 1 5 4 1 128 0 1 2 5 1 2 126 0 5 5 3 97 0 3 3 43 77 0 2 2 0 97 6 1 0 0 44 0 78 1 0 45 43 39 38 32 30 14 12 8 7 0 65 1 63 7 8 22 \012CALL[ ]	/* CallFunction */";
};
width = 1114;
}
);
note = S;
unicode = 0053;
},
{
glyphname = T;
layers = (
{
layerId = "B9B2530D-1BC0-47AE-88F4-2EE543D2AECB";
paths = (
{
closed = 1;
nodes = (
"729 233 LINE",
"729 233 LINE",
"729 1360 LINE",
"928 1360 LINE SMOOTH",
"974 1360 OFFCURVE",
"1036 1333 OFFCURVE",
"1074 1287 OFFCURVE",
"1094 1226 OFFCURVE",
"1098 1192 QCURVE SMOOTH",
"1108 1104 LINE",
"1214 1104 LINE",
"1204 1462 LINE",
"51 1462 LINE",
"41 1104 LINE",
"147 1104 LINE",
"158 1192 LINE SMOOTH",
"162 1226 OFFCURVE",
"181 1287 OFFCURVE",
"220 1333 OFFCURVE",
"281 1360 OFFCURVE",
"326 1360 QCURVE SMOOTH",
"522 1360 LINE",
"522 223 LINE SMOOTH",
"522 178 OFFCURVE",
"495 123 OFFCURVE",
"449 95 OFFCURVE",
"388 86 OFFCURVE",
"354 86 QCURVE SMOOTH",
"307 86 LINE",
"307 0 LINE",
"944 0 LINE",
"944 86 LINE",
"897 86 LINE SMOOTH",
"863 86 OFFCURVE",
"801 96 OFFCURVE",
"756 127 OFFCURVE",
"729 185 OFFCURVE",
"729 233 QCURVE",
"729 233 LINE"
);
}
);
userData = {
assembly = "MPPEM[ ]	/* MeasurePixelPerEm */\012PUSHB[ ]	/* 1 value pushed */\01210 \012LT[ ]	/* LessThan */\012IF[ ]	/* If */\012NPUSHB[ ]	/* 31 values pushed */\0126 1 4 3 0 3 4 114 7 1 3 3 5 95 0 5 5 37 77 2 1 0 0 1 95 0 1 1 38 1 78 \012ELSE[ ]	/* Else */\012NPUSHB[ ]	/* 32 values pushed */\0126 1 4 3 0 3 4 0 128 7 1 3 3 5 95 0 5 5 37 77 2 1 0 0 1 95 0 1 1 38 1 78 \012EIF[ ]	/* EndIf */\012NPUSHB[ ]	/* 11 values pushed */\01237 17 17 21 37 33 17 36 8 8 30 \012CALL[ ]	/* CallFunction */";
};
width = 1255;
}
);
note = T;
unicode = 0054;
},
{
glyphname = U;
layers = (
{
layerId = "B9B2530D-1BC0-47AE-88F4-2EE543D2AECB";
paths = (
{
closed = 1;
nodes = (
"741 -20 LINE",
"741 -20 LINE",
"863 -20 OFFCURVE",
"1051 40 OFFCURVE",
"1178 153 OFFCURVE",
"1243 316 OFFCURVE",
"1243 418 QCURVE SMOOTH",
"1243 1229 LINE SMOOTH",
"1243 1277 OFFCURVE",
"1270 1335 OFFCURVE",
"1315 1366 OFFCURVE",
"1377 1376 OFFCURVE",
"1411 1376 QCURVE SMOOTH",
"1438 1376 LINE",
"1438 1462 LINE",
"924 1462 LINE",
"924 1376 LINE",
"950 1376 LINE SMOOTH",
"984 1376 OFFCURVE",
"1045 1367 OFFCURVE",
"1091 1337 OFFCURVE",
"1118 1282 OFFCURVE",
"1118 1237 QCURVE SMOOTH",
"1118 422 LINE SMOOTH",
"1118 352 OFFCURVE",
"1077 235 OFFCURVE",
"992 150 OFFCURVE",
"863 102 OFFCURVE",
"774 102 QCURVE SMOOTH",
"699 102 OFFCURVE",
"574 138 OFFCURVE",
"483 216 OFFCURVE",
"432 341 OFFCURVE",
"432 430 QCURVE SMOOTH",
"432 1229 LINE SMOOTH",
"432 1277 OFFCURVE",
"459 1335 OFFCURVE",
"504 1366 OFFCURVE",
"566 1376 OFFCURVE",
"600 1376 QCURVE SMOOTH",
"627 1376 LINE",
"627 1462 LINE",
"31 1462 LINE",
"31 1376 LINE",
"57 1376 LINE SMOOTH",
"91 1376 OFFCURVE",
"152 1367 OFFCURVE",
"198 1337 OFFCURVE",
"225 1282 OFFCURVE",
"225 1237 QCURVE SMOOTH",
"225 442 LINE SMOOTH",
"225 317 OFFCURVE",
"295 142 OFFCURVE",
"428 31 OFFCURVE",
"620 -20 OFFCURVE",
"741 -20 QCURVE",
"741 -20 LINE"
);
}
);
userData = {
assembly = "NPUSHB[ ]	/* 49 values pushed */\0127 5 3 3 1 1 2 95 6 1 2 2 37 77 0 4 4 0 97 8 1 0 0 44 0 78 1 0 44 42 41 40 39 37 28 26 17 15 14 13 12 10 0 55 1 53 9 8 22 \012CALL[ ]	/* CallFunction */";
};
width = 1468;
}
);
note = U;
unicode = 0055;
},
{
glyphname = V;
layers = (
{
layerId = "B9B2530D-1BC0-47AE-88F4-2EE543D2AECB";
paths = (
{
closed = 1;
nodes = (
"614 0 LINE",
"614 0 LINE",
"764 0 LINE",
"1188 1217 LINE SMOOTH",
"1205 1267 OFFCURVE",
"1235 1329 OFFCURVE",
"1270 1364 OFFCURVE",
"1313 1376 OFFCURVE",
"1343 1376 QCURVE SMOOTH",
"1382 1376 LINE",
"1382 1462 LINE",
"883 1462 LINE",
"883 1376 LINE",
"930 1376 LINE SMOOTH",
"998 1376 OFFCURVE",
"1065 1329 OFFCURVE",
"1065 1276 QCURVE SMOOTH",
"1065 1259 OFFCURVE",
"1055 1213 OFFCURVE",
"1047 1188 QCURVE SMOOTH",
"821 537 LINE SMOOTH",
"787 441 OFFCURVE",
"743 275 OFFCURVE",
"727 201 QCURVE",
"710 275 OFFCURVE",
"666 446 OFFCURVE",
"635 537 QCURVE SMOOTH",
"410 1202 LINE SMOOTH",
"402 1225 OFFCURVE",
"393 1261 OFFCURVE",
"393 1278 QCURVE SMOOTH",
"393 1329 OFFCURVE",
"454 1376 OFFCURVE",
"516 1376 QCURVE SMOOTH",
"563 1376 LINE",
"563 1462 LINE",
"0 1462 LINE",
"0 1376 LINE",
"27 1376 LINE SMOOTH",
"57 1376 OFFCURVE",
"101 1366 OFFCURVE",
"135 1342 OFFCURVE",
"161 1300 OFFCURVE",
"172 1268 QCURVE SMOOTH",
"614 0 LINE",
"614 0 LINE"
);
}
);
userData = {
assembly = "NPUSHB[ ]	/* 41 values pushed */\01221 14 2 6 0 1 76 5 3 2 3 0 0 1 95 4 1 1 1 37 77 0 6 6 38 6 78 43 42 37 35 34 33 32 30 33 17 37 7 8 25 \012CALL[ ]	/* CallFunction */";
};
width = 1382;
}
);
note = V;
unicode = 0056;
},
{
glyphname = W;
layers = (
{
layerId = "B9B2530D-1BC0-47AE-88F4-2EE543D2AECB";
paths = (
{
closed = 1;
nodes = (
"1180 1448 LINE",
"1180 1448 LINE",
"1032 1448 LINE",
"788 569 LINE SMOOTH",
"761 470 OFFCURVE",
"720 281 OFFCURVE",
"705 201 QCURVE",
"688 275 OFFCURVE",
"642 454 OFFCURVE",
"616 547 QCURVE SMOOTH",
"428 1202 LINE SMOOTH",
"422 1225 OFFCURVE",
"412 1261 OFFCURVE",
"412 1278 QCURVE SMOOTH",
"412 1329 OFFCURVE",
"473 1376 OFFCURVE",
"535 1376 QCURVE SMOOTH",
"582 1376 LINE",
"582 1462 LINE",
"18 1462 LINE",
"18 1376 LINE",
"45 1376 LINE SMOOTH",
"75 1376 OFFCURVE",
"121 1366 OFFCURVE",
"155 1342 OFFCURVE",
"180 1300 OFFCURVE",
"190 1268 QCURVE SMOOTH",
"565 0 LINE",
"754 0 LINE",
"1067 1147 LINE",
"1401 0 LINE",
"1585 0 LINE",
"1931 1217 LINE SMOOTH",
"1946 1268 OFFCURVE",
"1976 1330 OFFCURVE",
"2012 1364 OFFCURVE",
"2057 1376 OFFCURVE",
"2087 1376 QCURVE SMOOTH",
"2126 1376 LINE",
"2126 1462 LINE",
"1626 1462 LINE",
"1626 1376 LINE",
"1673 1376 LINE SMOOTH",
"1741 1376 OFFCURVE",
"1808 1329 OFFCURVE",
"1808 1276 QCURVE SMOOTH",
"1808 1267 OFFCURVE",
"1803 1241 OFFCURVE",
"1797 1211 OFFCURVE",
"1789 1181 OFFCURVE",
"1786 1169 QCURVE SMOOTH",
"1606 537 LINE SMOOTH",
"1578 438 OFFCURVE",
"1539 275 OFFCURVE",
"1524 201 QCURVE",
"1510 272 OFFCURVE",
"1465 459 OFFCURVE",
"1436 561 QCURVE SMOOTH",
"1180 1448 LINE",
"1180 1448 LINE"
);
}
);
userData = {
assembly = "NPUSHB[ ]	/* 9 values pushed */\01252 45 29 4 4 3 0 1 76 \012MPPEM[ ]	/* MeasurePixelPerEm */\012PUSHB[ ]	/* 1 value pushed */\01236 \012LT[ ]	/* LessThan */\012IF[ ]	/* If */\012NPUSHB[ ]	/* 22 values pushed */\0127 5 2 3 0 0 1 95 8 6 2 1 1 37 77 4 1 3 3 38 3 78 \012ELSE[ ]	/* Else */\012NPUSHB[ ]	/* 26 values pushed */\0120 8 8 37 77 7 5 2 3 0 0 1 95 6 1 1 1 37 77 4 1 3 3 38 3 78 \012EIF[ ]	/* EndIf */\012NPUSHB[ ]	/* 12 values pushed */\01229 33 17 37 18 21 33 17 47 9 8 31 \012CALL[ ]	/* CallFunction */";
};
width = 2144;
}
);
note = W;
unicode = 0057;
},
{
glyphname = X;
layers = (
{
layerId = "B9B2530D-1BC0-47AE-88F4-2EE543D2AECB";
paths = (
{
closed = 1;
nodes = (
"954 1317 LINE",
"954 1317 LINE",
"954 1289 OFFCURVE",
"926 1227 OFFCURVE",
"903 1192 QCURVE SMOOTH",
"709 897 LINE",
"524 1196 LINE SMOOTH",
"507 1223 OFFCURVE",
"488 1259 OFFCURVE",
"478 1286 OFFCURVE",
"475 1306 OFFCURVE",
"475 1317 QCURVE SMOOTH",
"475 1329 OFFCURVE",
"485 1351 OFFCURVE",
"511 1367 OFFCURVE",
"557 1376 OFFCURVE",
"592 1376 QCURVE SMOOTH",
"598 1376 LINE",
"598 1462 LINE",
"43 1462 LINE",
"43 1376 LINE",
"70 1376 LINE SMOOTH",
"116 1376 OFFCURVE",
"209 1327 OFFCURVE",
"246 1268 QCURVE SMOOTH",
"584 719 LINE",
"242 229 LINE SMOOTH",
"214 189 OFFCURVE",
"168 135 OFFCURVE",
"121 101 OFFCURVE",
"66 86 OFFCURVE",
"29 86 QCURVE SMOOTH",
"16 86 LINE",
"16 0 LINE",
"504 0 LINE",
"504 86 LINE",
"498 86 LINE SMOOTH",
"430 86 OFFCURVE",
"365 115 OFFCURVE",
"365 150 QCURVE SMOOTH",
"365 166 OFFCURVE",
"375 203 OFFCURVE",
"391 239 OFFCURVE",
"409 272 OFFCURVE",
"418 285 QCURVE SMOOTH",
"645 621 LINE",
"848 295 LINE SMOOTH",
"869 261 OFFCURVE",
"896 217 OFFCURVE",
"910 187 OFFCURVE",
"915 165 OFFCURVE",
"915 154 QCURVE SMOOTH",
"915 86 OFFCURVE",
"793 86 QCURVE SMOOTH",
"782 86 LINE",
"782 0 LINE",
"1335 0 LINE",
"1335 86 LINE",
"1309 86 LINE SMOOTH",
"1270 86 OFFCURVE",
"1190 135 OFFCURVE",
"1145 195 QCURVE",
"768 801 LINE",
"1065 1229 LINE SMOOTH",
"1094 1271 OFFCURVE",
"1143 1327 OFFCURVE",
"1189 1362 OFFCURVE",
"1238 1376 OFFCURVE",
"1268 1376 QCURVE SMOOTH",
"1286 1376 LINE",
"1286 1462 LINE",
"838 1462 LINE",
"838 1376 LINE",
"844 1376 LINE SMOOTH",
"868 1376 OFFCURVE",
"908 1371 OFFCURVE",
"937 1358 OFFCURVE",
"954 1335 OFFCURVE",
"954 1317 QCURVE",
"954 1317 LINE"
);
}
);
userData = {
assembly = "NPUSHB[ ]	/* 58 values pushed */\01277 73 53 33 27 16 6 3 0 1 76 11 9 2 3 0 0 1 95 10 1 1 1 37 77 8 6 5 3 3 3 4 95 7 1 4 4 38 4 78 63 61 60 59 58 56 33 18 31 33 17 40 33 18 20 12 8 31 \012CALL[ ]	/* CallFunction */";
};
width = 1352;
}
);
note = X;
unicode = 0058;
},
{
glyphname = Y;
layers = (
{
layerId = "B9B2530D-1BC0-47AE-88F4-2EE543D2AECB";
paths = (
{
closed = 1;
nodes = (
"326 0 LINE",
"326 0 LINE",
"963 0 LINE",
"963 86 LINE",
"915 86 LINE SMOOTH",
"881 86 OFFCURVE",
"820 96 OFFCURVE",
"774 127 OFFCURVE",
"748 185 OFFCURVE",
"748 233 QCURVE SMOOTH",
"748 610 LINE",
"1092 1217 LINE SMOOTH",
"1118 1263 OFFCURVE",
"1161 1324 OFFCURVE",
"1201 1361 OFFCURVE",
"1240 1376 OFFCURVE",
"1262 1376 QCURVE SMOOTH",
"1286 1376 LINE",
"1286 1462 LINE",
"786 1462 LINE",
"786 1376 LINE",
"846 1376 LINE SMOOTH",
"905 1376 OFFCURVE",
"969 1331 OFFCURVE",
"969 1286 QCURVE SMOOTH",
"969 1261 OFFCURVE",
"952 1198 OFFCURVE",
"932 1163 QCURVE SMOOTH",
"801 928 LINE SMOOTH",
"783 896 OFFCURVE",
"747 831 OFFCURVE",
"714 770 OFFCURVE",
"687 716 OFFCURVE",
"678 694 QCURVE",
"661 742 OFFCURVE",
"611 865 OFFCURVE",
"575 928 QCURVE SMOOTH",
"424 1202 LINE SMOOTH",
"412 1224 OFFCURVE",
"387 1282 OFFCURVE",
"387 1311 QCURVE SMOOTH",
"387 1324 OFFCURVE",
"394 1348 OFFCURVE",
"414 1366 OFFCURVE",
"449 1376 OFFCURVE",
"477 1376 QCURVE SMOOTH",
"553 1376 LINE",
"553 1462 LINE",
"-10 1462 LINE",
"-10 1376 LINE",
"16 1376 LINE SMOOTH",
"42 1376 OFFCURVE",
"82 1364 OFFCURVE",
"115 1338 OFFCURVE",
"145 1297 OFFCURVE",
"162 1268 QCURVE SMOOTH",
"541 610 LINE",
"541 223 LINE SMOOTH",
"541 178 OFFCURVE",
"514 123 OFFCURVE",
"468 95 OFFCURVE",
"407 86 OFFCURVE",
"373 86 QCURVE SMOOTH",
"326 86 LINE",
"326 0 LINE",
"326 0 LINE"
);
}
);
userData = {
assembly = "NPUSHB[ ]	/* 51 values pushed */\01254 31 8 3 0 1 1 76 6 4 3 3 1 1 2 95 5 1 2 2 37 77 7 1 0 0 8 95 0 8 8 38 8 78 63 62 61 59 49 47 46 45 44 42 33 17 42 33 9 8 26 \012CALL[ ]	/* CallFunction */";
};
width = 1280;
}
);
note = Y;
unicode = 0059;
},
{
glyphname = Z;
layers = (
{
layerId = "B9B2530D-1BC0-47AE-88F4-2EE543D2AECB";
paths = (
{
closed = 1;
nodes = (
"1094 1378 LINE",
"1094 1378 LINE",
"1094 1462 LINE",
"123 1462 LINE",
"113 1104 LINE",
"219 1104 LINE",
"229 1192 LINE SMOOTH",
"233 1226 OFFCURVE",
"253 1287 OFFCURVE",
"291 1333 OFFCURVE",
"352 1360 OFFCURVE",
"397 1360 QCURVE SMOOTH",
"842 1360 LINE",
"74 82 LINE",
"74 0 LINE",
"1116 0 LINE",
"1126 358 LINE",
"1020 358 LINE",
"1010 270 LINE SMOOTH",
"1006 236 OFFCURVE",
"986 175 OFFCURVE",
"948 129 OFFCURVE",
"886 102 OFFCURVE",
"840 102 QCURVE SMOOTH",
"324 102 LINE",
"1094 1378 LINE",
"1094 1378 LINE"
);
}
);
userData = {
assembly = "NPUSHB[ ]	/* 10 values pushed */\01224 1 3 5 12 1 2 0 2 76 \012MPPEM[ ]	/* MeasurePixelPerEm */\012PUSHB[ ]	/* 1 value pushed */\01210 \012LT[ ]	/* LessThan */\012IF[ ]	/* If */\012NPUSHB[ ]	/* 34 values pushed */\0120 4 3 1 3 4 114 0 1 0 0 1 112 0 3 3 5 95 0 5 5 37 77 0 0 0 2 96 0 2 2 38 2 78 \012ELSE[ ]	/* Else */\012NPUSHB[ ]	/* 36 values pushed */\0120 4 3 1 3 4 1 128 0 1 0 3 1 0 126 0 3 3 5 95 0 5 5 37 77 0 0 0 2 96 0 2 2 38 2 78 \012EIF[ ]	/* EndIf */\012NPUSHB[ ]	/* 9 values pushed */\01217 21 34 17 21 33 6 8 28 \012CALL[ ]	/* CallFunction */";
};
width = 1212;
}
);
note = Z;
unicode = 005A;
},
{
glyphname = bracketleft;
layers = (
{
layerId = "B9B2530D-1BC0-47AE-88F4-2EE543D2AECB";
paths = (
{
closed = 1;
nodes = (
"205 -262 LINE",
"205 -262 LINE",
"662 -262 LINE",
"662 -176 LINE",
"573 -176 LINE SMOOTH",
"539 -176 OFFCURVE",
"478 -166 OFFCURVE",
"432 -135 OFFCURVE",
"406 -77 OFFCURVE",
"406 -29 QCURVE SMOOTH",
"406 1323 LINE SMOOTH",
"406 1371 OFFCURVE",
"432 1429 OFFCURVE",
"478 1460 OFFCURVE",
"539 1470 OFFCURVE",
"573 1470 QCURVE SMOOTH",
"662 1470 LINE",
"662 1556 LINE",
"205 1556 LINE",
"205 -262 LINE",
"205 -262 LINE"
);
}
);
userData = {
assembly = "NPUSHB[ ]	/* 25 values pushed */\0120 2 0 3 2 3 99 0 1 1 0 95 0 0 0 39 1 78 17 41 33 17 4 8 26 \012CALL[ ]	/* CallFunction */";
};
width = 737;
}
);
note = bracketleft;
unicode = 005B;
},
{
glyphname = backslash;
layers = (
{
layerId = "B9B2530D-1BC0-47AE-88F4-2EE543D2AECB";
paths = (
{
closed = 1;
nodes = (
"469 -248 LINE",
"590 -248 LINE",
"119 1556 LINE",
"0 1556 LINE",
"0 1556 LINE"
);
}
);
userData = {
assembly = "NPUSHB[ ]	/* 16 values pushed */\0120 1 0 1 134 0 0 0 39 0 78 17 16 2 8 24 \012CALL[ ]	/* CallFunction */";
};
width = 590;
}
);
note = backslash;
unicode = 005C;
},
{
glyphname = bracketright;
layers = (
{
layerId = "B9B2530D-1BC0-47AE-88F4-2EE543D2AECB";
paths = (
{
closed = 1;
nodes = (
"76 -262 LINE",
"76 -262 LINE",
"532 -262 LINE",
"532 1556 LINE",
"76 1556 LINE",
"76 1470 LINE",
"164 1470 LINE SMOOTH",
"199 1470 OFFCURVE",
"260 1460 OFFCURVE",
"305 1429 OFFCURVE",
"332 1371 OFFCURVE",
"332 1323 QCURVE SMOOTH",
"332 -29 LINE SMOOTH",
"332 -77 OFFCURVE",
"305 -135 OFFCURVE",
"260 -166 OFFCURVE",
"199 -176 OFFCURVE",
"164 -176 QCURVE SMOOTH",
"76 -176 LINE",
"76 -262 LINE",
"76 -262 LINE"
);
}
);
userData = {
assembly = "NPUSHB[ ]	/* 25 values pushed */\0120 0 0 3 0 3 99 0 1 1 2 95 0 2 2 39 1 78 17 17 41 33 4 8 26 \012CALL[ ]	/* CallFunction */";
};
width = 737;
}
);
note = bracketright;
unicode = 005D;
},
{
glyphname = asciicircum;
layers = (
{
layerId = "B9B2530D-1BC0-47AE-88F4-2EE543D2AECB";
paths = (
{
closed = 1;
nodes = (
"104 545 LINE",
"242 545 LINE",
"569 1274 LINE",
"901 545 LINE",
"1038 545 LINE",
"606 1462 LINE",
"535 1462 LINE",
"535 1462 LINE"
);
}
);
userData = {
assembly = "PUSHB[ ]	/* 2 values pushed */\0126 100 \012WCVTP[ ]	/* WriteCVTInPixels */\012NPUSHB[ ]	/* 22 values pushed */\0124 1 1 0 1 76 0 0 1 0 133 2 1 1 1 118 18 17 16 3 8 25 \012CALL[ ]	/* CallFunction */\012PUSHB[ ]	/* 2 values pushed */\0126 0 \012WCVTP[ ]	/* WriteCVTInPixels */";
};
width = 1145;
}
);
note = asciicircum;
unicode = 005E;
},
{
glyphname = underscore;
layers = (
{
layerId = "B9B2530D-1BC0-47AE-88F4-2EE543D2AECB";
paths = (
{
closed = 1;
nodes = (
"950 -170 LINE",
"-10 -170 LINE",
"-10 -291 LINE",
"950 -291 LINE",
"950 -291 LINE"
);
}
);
userData = {
assembly = "PUSHB[ ]	/* 2 values pushed */\0126 100 \012WCVTP[ ]	/* WriteCVTInPixels */\012NPUSHB[ ]	/* 21 values pushed */\0120 1 0 0 1 87 0 1 1 0 95 0 0 1 0 79 17 16 2 8 24 \012CALL[ ]	/* CallFunction */\012PUSHB[ ]	/* 2 values pushed */\0126 0 \012WCVTP[ ]	/* WriteCVTInPixels */";
};
width = 940;
}
);
note = underscore;
unicode = 005F;
},
{
glyphname = grave;
layers = (
{
layerId = "B9B2530D-1BC0-47AE-88F4-2EE543D2AECB";
paths = (
{
closed = 1;
nodes = (
"791 1241 LINE",
"791 1241 LINE",
"791 1268 LINE",
"769 1297 OFFCURVE",
"719 1373 OFFCURVE",
"671 1454 OFFCURVE",
"628 1535 OFFCURVE",
"612 1569 QCURVE",
"393 1569 LINE",
"393 1548 LINE",
"412 1521 OFFCURVE",
"486 1440 OFFCURVE",
"576 1352 OFFCURVE",
"672 1269 OFFCURVE",
"713 1241 QCURVE",
"791 1241 LINE",
"791 1241 LINE"
);
}
);
userData = {
assembly = "PUSHB[ ]	/* 2 values pushed */\0126 100 \012WCVTP[ ]	/* WriteCVTInPixels */\012NPUSHB[ ]	/* 28 values pushed */\01213 6 2 0 1 1 76 0 1 0 1 133 2 1 0 0 118 1 0 8 7 0 15 1 14 3 8 22 \012CALL[ ]	/* CallFunction */\012PUSHB[ ]	/* 2 values pushed */\0126 0 \012WCVTP[ ]	/* WriteCVTInPixels */";
};
width = 1182;
}
);
note = grave;
unicode = 0060;
},
{
glyphname = a;
layers = (
{
layerId = "B9B2530D-1BC0-47AE-88F4-2EE543D2AECB";
paths = (
{
closed = 1;
nodes = (
"301 297 LINE",
"301 297 LINE",
"301 357 OFFCURVE",
"332 449 OFFCURVE",
"404 512 OFFCURVE",
"521 547 OFFCURVE",
"608 551 QCURVE SMOOTH",
"739 557 LINE",
"739 391 LINE SMOOTH",
"739 326 OFFCURVE",
"701 220 OFFCURVE",
"630 146 OFFCURVE",
"529 106 OFFCURVE",
"467 106 QCURVE SMOOTH",
"382 106 OFFCURVE",
"301 201 OFFCURVE",
"301 297 QCURVE",
"301 297 LINE"
);
},
{
closed = 1;
nodes = (
"549 1016 LINE",
"549 1016 LINE",
"612 1016 OFFCURVE",
"687 979 OFFCURVE",
"727 912 OFFCURVE",
"739 819 OFFCURVE",
"739 764 QCURVE SMOOTH",
"739 641 LINE",
"569 635 LINE SMOOTH",
"334 628 OFFCURVE",
"102 470 OFFCURVE",
"102 307 QCURVE SMOOTH",
"102 223 OFFCURVE",
"150 100 OFFCURVE",
"235 19 OFFCURVE",
"352 -20 OFFCURVE",
"420 -20 QCURVE SMOOTH",
"484 -20 OFFCURVE",
"575 9 OFFCURVE",
"647 61 OFFCURVE",
"707 133 OFFCURVE",
"739 176 QCURVE",
"756 176 LINE",
"788 0 LINE",
"1065 0 LINE",
"1065 86 LINE",
"1059 86 LINE SMOOTH",
"1025 86 OFFCURVE",
"976 100 OFFCURVE",
"946 134 OFFCURVE",
"932 190 OFFCURVE",
"932 233 QCURVE SMOOTH",
"932 764 LINE SMOOTH",
"932 862 OFFCURVE",
"885 997 OFFCURVE",
"791 1081 OFFCURVE",
"651 1118 OFFCURVE",
"557 1118 QCURVE SMOOTH",
"481 1118 OFFCURVE",
"347 1096 OFFCURVE",
"246 1049 OFFCURVE",
"188 975 OFFCURVE",
"188 922 QCURVE SMOOTH",
"188 851 OFFCURVE",
"277 793 OFFCURVE",
"362 793 QCURVE",
"362 841 OFFCURVE",
"376 923 OFFCURVE",
"417 983 OFFCURVE",
"490 1016 OFFCURVE",
"549 1016 QCURVE",
"549 1016 LINE"
);
}
);
userData = {
assembly = "PUSHB[ ]	/* 6 values pushed */\01245 1 0 1 1 76 \012MPPEM[ ]	/* MeasurePixelPerEm */\012PUSHB[ ]	/* 1 value pushed */\01210 \012LT[ ]	/* LessThan */\012IF[ ]	/* If */\012NPUSHB[ ]	/* 40 values pushed */\0120 3 2 8 2 3 8 128 0 8 0 1 0 8 1 105 9 1 2 2 4 97 0 4 4 46 77 5 1 0 0 6 97 7 1 6 6 38 6 78 \012ELSE[ ]	/* Else */\012MPPEM[ ]	/* MeasurePixelPerEm */\012PUSHB[ ]	/* 1 value pushed */\01214 \012LT[ ]	/* LessThan */\012IF[ ]	/* If */\012NPUSHB[ ]	/* 48 values pushed */\0120 3 2 8 2 3 8 128 0 8 0 1 0 8 1 105 9 1 2 2 4 97 0 4 4 46 77 0 5 5 6 95 0 6 6 38 77 0 0 0 7 97 0 7 7 44 7 78 \012ELSE[ ]	/* Else */\012MPPEM[ ]	/* MeasurePixelPerEm */\012PUSHB[ ]	/* 1 value pushed */\01221 \012LT[ ]	/* LessThan */\012IF[ ]	/* If */\012NPUSHB[ ]	/* 40 values pushed */\0120 3 2 8 2 3 8 128 0 8 0 1 0 8 1 105 9 1 2 2 4 97 0 4 4 46 77 5 1 0 0 6 97 7 1 6 6 38 6 78 \012ELSE[ ]	/* Else */\012MPPEM[ ]	/* MeasurePixelPerEm */\012PUSHB[ ]	/* 1 value pushed */\01223 \012LT[ ]	/* LessThan */\012IF[ ]	/* If */\012NPUSHB[ ]	/* 48 values pushed */\0120 3 2 8 2 3 8 128 0 8 0 1 0 8 1 105 9 1 2 2 4 97 0 4 4 46 77 0 5 5 6 95 0 6 6 38 77 0 0 0 7 97 0 7 7 44 7 78 \012ELSE[ ]	/* Else */\012MPPEM[ ]	/* MeasurePixelPerEm */\012PUSHB[ ]	/* 1 value pushed */\01225 \012LT[ ]	/* LessThan */\012IF[ ]	/* If */\012NPUSHB[ ]	/* 40 values pushed */\0120 3 2 8 2 3 8 128 0 8 0 1 0 8 1 105 9 1 2 2 4 97 0 4 4 46 77 5 1 0 0 6 97 7 1 6 6 38 6 78 \012ELSE[ ]	/* Else */\012NPUSHB[ ]	/* 48 values pushed */\0120 3 2 8 2 3 8 128 0 8 0 1 0 8 1 105 9 1 2 2 4 97 0 4 4 46 77 0 5 5 6 95 0 6 6 38 77 0 0 0 7 97 0 7 7 44 7 78 \012EIF[ ]	/* EndIf */\012EIF[ ]	/* EndIf */\012EIF[ ]	/* EndIf */\012EIF[ ]	/* EndIf */\012EIF[ ]	/* EndIf */\012NPUSHB[ ]	/* 23 values pushed */\01218 17 60 58 52 50 44 43 41 40 31 29 23 22 17 67 18 65 37 34 10 8 24 \012CALL[ ]	/* CallFunction */";
};
width = 1153;
}
);
note = a;
unicode = 0061;
},
{
glyphname = b;
layers = (
{
layerId = "B9B2530D-1BC0-47AE-88F4-2EE543D2AECB";
paths = (
{
closed = 1;
nodes = (
"1145 551 LINE",
"1145 551 LINE",
"1145 698 OFFCURVE",
"1090 912 OFFCURVE",
"984 1051 OFFCURVE",
"828 1118 OFFCURVE",
"727 1118 QCURVE SMOOTH",
"667 1118 OFFCURVE",
"571 1089 OFFCURVE",
"495 1036 OFFCURVE",
"437 960 OFFCURVE",
"414 913 QCURVE",
"406 913 LINE",
"408 964 OFFCURVE",
"410 1012 QCURVE SMOOTH",
"412 1054 OFFCURVE",
"414 1145 OFFCURVE",
"414 1180 QCURVE SMOOTH",
"414 1556 LINE",
"37 1556 LINE",
"37 1470 LINE",
"53 1470 LINE SMOOTH",
"87 1470 OFFCURVE",
"148 1461 OFFCURVE",
"194 1431 OFFCURVE",
"221 1376 OFFCURVE",
"221 1331 QCURVE SMOOTH",
"221 233 LINE SMOOTH",
"221 185 OFFCURVE",
"194 127 OFFCURVE",
"149 96 OFFCURVE",
"88 86 OFFCURVE",
"53 86 QCURVE SMOOTH",
"37 86 LINE",
"37 0 LINE",
"365 0 LINE",
"401 160 LINE",
"414 160 LINE",
"436 120 OFFCURVE",
"495 54 OFFCURVE",
"572 6 OFFCURVE",
"668 -20 OFFCURVE",
"727 -20 QCURVE SMOOTH",
"828 -20 OFFCURVE",
"984 47 OFFCURVE",
"1090 187 OFFCURVE",
"1145 403 OFFCURVE",
"1145 551 QCURVE",
"1145 551 LINE"
);
},
{
closed = 1;
nodes = (
"692 987 LINE",
"692 987 LINE",
"760 987 OFFCURVE",
"857 933 OFFCURVE",
"918 825 OFFCURVE",
"946 662 OFFCURVE",
"946 553 QCURVE SMOOTH",
"946 445 OFFCURVE",
"918 280 OFFCURVE",
"857 168 OFFCURVE",
"762 111 OFFCURVE",
"694 111 QCURVE SMOOTH",
"613 111 OFFCURVE",
"506 168 OFFCURVE",
"441 280 OFFCURVE",
"414 444 OFFCURVE",
"414 551 QCURVE SMOOTH",
"414 662 OFFCURVE",
"441 826 OFFCURVE",
"505 934 OFFCURVE",
"612 987 OFFCURVE",
"692 987 QCURVE",
"692 987 LINE"
);
}
);
userData = {
assembly = "PUSHB[ ]	/* 7 values pushed */\01235 10 2 7 6 1 76 \012MPPEM[ ]	/* MeasurePixelPerEm */\012PUSHB[ ]	/* 1 value pushed */\01210 \012LT[ ]	/* LessThan */\012IF[ ]	/* If */\012NPUSHB[ ]	/* 44 values pushed */\0120 3 3 4 95 0 4 4 39 77 8 1 6 6 5 97 0 5 5 46 77 0 7 7 0 97 1 1 0 0 44 77 0 2 2 0 97 1 1 0 0 44 0 78 \012ELSE[ ]	/* Else */\012MPPEM[ ]	/* MeasurePixelPerEm */\012PUSHB[ ]	/* 1 value pushed */\01214 \012LT[ ]	/* LessThan */\012IF[ ]	/* If */\012NPUSHB[ ]	/* 42 values pushed */\0120 3 3 4 95 0 4 4 39 77 8 1 6 6 5 97 0 5 5 46 77 0 2 2 1 95 0 1 1 38 77 0 7 7 0 97 0 0 0 44 0 78 \012ELSE[ ]	/* Else */\012MPPEM[ ]	/* MeasurePixelPerEm */\012PUSHB[ ]	/* 1 value pushed */\01221 \012LT[ ]	/* LessThan */\012IF[ ]	/* If */\012NPUSHB[ ]	/* 44 values pushed */\0120 3 3 4 95 0 4 4 39 77 8 1 6 6 5 97 0 5 5 46 77 0 7 7 0 97 1 1 0 0 44 77 0 2 2 0 97 1 1 0 0 44 0 78 \012ELSE[ ]	/* Else */\012MPPEM[ ]	/* MeasurePixelPerEm */\012PUSHB[ ]	/* 1 value pushed */\01223 \012LT[ ]	/* LessThan */\012IF[ ]	/* If */\012NPUSHB[ ]	/* 42 values pushed */\0120 3 3 4 95 0 4 4 39 77 8 1 6 6 5 97 0 5 5 46 77 0 2 2 1 95 0 1 1 38 77 0 7 7 0 97 0 0 0 44 0 78 \012ELSE[ ]	/* Else */\012MPPEM[ ]	/* MeasurePixelPerEm */\012PUSHB[ ]	/* 1 value pushed */\01225 \012LT[ ]	/* LessThan */\012IF[ ]	/* If */\012NPUSHB[ ]	/* 44 values pushed */\0120 3 3 4 95 0 4 4 39 77 8 1 6 6 5 97 0 5 5 46 77 0 7 7 0 97 1 1 0 0 44 77 0 2 2 0 97 1 1 0 0 44 0 78 \012ELSE[ ]	/* Else */\012NPUSHB[ ]	/* 42 values pushed */\0120 3 3 4 95 0 4 4 39 77 8 1 6 6 5 97 0 5 5 46 77 0 2 2 1 95 0 1 1 38 77 0 7 7 0 97 0 0 0 44 0 78 \012EIF[ ]	/* EndIf */\012EIF[ ]	/* EndIf */\012EIF[ ]	/* EndIf */\012EIF[ ]	/* EndIf */\012EIF[ ]	/* EndIf */\012NPUSHB[ ]	/* 17 values pushed */\01249 48 59 57 48 69 49 67 43 18 25 33 22 36 9 8 28 \012CALL[ ]	/* CallFunction */";
};
width = 1257;
}
);
note = b;
unicode = 0062;
},
{
glyphname = c;
layers = (
{
layerId = "B9B2530D-1BC0-47AE-88F4-2EE543D2AECB";
paths = (
{
closed = 1;
nodes = (
"580 -20 LINE",
"580 -20 LINE",
"667 -20 OFFCURVE",
"797 15 OFFCURVE",
"884 71 OFFCURVE",
"928 141 OFFCURVE",
"928 176 QCURVE SMOOTH",
"928 204 OFFCURVE",
"908 244 OFFCURVE",
"893 256 QCURVE",
"858 193 OFFCURVE",
"716 113 OFFCURVE",
"621 113 QCURVE SMOOTH",
"456 113 OFFCURVE",
"311 327 OFFCURVE",
"311 545 QCURVE SMOOTH",
"311 682 OFFCURVE",
"347 864 OFFCURVE",
"415 972 OFFCURVE",
"510 1016 OFFCURVE",
"569 1016 QCURVE SMOOTH",
"621 1016 OFFCURVE",
"688 979 OFFCURVE",
"727 914 OFFCURVE",
"743 828 OFFCURVE",
"743 780 QCURVE",
"834 780 OFFCURVE",
"926 838 OFFCURVE",
"926 909 QCURVE SMOOTH",
"926 962 OFFCURVE",
"862 1041 OFFCURVE",
"760 1093 OFFCURVE",
"633 1118 OFFCURVE",
"569 1118 QCURVE SMOOTH",
"472 1118 OFFCURVE",
"305 1062 OFFCURVE",
"182 928 OFFCURVE",
"113 707 OFFCURVE",
"113 543 QCURVE SMOOTH",
"113 392 OFFCURVE",
"182 179 OFFCURVE",
"306 43 OFFCURVE",
"478 -20 OFFCURVE",
"580 -20 QCURVE",
"580 -20 LINE"
);
}
);
userData = {
assembly = "NPUSHB[ ]	/* 53 values pushed */\01234 1 4 2 1 76 0 2 3 4 3 2 4 128 0 3 3 1 97 0 1 1 46 77 0 4 4 0 97 5 1 0 0 44 0 78 1 0 32 30 24 22 18 17 11 9 0 43 1 41 6 8 22 \012CALL[ ]	/* CallFunction */";
};
width = 1008;
}
);
note = c;
unicode = 0063;
},
{
glyphname = d;
layers = (
{
layerId = "B9B2530D-1BC0-47AE-88F4-2EE543D2AECB";
paths = (
{
closed = 1;
nodes = (
"1036 225 LINE",
"1036 225 LINE",
"1036 1556 LINE",
"659 1556 LINE",
"659 1470 LINE",
"676 1470 LINE SMOOTH",
"710 1470 OFFCURVE",
"771 1461 OFFCURVE",
"817 1431 OFFCURVE",
"844 1376 OFFCURVE",
"844 1331 QCURVE SMOOTH",
"844 1163 LINE SMOOTH",
"844 1145 OFFCURVE",
"848 1070 OFFCURVE",
"850 1032 QCURVE SMOOTH",
"853 988 OFFCURVE",
"856 938 QCURVE",
"844 938 LINE",
"822 978 OFFCURVE",
"762 1044 OFFCURVE",
"685 1092 OFFCURVE",
"589 1118 OFFCURVE",
"530 1118 QCURVE SMOOTH",
"429 1118 OFFCURVE",
"273 1051 OFFCURVE",
"167 911 OFFCURVE",
"113 695 OFFCURVE",
"113 547 QCURVE SMOOTH",
"113 400 OFFCURVE",
"167 186 OFFCURVE",
"273 47 OFFCURVE",
"429 -20 OFFCURVE",
"530 -20 QCURVE SMOOTH",
"590 -20 OFFCURVE",
"686 9 OFFCURVE",
"762 62 OFFCURVE",
"821 137 OFFCURVE",
"844 184 QCURVE",
"852 184 LINE",
"874 0 LINE",
"1221 0 LINE",
"1221 86 LINE",
"1204 86 LINE SMOOTH",
"1170 86 OFFCURVE",
"1109 95 OFFCURVE",
"1063 125 OFFCURVE",
"1036 180 OFFCURVE",
"1036 225 QCURVE",
"1036 225 LINE"
);
},
{
closed = 1;
nodes = (
"565 111 LINE",
"565 111 LINE",
"429 111 OFFCURVE",
"311 327 OFFCURVE",
"311 545 QCURVE SMOOTH",
"311 652 OFFCURVE",
"339 817 OFFCURVE",
"400 929 OFFCURVE",
"496 987 OFFCURVE",
"563 987 QCURVE SMOOTH",
"644 987 OFFCURVE",
"752 929 OFFCURVE",
"817 818 OFFCURVE",
"844 654 OFFCURVE",
"844 547 QCURVE SMOOTH",
"844 436 OFFCURVE",
"817 272 OFFCURVE",
"752 164 OFFCURVE",
"645 111 OFFCURVE",
"565 111 QCURVE",
"565 111 LINE"
);
}
);
userData = {
assembly = "PUSHB[ ]	/* 7 values pushed */\01230 9 2 6 7 1 76 \012MPPEM[ ]	/* MeasurePixelPerEm */\012PUSHB[ ]	/* 1 value pushed */\01210 \012LT[ ]	/* LessThan */\012IF[ ]	/* If */\012NPUSHB[ ]	/* 44 values pushed */\0120 4 4 5 95 0 5 5 39 77 0 7 7 3 97 0 3 3 46 77 8 1 6 6 1 97 2 1 1 1 38 77 0 0 0 1 97 2 1 1 1 38 1 78 \012ELSE[ ]	/* Else */\012MPPEM[ ]	/* MeasurePixelPerEm */\012PUSHB[ ]	/* 1 value pushed */\01214 \012LT[ ]	/* LessThan */\012IF[ ]	/* If */\012NPUSHB[ ]	/* 42 values pushed */\0120 4 4 5 95 0 5 5 39 77 0 7 7 3 97 0 3 3 46 77 0 0 0 1 95 0 1 1 38 77 8 1 6 6 2 97 0 2 2 44 2 78 \012ELSE[ ]	/* Else */\012MPPEM[ ]	/* MeasurePixelPerEm */\012PUSHB[ ]	/* 1 value pushed */\01221 \012LT[ ]	/* LessThan */\012IF[ ]	/* If */\012NPUSHB[ ]	/* 44 values pushed */\0120 4 4 5 95 0 5 5 39 77 0 7 7 3 97 0 3 3 46 77 8 1 6 6 1 97 2 1 1 1 38 77 0 0 0 1 97 2 1 1 1 38 1 78 \012ELSE[ ]	/* Else */\012MPPEM[ ]	/* MeasurePixelPerEm */\012PUSHB[ ]	/* 1 value pushed */\01223 \012LT[ ]	/* LessThan */\012IF[ ]	/* If */\012NPUSHB[ ]	/* 42 values pushed */\0120 4 4 5 95 0 5 5 39 77 0 7 7 3 97 0 3 3 46 77 0 0 0 1 95 0 1 1 38 77 8 1 6 6 2 97 0 2 2 44 2 78 \012ELSE[ ]	/* Else */\012MPPEM[ ]	/* MeasurePixelPerEm */\012PUSHB[ ]	/* 1 value pushed */\01225 \012LT[ ]	/* LessThan */\012IF[ ]	/* If */\012NPUSHB[ ]	/* 44 values pushed */\0120 4 4 5 95 0 5 5 39 77 0 7 7 3 97 0 3 3 46 77 8 1 6 6 1 97 2 1 1 1 38 77 0 0 0 1 97 2 1 1 1 38 1 78 \012ELSE[ ]	/* Else */\012NPUSHB[ ]	/* 42 values pushed */\0120 4 4 5 95 0 5 5 39 77 0 7 7 3 97 0 3 3 46 77 0 0 0 1 95 0 1 1 38 77 8 1 6 6 2 97 0 2 2 44 2 78 \012EIF[ ]	/* EndIf */\012EIF[ ]	/* EndIf */\012EIF[ ]	/* EndIf */\012EIF[ ]	/* EndIf */\012EIF[ ]	/* EndIf */\012NPUSHB[ ]	/* 17 values pushed */\01249 48 59 57 48 67 49 65 18 31 40 38 18 20 9 8 28 \012CALL[ ]	/* CallFunction */";
};
width = 1257;
}
);
note = d;
unicode = 0064;
},
{
glyphname = e;
layers = (
{
layerId = "B9B2530D-1BC0-47AE-88F4-2EE543D2AECB";
paths = (
{
closed = 1;
nodes = (
"563 1008 LINE",
"563 1008 LINE",
"625 1008 OFFCURVE",
"710 956 OFFCURVE",
"762 860 OFFCURVE",
"786 726 OFFCURVE",
"786 645 QCURVE",
"315 645 LINE",
"326 823 OFFCURVE",
"449 1008 OFFCURVE",
"563 1008 QCURVE",
"563 1008 LINE"
);
},
{
closed = 1;
nodes = (
"588 -20 LINE",
"588 -20 LINE",
"679 -20 OFFCURVE",
"814 20 OFFCURVE",
"904 80 OFFCURVE",
"948 151 OFFCURVE",
"948 182 QCURVE SMOOTH",
"948 208 OFFCURVE",
"923 246 OFFCURVE",
"909 252 QCURVE",
"891 224 OFFCURVE",
"834 173 OFFCURVE",
"760 133 OFFCURVE",
"669 109 OFFCURVE",
"616 109 QCURVE SMOOTH",
"543 109 OFFCURVE",
"431 158 OFFCURVE",
"354 262 OFFCURVE",
"313 423 OFFCURVE",
"311 535 QCURVE",
"993 535 LINE",
"993 629 LINE SMOOTH",
"993 750 OFFCURVE",
"934 933 OFFCURVE",
"824 1056 OFFCURVE",
"666 1118 OFFCURVE",
"567 1118 QCURVE SMOOTH",
"349 1118 OFFCURVE",
"113 828 OFFCURVE",
"113 541 QCURVE SMOOTH",
"113 408 OFFCURVE",
"178 199 OFFCURVE",
"300 55 OFFCURVE",
"477 -20 OFFCURVE",
"588 -20 QCURVE",
"588 -20 LINE"
);
}
);
userData = {
assembly = "NPUSHB[ ]	/* 60 values pushed */\01236 1 5 4 1 76 0 1 0 4 5 1 4 103 6 1 0 0 3 97 0 3 3 46 77 0 5 5 2 97 7 1 2 2 44 2 78 12 11 1 0 32 30 26 25 20 18 11 45 12 43 4 3 0 10 1 8 8 8 22 \012CALL[ ]	/* CallFunction */";
};
width = 1096;
}
);
note = e;
unicode = 0065;
},
{
glyphname = f;
layers = (
{
layerId = "B9B2530D-1BC0-47AE-88F4-2EE543D2AECB";
paths = (
{
closed = 1;
nodes = (
"688 86 LINE",
"688 86 LINE",
"610 86 LINE SMOOTH",
"576 86 OFFCURVE",
"514 96 OFFCURVE",
"469 127 OFFCURVE",
"442 185 OFFCURVE",
"442 233 QCURVE SMOOTH",
"442 1001 LINE",
"731 1001 LINE",
"731 1098 LINE",
"442 1098 LINE",
"442 1219 LINE SMOOTH",
"442 1284 OFFCURVE",
"457 1382 OFFCURVE",
"493 1449 OFFCURVE",
"552 1483 OFFCURVE",
"596 1483 QCURVE SMOOTH",
"635 1483 OFFCURVE",
"687 1455 OFFCURVE",
"718 1409 OFFCURVE",
"731 1350 OFFCURVE",
"731 1319 QCURVE",
"768 1319 OFFCURVE",
"829 1334 OFFCURVE",
"874 1363 OFFCURVE",
"899 1406 OFFCURVE",
"899 1434 QCURVE SMOOTH",
"899 1466 OFFCURVE",
"869 1518 OFFCURVE",
"802 1556 OFFCURVE",
"692 1577 OFFCURVE",
"612 1577 QCURVE SMOOTH",
"528 1577 OFFCURVE",
"394 1528 OFFCURVE",
"300 1432 OFFCURVE",
"250 1292 OFFCURVE",
"250 1200 QCURVE SMOOTH",
"250 1098 LINE",
"63 1098 LINE",
"63 1001 LINE",
"250 1001 LINE",
"250 233 LINE SMOOTH",
"250 185 OFFCURVE",
"223 127 OFFCURVE",
"178 96 OFFCURVE",
"117 86 OFFCURVE",
"82 86 QCURVE SMOOTH",
"55 86 LINE",
"55 0 LINE",
"688 0 LINE",
"688 86 LINE",
"688 86 LINE"
);
}
);
userData = {
assembly = "MPPEM[ ]	/* MeasurePixelPerEm */\012PUSHB[ ]	/* 1 value pushed */\01249 \012LT[ ]	/* LessThan */\012IF[ ]	/* If */\012NPUSHB[ ]	/* 42 values pushed */\0120 5 6 3 6 5 3 128 0 6 6 4 97 0 4 4 39 77 8 1 2 2 3 95 7 1 3 3 40 77 9 1 1 1 0 95 0 0 0 38 0 78 \012ELSE[ ]	/* Else */\012NPUSHB[ ]	/* 40 values pushed */\0120 5 6 3 6 5 3 128 0 4 0 6 5 4 6 105 8 1 2 2 3 95 7 1 3 3 40 77 9 1 1 1 0 95 0 0 0 38 0 78 \012EIF[ ]	/* EndIf */\012NPUSHB[ ]	/* 14 values pushed */\01250 48 17 21 36 24 37 17 21 33 17 10 8 31 \012CALL[ ]	/* CallFunction */";
};
width = 756;
}
);
note = f;
unicode = 0066;
},
{
glyphname = g;
layers = (
{
layerId = "B9B2530D-1BC0-47AE-88F4-2EE543D2AECB";
paths = (
{
closed = 1;
nodes = (
"1077 1055 LINE",
"1077 1055 LINE",
"1077 1076 OFFCURVE",
"1062 1115 OFFCURVE",
"1032 1144 OFFCURVE",
"987 1161 OFFCURVE",
"956 1161 QCURVE SMOOTH",
"922 1161 OFFCURVE",
"863 1139 OFFCURVE",
"813 1106 OFFCURVE",
"773 1067 OFFCURVE",
"758 1051 QCURVE",
"743 1064 OFFCURVE",
"694 1088 OFFCURVE",
"633 1107 OFFCURVE",
"561 1118 OFFCURVE",
"524 1118 QCURVE SMOOTH",
"427 1118 OFFCURVE",
"283 1066 OFFCURVE",
"187 968 OFFCURVE",
"139 828 OFFCURVE",
"139 739 QCURVE SMOOTH",
"139 688 OFFCURVE",
"164 592 OFFCURVE",
"211 511 OFFCURVE",
"280 448 OFFCURVE",
"324 430 QCURVE",
"254 388 OFFCURVE",
"190 299 OFFCURVE",
"190 238 QCURVE SMOOTH",
"190 205 OFFCURVE",
"210 151 OFFCURVE",
"242 109 OFFCURVE",
"282 79 OFFCURVE",
"303 70 QCURVE",
"252 61 OFFCURVE",
"160 21 OFFCURVE",
"89 -43 OFFCURVE",
"47 -133 OFFCURVE",
"47 -193 QCURVE SMOOTH",
"47 -334 OFFCURVE",
"259 -492 OFFCURVE",
"473 -492 QCURVE SMOOTH",
"612 -492 OFFCURVE",
"817 -438 OFFCURVE",
"951 -339 OFFCURVE",
"1016 -197 OFFCURVE",
"1016 -109 QCURVE SMOOTH",
"1016 -43 OFFCURVE",
"979 70 OFFCURVE",
"898 151 OFFCURVE",
"770 197 OFFCURVE",
"678 197 QCURVE SMOOTH",
"446 197 LINE SMOOTH",
"419 197 OFFCURVE",
"372 202 OFFCURVE",
"338 219 OFFCURVE",
"319 249 OFFCURVE",
"319 274 QCURVE SMOOTH",
"319 297 OFFCURVE",
"335 335 OFFCURVE",
"362 365 OFFCURVE",
"398 389 OFFCURVE",
"418 399 QCURVE",
"426 398 OFFCURVE",
"452 395 OFFCURVE",
"482 394 OFFCURVE",
"512 393 OFFCURVE",
"524 393 QCURVE SMOOTH",
"617 393 OFFCURVE",
"756 446 OFFCURVE",
"847 540 OFFCURVE",
"893 669 OFFCURVE",
"893 745 QCURVE SMOOTH",
"893 833 OFFCURVE",
"848 950 OFFCURVE",
"813 993 QCURVE",
"833 1006 OFFCURVE",
"875 1018 OFFCURVE",
"901 1018 QCURVE SMOOTH",
"922 1018 OFFCURVE",
"948 1005 OFFCURVE",
"963 984 OFFCURVE",
"969 960 OFFCURVE",
"969 948 QCURVE",
"997 948 OFFCURVE",
"1038 965 OFFCURVE",
"1064 994 OFFCURVE",
"1077 1033 OFFCURVE",
"1077 1055 QCURVE",
"1077 1055 LINE"
);
},
{
closed = 1;
nodes = (
"213 -180 LINE",
"213 -180 LINE",
"213 -119 OFFCURVE",
"251 -43 OFFCURVE",
"314 -1 OFFCURVE",
"395 14 OFFCURVE",
"438 14 QCURVE SMOOTH",
"639 14 LINE SMOOTH",
"690 14 OFFCURVE",
"768 0 OFFCURVE",
"821 -35 OFFCURVE",
"848 -96 OFFCURVE",
"848 -143 QCURVE SMOOTH",
"848 -197 OFFCURVE",
"814 -288 OFFCURVE",
"730 -354 OFFCURVE",
"587 -391 OFFCURVE",
"477 -391 QCURVE SMOOTH",
"399 -391 OFFCURVE",
"297 -359 OFFCURVE",
"237 -303 OFFCURVE",
"213 -225 OFFCURVE",
"213 -180 QCURVE",
"213 -180 LINE"
);
},
{
closed = 1;
nodes = (
"332 745 LINE",
"332 745 LINE",
"332 883 OFFCURVE",
"417 1018 OFFCURVE",
"516 1018 QCURVE SMOOTH",
"616 1018 OFFCURVE",
"700 886 OFFCURVE",
"700 748 QCURVE SMOOTH",
"700 681 OFFCURVE",
"681 584 OFFCURVE",
"637 522 OFFCURVE",
"568 492 OFFCURVE",
"518 492 QCURVE SMOOTH",
"419 492 OFFCURVE",
"332 614 OFFCURVE",
"332 745 QCURVE",
"332 745 LINE"
);
}
);
userData = {
assembly = "NPUSHB[ ]	/* 18 values pushed */\01278 1 1 5 13 1 0 1 63 1 2 9 55 1 8 3 4 76 \012MPPEM[ ]	/* MeasurePixelPerEm */\012PUSHB[ ]	/* 1 value pushed */\01223 \012LT[ ]	/* LessThan */\012IF[ ]	/* If */\012NPUSHB[ ]	/* 50 values pushed */\0120 9 0 2 3 9 2 105 10 1 1 1 5 97 0 5 5 46 77 0 0 0 6 97 0 6 6 46 77 0 3 3 8 95 0 8 8 38 77 0 7 7 4 97 0 4 4 42 4 78 \012ELSE[ ]	/* Else */\012NPUSHB[ ]	/* 48 values pushed */\0120 6 0 0 9 6 0 105 0 9 0 2 3 9 2 105 10 1 1 1 5 97 0 5 5 46 77 0 3 3 8 95 0 8 8 38 77 0 7 7 4 97 0 4 4 42 4 78 \012EIF[ ]	/* EndIf */\012NPUSHB[ ]	/* 20 values pushed */\012125 123 117 115 107 104 96 94 84 82 74 72 40 59 73 36 20 11 8 27 \012CALL[ ]	/* CallFunction */";
};
width = 1102;
}
);
note = g;
unicode = 0067;
},
{
glyphname = h;
layers = (
{
layerId = "B9B2530D-1BC0-47AE-88F4-2EE543D2AECB";
paths = (
{
closed = 1;
nodes = (
"588 86 LINE",
"588 86 LINE",
"582 86 LINE SMOOTH",
"548 86 OFFCURVE",
"487 95 OFFCURVE",
"441 123 OFFCURVE",
"414 178 OFFCURVE",
"414 223 QCURVE SMOOTH",
"414 655 LINE SMOOTH",
"414 730 OFFCURVE",
"444 853 OFFCURVE",
"505 940 OFFCURVE",
"598 987 OFFCURVE",
"662 987 QCURVE SMOOTH",
"724 987 OFFCURVE",
"810 950 OFFCURVE",
"863 878 OFFCURVE",
"887 774 OFFCURVE",
"887 707 QCURVE SMOOTH",
"887 0 LINE",
"1243 0 LINE",
"1243 86 LINE",
"1237 86 LINE SMOOTH",
"1203 86 OFFCURVE",
"1145 96 OFFCURVE",
"1103 127 OFFCURVE",
"1079 185 OFFCURVE",
"1079 233 QCURVE SMOOTH",
"1079 717 LINE SMOOTH",
"1079 822 OFFCURVE",
"1031 974 OFFCURVE",
"939 1071 OFFCURVE",
"804 1118 OFFCURVE",
"717 1118 QCURVE SMOOTH",
"508 1118 OFFCURVE",
"416 932 QCURVE",
"406 932 LINE",
"408 961 OFFCURVE",
"410 991 QCURVE SMOOTH",
"412 1017 OFFCURVE",
"414 1078 OFFCURVE",
"414 1106 QCURVE SMOOTH",
"414 1556 LINE",
"37 1556 LINE",
"37 1470 LINE",
"53 1470 LINE SMOOTH",
"87 1470 OFFCURVE",
"148 1461 OFFCURVE",
"194 1431 OFFCURVE",
"221 1376 OFFCURVE",
"221 1331 QCURVE SMOOTH",
"221 233 LINE SMOOTH",
"221 185 OFFCURVE",
"194 127 OFFCURVE",
"149 96 OFFCURVE",
"88 86 OFFCURVE",
"53 86 QCURVE SMOOTH",
"37 86 LINE",
"37 0 LINE",
"588 0 LINE",
"588 86 LINE",
"588 86 LINE"
);
}
);
userData = {
assembly = "NPUSHB[ ]	/* 56 values pushed */\01222 1 7 4 24 1 1 7 2 76 0 2 2 3 95 0 3 3 39 77 0 7 7 4 97 0 4 4 46 77 8 5 2 1 1 0 95 6 1 0 0 38 0 78 25 37 18 25 40 18 25 33 17 9 8 31 \012CALL[ ]	/* CallFunction */";
};
width = 1300;
}
);
note = h;
unicode = 0068;
},
{
glyphname = i;
layers = (
{
layerId = "B9B2530D-1BC0-47AE-88F4-2EE543D2AECB";
paths = (
{
closed = 1;
nodes = (
"74 86 LINE",
"74 86 LINE",
"47 86 LINE",
"47 0 LINE",
"629 0 LINE",
"629 86 LINE",
"602 86 LINE SMOOTH",
"568 86 OFFCURVE",
"506 96 OFFCURVE",
"461 127 OFFCURVE",
"434 185 OFFCURVE",
"434 233 QCURVE SMOOTH",
"434 1098 LINE",
"68 1098 LINE",
"68 1012 LINE",
"74 1012 LINE SMOOTH",
"108 1012 OFFCURVE",
"169 1002 OFFCURVE",
"215 972 OFFCURVE",
"242 917 OFFCURVE",
"242 872 QCURVE SMOOTH",
"242 223 LINE SMOOTH",
"242 178 OFFCURVE",
"215 123 OFFCURVE",
"169 95 OFFCURVE",
"108 86 OFFCURVE",
"74 86 QCURVE",
"74 86 LINE"
);
},
{
closed = 1;
nodes = (
"213 1430 LINE",
"213 1430 LINE",
"213 1394 OFFCURVE",
"231 1346 OFFCURVE",
"263 1316 OFFCURVE",
"305 1303 OFFCURVE",
"330 1303 QCURVE SMOOTH",
"354 1303 OFFCURVE",
"396 1316 OFFCURVE",
"427 1346 OFFCURVE",
"446 1394 OFFCURVE",
"446 1430 QCURVE SMOOTH",
"446 1466 OFFCURVE",
"427 1514 OFFCURVE",
"396 1544 OFFCURVE",
"354 1556 OFFCURVE",
"330 1556 QCURVE SMOOTH",
"305 1556 OFFCURVE",
"263 1544 OFFCURVE",
"231 1514 OFFCURVE",
"213 1466 OFFCURVE",
"213 1430 QCURVE",
"213 1430 LINE"
);
}
);
userData = {
assembly = "NPUSHB[ ]	/* 54 values pushed */\0120 6 6 5 97 0 5 5 39 77 0 1 1 2 95 0 2 2 40 77 3 7 2 0 0 4 95 0 4 4 38 4 78 1 0 43 41 33 31 23 22 21 19 14 13 11 10 0 26 1 24 8 8 22 \012CALL[ ]	/* CallFunction */";
};
width = 655;
}
);
note = i;
unicode = 0069;
},
{
glyphname = j;
layers = (
{
layerId = "B9B2530D-1BC0-47AE-88F4-2EE543D2AECB";
paths = (
{
closed = 1;
nodes = (
"414 1098 LINE",
"414 1098 LINE",
"47 1098 LINE",
"47 1012 LINE",
"53 1012 LINE SMOOTH",
"87 1012 OFFCURVE",
"148 1002 OFFCURVE",
"194 972 OFFCURVE",
"221 917 OFFCURVE",
"221 872 QCURVE SMOOTH",
"221 -18 LINE SMOOTH",
"221 -126 OFFCURVE",
"190 -271 OFFCURVE",
"131 -358 OFFCURVE",
"45 -395 OFFCURVE",
"-10 -395 QCURVE SMOOTH",
"-25 -395 LINE",
"-25 -492 LINE",
"8 -492 LINE SMOOTH",
"97 -492 OFFCURVE",
"246 -446 OFFCURVE",
"354 -337 OFFCURVE",
"414 -154 OFFCURVE",
"414 -16 QCURVE SMOOTH",
"414 1098 LINE",
"414 1098 LINE"
);
},
{
closed = 1;
nodes = (
"193 1430 LINE",
"193 1430 LINE",
"193 1394 OFFCURVE",
"211 1346 OFFCURVE",
"242 1316 OFFCURVE",
"285 1303 OFFCURVE",
"309 1303 QCURVE SMOOTH",
"333 1303 OFFCURVE",
"376 1316 OFFCURVE",
"407 1346 OFFCURVE",
"426 1394 OFFCURVE",
"426 1430 QCURVE SMOOTH",
"426 1466 OFFCURVE",
"407 1514 OFFCURVE",
"376 1544 OFFCURVE",
"333 1556 OFFCURVE",
"309 1556 QCURVE SMOOTH",
"285 1556 OFFCURVE",
"242 1544 OFFCURVE",
"211 1514 OFFCURVE",
"193 1466 OFFCURVE",
"193 1430 QCURVE",
"193 1430 LINE"
);
}
);
userData = {
assembly = "NPUSHB[ ]	/* 40 values pushed */\0120 5 5 4 97 0 4 4 39 77 0 2 2 3 95 0 3 3 40 77 0 1 1 0 97 0 0 0 42 0 78 40 38 18 25 33 37 6 8 28 \012CALL[ ]	/* CallFunction */";
};
width = 614;
}
);
note = j;
unicode = 006A;
},
{
glyphname = k;
layers = (
{
layerId = "B9B2530D-1BC0-47AE-88F4-2EE543D2AECB";
paths = (
{
closed = 1;
nodes = (
"694 659 LINE",
"694 659 LINE",
"838 821 LINE SMOOTH",
"918 912 OFFCURVE",
"1055 1012 OFFCURVE",
"1126 1012 QCURVE",
"1126 1098 LINE",
"674 1098 LINE",
"674 1012 LINE",
"725 1012 OFFCURVE",
"774 997 OFFCURVE",
"774 971 QCURVE SMOOTH",
"774 956 OFFCURVE",
"764 923 OFFCURVE",
"738 881 OFFCURVE",
"695 825 OFFCURVE",
"662 788 QCURVE SMOOTH",
"406 508 LINE",
"408 561 OFFCURVE",
"410 609 QCURVE SMOOTH",
"412 651 OFFCURVE",
"414 738 OFFCURVE",
"414 766 QCURVE SMOOTH",
"414 1556 LINE",
"37 1556 LINE",
"37 1470 LINE",
"53 1470 LINE SMOOTH",
"87 1470 OFFCURVE",
"148 1461 OFFCURVE",
"194 1431 OFFCURVE",
"221 1376 OFFCURVE",
"221 1331 QCURVE SMOOTH",
"221 233 LINE SMOOTH",
"221 185 OFFCURVE",
"194 127 OFFCURVE",
"149 96 OFFCURVE",
"88 86 OFFCURVE",
"53 86 QCURVE SMOOTH",
"37 86 LINE",
"37 0 LINE",
"588 0 LINE",
"588 86 LINE",
"582 86 LINE SMOOTH",
"548 86 OFFCURVE",
"487 95 OFFCURVE",
"441 123 OFFCURVE",
"414 178 OFFCURVE",
"414 223 QCURVE SMOOTH",
"414 408 LINE",
"565 520 LINE",
"770 199 LINE SMOOTH",
"813 131 OFFCURVE",
"883 52 OFFCURVE",
"967 11 OFFCURVE",
"1082 0 OFFCURVE",
"1171 0 QCURVE SMOOTH",
"1200 0 LINE",
"1200 86 LINE",
"1194 86 LINE SMOOTH",
"1125 86 OFFCURVE",
"1020 172 OFFCURVE",
"967 254 QCURVE SMOOTH",
"694 659 LINE",
"694 659 LINE"
);
}
);
userData = {
assembly = "NPUSHB[ ]	/* 58 values pushed */\01261 45 14 13 4 0 7 1 76 0 5 5 6 95 0 6 6 39 77 9 1 7 7 8 95 0 8 8 40 77 4 2 2 0 0 1 97 3 1 1 1 38 1 78 58 57 17 30 18 25 33 18 27 34 19 10 8 31 \012CALL[ ]	/* CallFunction */";
};
width = 1198;
}
);
note = k;
unicode = 006B;
},
{
glyphname = l;
layers = (
{
layerId = "B9B2530D-1BC0-47AE-88F4-2EE543D2AECB";
paths = (
{
closed = 1;
nodes = (
"53 86 LINE",
"53 86 LINE",
"27 86 LINE",
"27 0 LINE",
"608 0 LINE",
"608 86 LINE",
"582 86 LINE SMOOTH",
"547 86 OFFCURVE",
"486 96 OFFCURVE",
"440 127 OFFCURVE",
"414 185 OFFCURVE",
"414 233 QCURVE SMOOTH",
"414 1556 LINE",
"27 1556 LINE",
"27 1470 LINE",
"53 1470 LINE SMOOTH",
"87 1470 OFFCURVE",
"148 1461 OFFCURVE",
"194 1431 OFFCURVE",
"221 1376 OFFCURVE",
"221 1331 QCURVE SMOOTH",
"221 233 LINE SMOOTH",
"221 185 OFFCURVE",
"194 127 OFFCURVE",
"149 96 OFFCURVE",
"88 86 OFFCURVE",
"53 86 QCURVE",
"53 86 LINE"
);
}
);
userData = {
assembly = "NPUSHB[ ]	/* 40 values pushed */\0120 1 1 2 95 0 2 2 39 77 3 5 2 0 0 4 95 0 4 4 38 4 78 1 0 23 22 21 19 14 13 12 10 0 26 1 24 6 8 22 \012CALL[ ]	/* CallFunction */";
};
width = 635;
}
);
note = l;
unicode = 006C;
},
{
glyphname = m;
layers = (
{
layerId = "B9B2530D-1BC0-47AE-88F4-2EE543D2AECB";
paths = (
{
closed = 1;
nodes = (
"608 86 LINE",
"608 86 LINE",
"602 86 LINE SMOOTH",
"568 86 OFFCURVE",
"507 95 OFFCURVE",
"461 123 OFFCURVE",
"434 178 OFFCURVE",
"434 223 QCURVE SMOOTH",
"434 655 LINE SMOOTH",
"434 721 OFFCURVE",
"458 841 OFFCURVE",
"514 933 OFFCURVE",
"605 987 OFFCURVE",
"672 987 QCURVE SMOOTH",
"731 987 OFFCURVE",
"813 950 OFFCURVE",
"864 878 OFFCURVE",
"887 774 OFFCURVE",
"887 707 QCURVE SMOOTH",
"887 0 LINE",
"1243 0 LINE",
"1243 86 LINE",
"1237 86 LINE SMOOTH",
"1203 86 OFFCURVE",
"1145 96 OFFCURVE",
"1103 127 OFFCURVE",
"1079 185 OFFCURVE",
"1079 233 QCURVE SMOOTH",
"1079 682 LINE SMOOTH",
"1079 744 OFFCURVE",
"1102 854 OFFCURVE",
"1156 938 OFFCURVE",
"1243 987 OFFCURVE",
"1307 987 QCURVE SMOOTH",
"1366 987 OFFCURVE",
"1448 950 OFFCURVE",
"1499 878 OFFCURVE",
"1522 774 OFFCURVE",
"1522 707 QCURVE SMOOTH",
"1522 0 LINE",
"1878 0 LINE",
"1878 86 LINE",
"1872 86 LINE SMOOTH",
"1838 86 OFFCURVE",
"1780 96 OFFCURVE",
"1738 127 OFFCURVE",
"1714 185 OFFCURVE",
"1714 233 QCURVE SMOOTH",
"1714 717 LINE SMOOTH",
"1714 822 OFFCURVE",
"1668 974 OFFCURVE",
"1582 1071 OFFCURVE",
"1458 1118 OFFCURVE",
"1380 1118 QCURVE SMOOTH",
"1332 1118 OFFCURVE",
"1243 1103 OFFCURVE",
"1162 1062 OFFCURVE",
"1090 989 OFFCURVE",
"1059 932 QCURVE",
"1042 932 LINE",
"1023 983 OFFCURVE",
"962 1054 OFFCURVE",
"885 1098 OFFCURVE",
"795 1118 OFFCURVE",
"745 1118 QCURVE SMOOTH",
"697 1118 OFFCURVE",
"612 1103 OFFCURVE",
"535 1062 OFFCURVE",
"467 989 OFFCURVE",
"436 932 QCURVE",
"426 932 LINE",
"399 1098 LINE",
"78 1098 LINE",
"78 1012 LINE",
"84 1012 LINE SMOOTH",
"118 1012 OFFCURVE",
"176 1002 OFFCURVE",
"218 972 OFFCURVE",
"242 917 OFFCURVE",
"242 872 QCURVE SMOOTH",
"242 233 LINE SMOOTH",
"242 185 OFFCURVE",
"219 127 OFFCURVE",
"177 96 OFFCURVE",
"119 86 OFFCURVE",
"84 86 QCURVE SMOOTH",
"57 86 LINE",
"57 0 LINE",
"608 0 LINE",
"608 86 LINE",
"608 86 LINE"
);
}
);
userData = {
assembly = "PUSHB[ ]	/* 7 values pushed */\01230 19 2 1 8 1 76 \012MPPEM[ ]	/* MeasurePixelPerEm */\012PUSHB[ ]	/* 1 value pushed */\01210 \012LT[ ]	/* LessThan */\012IF[ ]	/* If */\012NPUSHB[ ]	/* 41 values pushed */\0120 2 2 3 97 5 4 2 3 3 40 77 11 1 8 8 3 97 5 4 2 3 3 40 77 12 9 6 3 1 1 0 95 10 7 2 0 0 38 0 78 \012ELSE[ ]	/* Else */\012MPPEM[ ]	/* MeasurePixelPerEm */\012PUSHB[ ]	/* 1 value pushed */\01214 \012LT[ ]	/* LessThan */\012IF[ ]	/* If */\012NPUSHB[ ]	/* 38 values pushed */\0120 2 2 3 95 0 3 3 40 77 11 1 8 8 4 97 5 1 4 4 46 77 12 9 6 3 1 1 0 95 10 7 2 0 0 38 0 78 \012ELSE[ ]	/* Else */\012MPPEM[ ]	/* MeasurePixelPerEm */\012PUSHB[ ]	/* 1 value pushed */\01221 \012LT[ ]	/* LessThan */\012IF[ ]	/* If */\012NPUSHB[ ]	/* 41 values pushed */\0120 2 2 3 97 5 4 2 3 3 40 77 11 1 8 8 3 97 5 4 2 3 3 40 77 12 9 6 3 1 1 0 95 10 7 2 0 0 38 0 78 \012ELSE[ ]	/* Else */\012MPPEM[ ]	/* MeasurePixelPerEm */\012PUSHB[ ]	/* 1 value pushed */\01223 \012LT[ ]	/* LessThan */\012IF[ ]	/* If */\012NPUSHB[ ]	/* 38 values pushed */\0120 2 2 3 95 0 3 3 40 77 11 1 8 8 4 97 5 1 4 4 46 77 12 9 6 3 1 1 0 95 10 7 2 0 0 38 0 78 \012ELSE[ ]	/* Else */\012MPPEM[ ]	/* MeasurePixelPerEm */\012PUSHB[ ]	/* 1 value pushed */\01225 \012LT[ ]	/* LessThan */\012IF[ ]	/* If */\012NPUSHB[ ]	/* 41 values pushed */\0120 2 2 3 97 5 4 2 3 3 40 77 11 1 8 8 3 97 5 4 2 3 3 40 77 12 9 6 3 1 1 0 95 10 7 2 0 0 38 0 78 \012ELSE[ ]	/* Else */\012NPUSHB[ ]	/* 38 values pushed */\0120 2 2 3 95 0 3 3 40 77 11 1 8 8 4 97 5 1 4 4 46 77 12 9 6 3 1 1 0 95 10 7 2 0 0 38 0 78 \012EIF[ ]	/* EndIf */\012EIF[ ]	/* EndIf */\012EIF[ ]	/* EndIf */\012EIF[ ]	/* EndIf */\012EIF[ ]	/* EndIf */\012NPUSHB[ ]	/* 20 values pushed */\01287 86 77 75 70 69 67 66 37 18 25 41 38 18 25 33 17 13 8 31 \012CALL[ ]	/* CallFunction */";
};
width = 1935;
}
);
note = m;
unicode = 006D;
},
{
glyphname = n;
layers = (
{
layerId = "B9B2530D-1BC0-47AE-88F4-2EE543D2AECB";
paths = (
{
closed = 1;
nodes = (
"608 86 LINE",
"608 86 LINE",
"602 86 LINE SMOOTH",
"568 86 OFFCURVE",
"507 95 OFFCURVE",
"461 123 OFFCURVE",
"434 178 OFFCURVE",
"434 223 QCURVE SMOOTH",
"434 655 LINE SMOOTH",
"434 721 OFFCURVE",
"459 841 OFFCURVE",
"517 933 OFFCURVE",
"612 987 OFFCURVE",
"682 987 QCURVE SMOOTH",
"744 987 OFFCURVE",
"830 950 OFFCURVE",
"883 878 OFFCURVE",
"907 774 OFFCURVE",
"907 707 QCURVE SMOOTH",
"907 0 LINE",
"1264 0 LINE",
"1264 86 LINE",
"1257 86 LINE SMOOTH",
"1223 86 OFFCURVE",
"1165 96 OFFCURVE",
"1123 127 OFFCURVE",
"1100 185 OFFCURVE",
"1100 233 QCURVE SMOOTH",
"1100 717 LINE SMOOTH",
"1100 822 OFFCURVE",
"1053 974 OFFCURVE",
"964 1071 OFFCURVE",
"837 1118 OFFCURVE",
"756 1118 QCURVE SMOOTH",
"707 1118 OFFCURVE",
"618 1103 OFFCURVE",
"539 1062 OFFCURVE",
"468 989 OFFCURVE",
"436 932 QCURVE",
"426 932 LINE",
"399 1098 LINE",
"68 1098 LINE",
"68 1012 LINE",
"74 1012 LINE SMOOTH",
"108 1012 OFFCURVE",
"169 1002 OFFCURVE",
"215 972 OFFCURVE",
"242 917 OFFCURVE",
"242 872 QCURVE SMOOTH",
"242 233 LINE SMOOTH",
"242 185 OFFCURVE",
"215 127 OFFCURVE",
"170 96 OFFCURVE",
"109 86 OFFCURVE",
"74 86 QCURVE SMOOTH",
"57 86 LINE",
"57 0 LINE",
"608 0 LINE",
"608 86 LINE",
"608 86 LINE"
);
}
);
userData = {
assembly = "PUSHB[ ]	/* 6 values pushed */\01219 1 1 7 1 76 \012MPPEM[ ]	/* MeasurePixelPerEm */\012PUSHB[ ]	/* 1 value pushed */\01210 \012LT[ ]	/* LessThan */\012IF[ ]	/* If */\012NPUSHB[ ]	/* 36 values pushed */\0120 2 2 3 97 4 1 3 3 40 77 0 7 7 3 97 4 1 3 3 40 77 8 5 2 1 1 0 95 6 1 0 0 38 0 78 \012ELSE[ ]	/* Else */\012MPPEM[ ]	/* MeasurePixelPerEm */\012PUSHB[ ]	/* 1 value pushed */\01214 \012LT[ ]	/* LessThan */\012IF[ ]	/* If */\012NPUSHB[ ]	/* 34 values pushed */\0120 2 2 3 95 0 3 3 40 77 0 7 7 4 97 0 4 4 46 77 8 5 2 1 1 0 95 6 1 0 0 38 0 78 \012ELSE[ ]	/* Else */\012MPPEM[ ]	/* MeasurePixelPerEm */\012PUSHB[ ]	/* 1 value pushed */\01221 \012LT[ ]	/* LessThan */\012IF[ ]	/* If */\012NPUSHB[ ]	/* 36 values pushed */\0120 2 2 3 97 4 1 3 3 40 77 0 7 7 3 97 4 1 3 3 40 77 8 5 2 1 1 0 95 6 1 0 0 38 0 78 \012ELSE[ ]	/* Else */\012MPPEM[ ]	/* MeasurePixelPerEm */\012PUSHB[ ]	/* 1 value pushed */\01223 \012LT[ ]	/* LessThan */\012IF[ ]	/* If */\012NPUSHB[ ]	/* 34 values pushed */\0120 2 2 3 95 0 3 3 40 77 0 7 7 4 97 0 4 4 46 77 8 5 2 1 1 0 95 6 1 0 0 38 0 78 \012ELSE[ ]	/* Else */\012MPPEM[ ]	/* MeasurePixelPerEm */\012PUSHB[ ]	/* 1 value pushed */\01225 \012LT[ ]	/* LessThan */\012IF[ ]	/* If */\012NPUSHB[ ]	/* 36 values pushed */\0120 2 2 3 97 4 1 3 3 40 77 0 7 7 3 97 4 1 3 3 40 77 8 5 2 1 1 0 95 6 1 0 0 38 0 78 \012ELSE[ ]	/* Else */\012NPUSHB[ ]	/* 34 values pushed */\0120 2 2 3 95 0 3 3 40 77 0 7 7 4 97 0 4 4 46 77 8 5 2 1 1 0 95 6 1 0 0 38 0 78 \012EIF[ ]	/* EndIf */\012EIF[ ]	/* EndIf */\012EIF[ ]	/* EndIf */\012EIF[ ]	/* EndIf */\012EIF[ ]	/* EndIf */\012NPUSHB[ ]	/* 12 values pushed */\01225 37 18 25 38 18 25 33 17 9 8 31 \012CALL[ ]	/* CallFunction */";
};
width = 1321;
}
);
note = n;
unicode = 006E;
},
{
glyphname = o;
layers = (
{
layerId = "B9B2530D-1BC0-47AE-88F4-2EE543D2AECB";
paths = (
{
closed = 1;
nodes = (
"1069 551 LINE",
"1069 551 LINE",
"1069 695 OFFCURVE",
"1004 908 OFFCURVE",
"881 1049 OFFCURVE",
"705 1118 OFFCURVE",
"594 1118 QCURVE SMOOTH",
"356 1118 OFFCURVE",
"113 838 OFFCURVE",
"113 551 QCURVE SMOOTH",
"113 407 OFFCURVE",
"178 192 OFFCURVE",
"301 50 OFFCURVE",
"477 -20 OFFCURVE",
"588 -20 QCURVE SMOOTH",
"824 -20 OFFCURVE",
"1069 262 OFFCURVE",
"1069 551 QCURVE",
"1069 551 LINE"
);
},
{
closed = 1;
nodes = (
"311 551 LINE",
"311 551 LINE",
"311 665 OFFCURVE",
"341 837 OFFCURVE",
"407 952 OFFCURVE",
"513 1010 OFFCURVE",
"590 1010 QCURVE SMOOTH",
"667 1010 OFFCURVE",
"774 952 OFFCURVE",
"840 837 OFFCURVE",
"870 665 OFFCURVE",
"870 551 QCURVE SMOOTH",
"870 437 OFFCURVE",
"841 263 OFFCURVE",
"775 146 OFFCURVE",
"669 86 OFFCURVE",
"592 86 QCURVE SMOOTH",
"515 86 OFFCURVE",
"408 146 OFFCURVE",
"341 263 OFFCURVE",
"311 437 OFFCURVE",
"311 551 QCURVE",
"311 551 LINE"
);
}
);
userData = {
assembly = "NPUSHB[ ]	/* 28 values pushed */\0120 3 3 1 97 0 1 1 46 77 0 2 2 0 97 0 0 0 44 0 78 40 42 38 34 4 8 26 \012CALL[ ]	/* CallFunction */";
};
width = 1182;
}
);
note = o;
unicode = 006F;
},
{
glyphname = p;
layers = (
{
layerId = "B9B2530D-1BC0-47AE-88F4-2EE543D2AECB";
paths = (
{
closed = 1;
nodes = (
"692 987 LINE",
"692 987 LINE",
"760 987 OFFCURVE",
"857 933 OFFCURVE",
"918 825 OFFCURVE",
"946 662 OFFCURVE",
"946 553 QCURVE SMOOTH",
"946 445 OFFCURVE",
"918 280 OFFCURVE",
"857 168 OFFCURVE",
"762 111 OFFCURVE",
"694 111 QCURVE SMOOTH",
"613 111 OFFCURVE",
"506 168 OFFCURVE",
"441 280 OFFCURVE",
"414 444 OFFCURVE",
"414 551 QCURVE SMOOTH",
"414 662 OFFCURVE",
"441 826 OFFCURVE",
"505 934 OFFCURVE",
"612 987 OFFCURVE",
"692 987 QCURVE",
"692 987 LINE"
);
},
{
closed = 1;
nodes = (
"1145 551 LINE",
"1145 551 LINE",
"1145 698 OFFCURVE",
"1090 912 OFFCURVE",
"984 1051 OFFCURVE",
"828 1118 OFFCURVE",
"727 1118 QCURVE SMOOTH",
"667 1118 OFFCURVE",
"571 1089 OFFCURVE",
"495 1036 OFFCURVE",
"437 960 OFFCURVE",
"414 913 QCURVE",
"406 913 LINE",
"385 1098 LINE",
"27 1098 LINE",
"27 1012 LINE",
"53 1012 LINE SMOOTH",
"87 1012 OFFCURVE",
"148 1002 OFFCURVE",
"194 972 OFFCURVE",
"221 917 OFFCURVE",
"221 872 QCURVE SMOOTH",
"221 -258 LINE SMOOTH",
"221 -306 OFFCURVE",
"194 -365 OFFCURVE",
"149 -396 OFFCURVE",
"88 -406 OFFCURVE",
"53 -406 QCURVE SMOOTH",
"37 -406 LINE",
"37 -492 LINE",
"588 -492 LINE",
"588 -406 LINE",
"582 -406 LINE SMOOTH",
"548 -406 OFFCURVE",
"487 -397 OFFCURVE",
"441 -368 OFFCURVE",
"414 -313 OFFCURVE",
"414 -268 QCURVE SMOOTH",
"414 -72 LINE SMOOTH",
"414 -64 OFFCURVE",
"413 -35 OFFCURVE",
"412 1 OFFCURVE",
"411 42 OFFCURVE",
"410 61 QCURVE SMOOTH",
"408 107 OFFCURVE",
"406 160 QCURVE",
"414 160 LINE",
"436 120 OFFCURVE",
"495 54 OFFCURVE",
"572 6 OFFCURVE",
"668 -20 OFFCURVE",
"727 -20 QCURVE SMOOTH",
"828 -20 OFFCURVE",
"984 47 OFFCURVE",
"1090 187 OFFCURVE",
"1145 403 OFFCURVE",
"1145 551 QCURVE",
"1145 551 LINE"
);
}
);
userData = {
assembly = "PUSHB[ ]	/* 7 values pushed */\01266 32 2 1 0 1 76 \012MPPEM[ ]	/* MeasurePixelPerEm */\012PUSHB[ ]	/* 1 value pushed */\01210 \012LT[ ]	/* LessThan */\012IF[ ]	/* If */\012NPUSHB[ ]	/* 45 values pushed */\0120 6 6 7 97 8 1 7 7 40 77 9 1 0 0 7 97 8 1 7 7 40 77 0 1 1 2 97 0 2 2 44 77 5 1 3 3 4 95 0 4 4 42 4 78 \012ELSE[ ]	/* Else */\012MPPEM[ ]	/* MeasurePixelPerEm */\012PUSHB[ ]	/* 1 value pushed */\01214 \012LT[ ]	/* LessThan */\012IF[ ]	/* If */\012NPUSHB[ ]	/* 43 values pushed */\0120 6 6 7 95 0 7 7 40 77 9 1 0 0 8 97 0 8 8 46 77 0 1 1 2 97 0 2 2 44 77 5 1 3 3 4 95 0 4 4 42 4 78 \012ELSE[ ]	/* Else */\012MPPEM[ ]	/* MeasurePixelPerEm */\012PUSHB[ ]	/* 1 value pushed */\01221 \012LT[ ]	/* LessThan */\012IF[ ]	/* If */\012NPUSHB[ ]	/* 45 values pushed */\0120 6 6 7 97 8 1 7 7 40 77 9 1 0 0 7 97 8 1 7 7 40 77 0 1 1 2 97 0 2 2 44 77 5 1 3 3 4 95 0 4 4 42 4 78 \012ELSE[ ]	/* Else */\012MPPEM[ ]	/* MeasurePixelPerEm */\012PUSHB[ ]	/* 1 value pushed */\01223 \012LT[ ]	/* LessThan */\012IF[ ]	/* If */\012NPUSHB[ ]	/* 43 values pushed */\0120 6 6 7 95 0 7 7 40 77 9 1 0 0 8 97 0 8 8 46 77 0 1 1 2 97 0 2 2 44 77 5 1 3 3 4 95 0 4 4 42 4 78 \012ELSE[ ]	/* Else */\012MPPEM[ ]	/* MeasurePixelPerEm */\012PUSHB[ ]	/* 1 value pushed */\01225 \012LT[ ]	/* LessThan */\012IF[ ]	/* If */\012NPUSHB[ ]	/* 45 values pushed */\0120 6 6 7 97 8 1 7 7 40 77 9 1 0 0 7 97 8 1 7 7 40 77 0 1 1 2 97 0 2 2 44 77 5 1 3 3 4 95 0 4 4 42 4 78 \012ELSE[ ]	/* Else */\012NPUSHB[ ]	/* 43 values pushed */\0120 6 6 7 95 0 7 7 40 77 9 1 0 0 8 97 0 8 8 46 77 0 1 1 2 97 0 2 2 44 77 5 1 3 3 4 95 0 4 4 42 4 78 \012EIF[ ]	/* EndIf */\012EIF[ ]	/* EndIf */\012EIF[ ]	/* EndIf */\012EIF[ ]	/* EndIf */\012EIF[ ]	/* EndIf */\012NPUSHB[ ]	/* 25 values pushed */\0121 0 73 71 65 64 63 61 52 50 49 48 46 45 28 26 11 9 0 21 1 19 10 8 22 \012CALL[ ]	/* CallFunction */";
};
width = 1257;
}
);
note = p;
unicode = 0070;
},
{
glyphname = q;
layers = (
{
layerId = "B9B2530D-1BC0-47AE-88F4-2EE543D2AECB";
paths = (
{
closed = 1;
nodes = (
"1221 -492 LINE",
"1221 -492 LINE",
"1221 -406 LINE",
"1204 -406 LINE SMOOTH",
"1170 -406 OFFCURVE",
"1109 -396 OFFCURVE",
"1063 -366 OFFCURVE",
"1036 -311 OFFCURVE",
"1036 -266 QCURVE SMOOTH",
"1036 864 LINE SMOOTH",
"1036 912 OFFCURVE",
"1063 971 OFFCURVE",
"1108 1002 OFFCURVE",
"1170 1012 OFFCURVE",
"1204 1012 QCURVE SMOOTH",
"1221 1012 LINE",
"1221 1098 LINE",
"893 1098 LINE",
"856 938 LINE",
"844 938 LINE",
"822 978 OFFCURVE",
"762 1044 OFFCURVE",
"685 1092 OFFCURVE",
"589 1118 OFFCURVE",
"530 1118 QCURVE SMOOTH",
"429 1118 OFFCURVE",
"273 1051 OFFCURVE",
"167 911 OFFCURVE",
"113 695 OFFCURVE",
"113 547 QCURVE SMOOTH",
"113 400 OFFCURVE",
"167 186 OFFCURVE",
"273 47 OFFCURVE",
"429 -20 OFFCURVE",
"530 -20 QCURVE SMOOTH",
"590 -20 OFFCURVE",
"686 9 OFFCURVE",
"762 62 OFFCURVE",
"821 137 OFFCURVE",
"844 184 QCURVE",
"852 184 LINE",
"850 134 OFFCURVE",
"848 86 QCURVE SMOOTH",
"846 44 OFFCURVE",
"844 -47 OFFCURVE",
"844 -82 QCURVE SMOOTH",
"844 -258 LINE SMOOTH",
"844 -306 OFFCURVE",
"817 -365 OFFCURVE",
"772 -396 OFFCURVE",
"711 -406 OFFCURVE",
"676 -406 QCURVE SMOOTH",
"608 -406 LINE",
"608 -492 LINE",
"1221 -492 LINE",
"1221 -492 LINE"
);
},
{
closed = 1;
nodes = (
"565 111 LINE",
"565 111 LINE",
"429 111 OFFCURVE",
"311 327 OFFCURVE",
"311 545 QCURVE SMOOTH",
"311 652 OFFCURVE",
"339 817 OFFCURVE",
"400 929 OFFCURVE",
"496 987 OFFCURVE",
"563 987 QCURVE SMOOTH",
"644 987 OFFCURVE",
"752 929 OFFCURVE",
"817 818 OFFCURVE",
"844 654 OFFCURVE",
"844 547 QCURVE SMOOTH",
"844 436 OFFCURVE",
"817 272 OFFCURVE",
"752 164 OFFCURVE",
"645 111 OFFCURVE",
"565 111 QCURVE",
"565 111 LINE"
);
}
);
userData = {
assembly = "PUSHB[ ]	/* 7 values pushed */\01235 14 2 7 8 1 76 \012MPPEM[ ]	/* MeasurePixelPerEm */\012PUSHB[ ]	/* 1 value pushed */\01210 \012LT[ ]	/* LessThan */\012IF[ ]	/* If */\012NPUSHB[ ]	/* 46 values pushed */\0120 5 5 3 97 4 1 3 3 46 77 0 8 8 3 97 4 1 3 3 46 77 10 1 7 7 2 97 0 2 2 44 77 6 1 1 1 0 95 9 1 0 0 42 0 78 \012ELSE[ ]	/* Else */\012MPPEM[ ]	/* MeasurePixelPerEm */\012PUSHB[ ]	/* 1 value pushed */\01214 \012LT[ ]	/* LessThan */\012IF[ ]	/* If */\012NPUSHB[ ]	/* 44 values pushed */\0120 5 5 4 95 0 4 4 40 77 0 8 8 3 97 0 3 3 46 77 10 1 7 7 2 97 0 2 2 44 77 6 1 1 1 0 95 9 1 0 0 42 0 78 \012ELSE[ ]	/* Else */\012MPPEM[ ]	/* MeasurePixelPerEm */\012PUSHB[ ]	/* 1 value pushed */\01221 \012LT[ ]	/* LessThan */\012IF[ ]	/* If */\012NPUSHB[ ]	/* 46 values pushed */\0120 5 5 3 97 4 1 3 3 46 77 0 8 8 3 97 4 1 3 3 46 77 10 1 7 7 2 97 0 2 2 44 77 6 1 1 1 0 95 9 1 0 0 42 0 78 \012ELSE[ ]	/* Else */\012MPPEM[ ]	/* MeasurePixelPerEm */\012PUSHB[ ]	/* 1 value pushed */\01223 \012LT[ ]	/* LessThan */\012IF[ ]	/* If */\012NPUSHB[ ]	/* 44 values pushed */\0120 5 5 4 95 0 4 4 40 77 0 8 8 3 97 0 3 3 46 77 10 1 7 7 2 97 0 2 2 44 77 6 1 1 1 0 95 9 1 0 0 42 0 78 \012ELSE[ ]	/* Else */\012MPPEM[ ]	/* MeasurePixelPerEm */\012PUSHB[ ]	/* 1 value pushed */\01225 \012LT[ ]	/* LessThan */\012IF[ ]	/* If */\012NPUSHB[ ]	/* 46 values pushed */\0120 5 5 3 97 4 1 3 3 46 77 0 8 8 3 97 4 1 3 3 46 77 10 1 7 7 2 97 0 2 2 44 77 6 1 1 1 0 95 9 1 0 0 42 0 78 \012ELSE[ ]	/* Else */\012NPUSHB[ ]	/* 44 values pushed */\0120 5 5 4 95 0 4 4 40 77 0 8 8 3 97 0 3 3 46 77 10 1 7 7 2 97 0 2 2 44 77 6 1 1 1 0 95 9 1 0 0 42 0 78 \012EIF[ ]	/* EndIf */\012EIF[ ]	/* EndIf */\012EIF[ ]	/* EndIf */\012EIF[ ]	/* EndIf */\012EIF[ ]	/* EndIf */\012NPUSHB[ ]	/* 29 values pushed */\01256 55 1 0 66 64 55 74 56 72 51 50 41 39 38 37 31 29 21 19 4 2 0 54 1 53 11 8 22 \012CALL[ ]	/* CallFunction */";
};
width = 1257;
}
);
note = q;
unicode = 0071;
},
{
glyphname = r;
layers = (
{
layerId = "B9B2530D-1BC0-47AE-88F4-2EE543D2AECB";
paths = (
{
closed = 1;
nodes = (
"659 0 LINE",
"659 0 LINE",
"659 86 LINE",
"602 86 LINE SMOOTH",
"568 86 OFFCURVE",
"507 95 OFFCURVE",
"461 123 OFFCURVE",
"434 178 OFFCURVE",
"434 223 QCURVE SMOOTH",
"434 545 LINE SMOOTH",
"434 584 OFFCURVE",
"442 680 OFFCURVE",
"461 777 OFFCURVE",
"492 869 OFFCURVE",
"537 940 OFFCURVE",
"597 983 OFFCURVE",
"635 983 QCURVE SMOOTH",
"695 983 OFFCURVE",
"743 908 OFFCURVE",
"743 823 QCURVE",
"795 823 OFFCURVE",
"867 844 OFFCURVE",
"913 883 OFFCURVE",
"934 937 OFFCURVE",
"934 969 QCURVE SMOOTH",
"934 1040 OFFCURVE",
"825 1118 OFFCURVE",
"713 1118 QCURVE SMOOTH",
"645 1118 OFFCURVE",
"555 1083 OFFCURVE",
"494 1022 OFFCURVE",
"452 941 OFFCURVE",
"432 895 QCURVE",
"422 895 LINE",
"383 1098 LINE",
"68 1098 LINE",
"68 1012 LINE",
"74 1012 LINE SMOOTH",
"108 1012 OFFCURVE",
"169 1002 OFFCURVE",
"215 972 OFFCURVE",
"242 917 OFFCURVE",
"242 872 QCURVE SMOOTH",
"242 233 LINE SMOOTH",
"242 185 OFFCURVE",
"215 127 OFFCURVE",
"170 96 OFFCURVE",
"109 86 OFFCURVE",
"74 86 QCURVE SMOOTH",
"68 86 LINE",
"68 0 LINE",
"659 0 LINE",
"659 0 LINE"
);
}
);
userData = {
assembly = "PUSHB[ ]	/* 6 values pushed */\01218 1 5 6 1 76 \012MPPEM[ ]	/* MeasurePixelPerEm */\012PUSHB[ ]	/* 1 value pushed */\01210 \012LT[ ]	/* LessThan */\012IF[ ]	/* If */\012NPUSHB[ ]	/* 42 values pushed */\0120 5 6 1 6 5 114 0 2 2 3 97 4 1 3 3 40 77 0 6 6 3 97 4 1 3 3 40 77 7 1 1 1 0 95 8 1 0 0 38 0 78 \012ELSE[ ]	/* Else */\012MPPEM[ ]	/* MeasurePixelPerEm */\012PUSHB[ ]	/* 1 value pushed */\01214 \012LT[ ]	/* LessThan */\012IF[ ]	/* If */\012NPUSHB[ ]	/* 40 values pushed */\0120 5 6 1 6 5 114 0 2 2 3 95 0 3 3 40 77 0 6 6 4 97 0 4 4 46 77 7 1 1 1 0 95 8 1 0 0 38 0 78 \012ELSE[ ]	/* Else */\012MPPEM[ ]	/* MeasurePixelPerEm */\012PUSHB[ ]	/* 1 value pushed */\01216 \012LT[ ]	/* LessThan */\012IF[ ]	/* If */\012NPUSHB[ ]	/* 42 values pushed */\0120 5 6 1 6 5 114 0 2 2 3 97 4 1 3 3 40 77 0 6 6 3 97 4 1 3 3 40 77 7 1 1 1 0 95 8 1 0 0 38 0 78 \012ELSE[ ]	/* Else */\012MPPEM[ ]	/* MeasurePixelPerEm */\012PUSHB[ ]	/* 1 value pushed */\01221 \012LT[ ]	/* LessThan */\012IF[ ]	/* If */\012NPUSHB[ ]	/* 43 values pushed */\0120 5 6 1 6 5 1 128 0 2 2 3 97 4 1 3 3 40 77 0 6 6 3 97 4 1 3 3 40 77 7 1 1 1 0 95 8 1 0 0 38 0 78 \012ELSE[ ]	/* Else */\012MPPEM[ ]	/* MeasurePixelPerEm */\012PUSHB[ ]	/* 1 value pushed */\01223 \012LT[ ]	/* LessThan */\012IF[ ]	/* If */\012NPUSHB[ ]	/* 41 values pushed */\0120 5 6 1 6 5 1 128 0 2 2 3 95 0 3 3 40 77 0 6 6 4 97 0 4 4 46 77 7 1 1 1 0 95 8 1 0 0 38 0 78 \012ELSE[ ]	/* Else */\012MPPEM[ ]	/* MeasurePixelPerEm */\012PUSHB[ ]	/* 1 value pushed */\01225 \012LT[ ]	/* LessThan */\012IF[ ]	/* If */\012NPUSHB[ ]	/* 43 values pushed */\0120 5 6 1 6 5 1 128 0 2 2 3 97 4 1 3 3 40 77 0 6 6 3 97 4 1 3 3 40 77 7 1 1 1 0 95 8 1 0 0 38 0 78 \012ELSE[ ]	/* Else */\012NPUSHB[ ]	/* 41 values pushed */\0120 5 6 1 6 5 1 128 0 2 2 3 95 0 3 3 40 77 0 6 6 4 97 0 4 4 46 77 7 1 1 1 0 95 8 1 0 0 38 0 78 \012EIF[ ]	/* EndIf */\012EIF[ ]	/* EndIf */\012EIF[ ]	/* EndIf */\012EIF[ ]	/* EndIf */\012EIF[ ]	/* EndIf */\012EIF[ ]	/* EndIf */\012NPUSHB[ ]	/* 23 values pushed */\0121 0 49 47 36 34 32 31 25 23 17 16 14 13 4 2 0 51 1 50 9 8 22 \012CALL[ ]	/* CallFunction */";
};
width = 965;
}
);
note = r;
unicode = 0072;
},
{
glyphname = s;
layers = (
{
layerId = "B9B2530D-1BC0-47AE-88F4-2EE543D2AECB";
paths = (
{
closed = 1;
nodes = (
"430 -20 LINE",
"430 -20 LINE",
"521 -20 OFFCURVE",
"670 20 OFFCURVE",
"776 101 OFFCURVE",
"834 221 OFFCURVE",
"834 301 QCURVE SMOOTH",
"834 365 OFFCURVE",
"798 463 OFFCURVE",
"723 541 OFFCURVE",
"607 607 OFFCURVE",
"526 641 QCURVE SMOOTH",
"458 669 OFFCURVE",
"361 714 OFFCURVE",
"300 762 OFFCURVE",
"272 819 OFFCURVE",
"272 858 QCURVE SMOOTH",
"272 894 OFFCURVE",
"294 954 OFFCURVE",
"341 998 OFFCURVE",
"415 1022 OFFCURVE",
"467 1022 QCURVE SMOOTH",
"558 1022 OFFCURVE",
"643 908 OFFCURVE",
"643 805 QCURVE",
"714 805 OFFCURVE",
"791 872 OFFCURVE",
"791 928 QCURVE SMOOTH",
"791 966 OFFCURVE",
"753 1035 OFFCURVE",
"677 1086 OFFCURVE",
"565 1116 OFFCURVE",
"492 1116 QCURVE SMOOTH",
"405 1116 OFFCURVE",
"263 1078 OFFCURVE",
"161 1005 OFFCURVE",
"106 897 OFFCURVE",
"106 827 QCURVE SMOOTH",
"106 760 OFFCURVE",
"144 663 OFFCURVE",
"220 587 OFFCURVE",
"337 522 OFFCURVE",
"416 487 QCURVE SMOOTH",
"490 455 OFFCURVE",
"588 405 OFFCURVE",
"645 357 OFFCURVE",
"668 302 OFFCURVE",
"668 264 QCURVE SMOOTH",
"668 223 OFFCURVE",
"638 154 OFFCURVE",
"581 105 OFFCURVE",
"497 78 OFFCURVE",
"442 78 QCURVE SMOOTH",
"380 78 OFFCURVE",
"295 119 OFFCURVE",
"243 190 OFFCURVE",
"221 284 OFFCURVE",
"221 338 QCURVE",
"203 338 OFFCURVE",
"158 325 OFFCURVE",
"119 293 OFFCURVE",
"92 238 OFFCURVE",
"92 197 QCURVE SMOOTH",
"92 143 OFFCURVE",
"140 62 OFFCURVE",
"228 7 OFFCURVE",
"353 -20 OFFCURVE",
"430 -20 QCURVE",
"430 -20 LINE"
);
}
);
userData = {
assembly = "NPUSHB[ ]	/* 47 values pushed */\0120 3 4 1 4 3 1 128 0 4 4 2 97 0 2 2 46 77 0 1 1 0 97 5 1 0 0 44 0 78 1 0 47 45 43 42 36 34 16 14 0 67 1 65 6 8 22 \012CALL[ ]	/* CallFunction */";
};
width = 924;
}
);
note = s;
unicode = 0073;
},
{
glyphname = t;
layers = (
{
layerId = "B9B2530D-1BC0-47AE-88F4-2EE543D2AECB";
paths = (
{
closed = 1;
nodes = (
"543 88 LINE",
"543 88 LINE",
"472 88 OFFCURVE",
"387 186 OFFCURVE",
"387 291 QCURVE SMOOTH",
"387 981 LINE",
"655 981 LINE",
"655 1098 LINE",
"387 1098 LINE",
"387 1350 LINE",
"293 1350 LINE",
"277 1271 OFFCURVE",
"234 1166 OFFCURVE",
"199 1128 QCURVE SMOOTH",
"165 1093 OFFCURVE",
"76 1063 OFFCURVE",
"39 1063 QCURVE",
"39 981 LINE",
"195 981 LINE",
"195 297 LINE SMOOTH",
"195 209 OFFCURVE",
"230 87 OFFCURVE",
"302 13 OFFCURVE",
"414 -20 OFFCURVE",
"492 -20 QCURVE SMOOTH",
"516 -20 OFFCURVE",
"570 -15 OFFCURVE",
"619 -6 OFFCURVE",
"661 6 OFFCURVE",
"674 12 QCURVE",
"674 102 LINE",
"642 96 OFFCURVE",
"580 88 OFFCURVE",
"543 88 QCURVE",
"543 88 LINE"
);
}
);
userData = {
assembly = "NPUSHB[ ]	/* 10 values pushed */\0123 1 0 2 4 1 1 0 2 76 \012MPPEM[ ]	/* MeasurePixelPerEm */\012PUSHB[ ]	/* 1 value pushed */\01229 \012LT[ ]	/* LessThan */\012IF[ ]	/* If */\012NPUSHB[ ]	/* 39 values pushed */\0120 4 5 4 133 6 1 2 2 5 95 0 5 5 40 77 6 1 2 2 3 97 0 3 3 40 77 7 1 0 0 1 97 0 1 1 44 1 78 \012ELSE[ ]	/* Else */\012NPUSHB[ ]	/* 34 values pushed */\0120 4 5 4 133 0 3 2 2 3 89 6 1 2 2 5 95 0 5 5 40 77 7 1 0 0 1 97 0 1 1 44 1 78 \012EIF[ ]	/* EndIf */\012NPUSHB[ ]	/* 21 values pushed */\0121 0 28 27 26 25 24 23 18 17 16 15 10 8 0 33 1 31 8 8 22 \012CALL[ ]	/* CallFunction */";
};
width = 721;
}
);
note = t;
unicode = 0074;
},
{
glyphname = u;
layers = (
{
layerId = "B9B2530D-1BC0-47AE-88F4-2EE543D2AECB";
paths = (
{
closed = 1;
nodes = (
"1079 223 LINE",
"1079 223 LINE",
"1079 1098 LINE",
"713 1098 LINE",
"713 1012 LINE",
"719 1012 LINE SMOOTH",
"754 1012 OFFCURVE",
"815 1002 OFFCURVE",
"860 971 OFFCURVE",
"887 912 OFFCURVE",
"887 864 QCURVE SMOOTH",
"887 442 LINE SMOOTH",
"887 368 OFFCURVE",
"857 246 OFFCURVE",
"794 159 OFFCURVE",
"697 111 OFFCURVE",
"629 111 QCURVE SMOOTH",
"567 111 OFFCURVE",
"484 148 OFFCURVE",
"435 220 OFFCURVE",
"414 324 OFFCURVE",
"414 391 QCURVE SMOOTH",
"414 1098 LINE",
"47 1098 LINE",
"47 1012 LINE",
"53 1012 LINE SMOOTH",
"87 1012 OFFCURVE",
"148 1002 OFFCURVE",
"194 972 OFFCURVE",
"221 917 OFFCURVE",
"221 872 QCURVE SMOOTH",
"221 381 LINE SMOOTH",
"221 276 OFFCURVE",
"266 124 OFFCURVE",
"352 26 OFFCURVE",
"478 -20 OFFCURVE",
"559 -20 QCURVE SMOOTH",
"609 -20 OFFCURVE",
"701 -5 OFFCURVE",
"785 36 OFFCURVE",
"860 108 OFFCURVE",
"891 166 QCURVE",
"901 166 LINE",
"928 0 LINE",
"1253 0 LINE",
"1253 86 LINE",
"1247 86 LINE SMOOTH",
"1213 86 OFFCURVE",
"1152 95 OFFCURVE",
"1106 123 OFFCURVE",
"1079 178 OFFCURVE",
"1079 223 QCURVE",
"1079 223 LINE"
);
}
);
userData = {
assembly = "PUSHB[ ]	/* 6 values pushed */\0129 1 5 3 1 76 \012MPPEM[ ]	/* MeasurePixelPerEm */\012PUSHB[ ]	/* 1 value pushed */\01210 \012LT[ ]	/* LessThan */\012IF[ ]	/* If */\012NPUSHB[ ]	/* 35 values pushed */\0126 1 3 3 4 95 7 1 4 4 40 77 0 5 5 1 97 2 1 1 1 38 77 0 0 0 1 97 2 1 1 1 38 1 78 \012ELSE[ ]	/* Else */\012MPPEM[ ]	/* MeasurePixelPerEm */\012PUSHB[ ]	/* 1 value pushed */\01214 \012LT[ ]	/* LessThan */\012IF[ ]	/* If */\012NPUSHB[ ]	/* 33 values pushed */\0126 1 3 3 4 95 7 1 4 4 40 77 0 0 0 1 95 0 1 1 38 77 0 5 5 2 97 0 2 2 44 2 78 \012ELSE[ ]	/* Else */\012MPPEM[ ]	/* MeasurePixelPerEm */\012PUSHB[ ]	/* 1 value pushed */\01221 \012LT[ ]	/* LessThan */\012IF[ ]	/* If */\012NPUSHB[ ]	/* 35 values pushed */\0126 1 3 3 4 95 7 1 4 4 40 77 0 5 5 1 97 2 1 1 1 38 77 0 0 0 1 97 2 1 1 1 38 1 78 \012ELSE[ ]	/* Else */\012MPPEM[ ]	/* MeasurePixelPerEm */\012PUSHB[ ]	/* 1 value pushed */\01223 \012LT[ ]	/* LessThan */\012IF[ ]	/* If */\012NPUSHB[ ]	/* 33 values pushed */\0126 1 3 3 4 95 7 1 4 4 40 77 0 0 0 1 95 0 1 1 38 77 0 5 5 2 97 0 2 2 44 2 78 \012ELSE[ ]	/* Else */\012MPPEM[ ]	/* MeasurePixelPerEm */\012PUSHB[ ]	/* 1 value pushed */\01225 \012LT[ ]	/* LessThan */\012IF[ ]	/* If */\012NPUSHB[ ]	/* 35 values pushed */\0126 1 3 3 4 95 7 1 4 4 40 77 0 5 5 1 97 2 1 1 1 38 77 0 0 0 1 97 2 1 1 1 38 1 78 \012ELSE[ ]	/* Else */\012NPUSHB[ ]	/* 33 values pushed */\0126 1 3 3 4 95 7 1 4 4 40 77 0 0 0 1 95 0 1 1 38 77 0 5 5 2 97 0 2 2 44 2 78 \012EIF[ ]	/* EndIf */\012EIF[ ]	/* EndIf */\012EIF[ ]	/* EndIf */\012EIF[ ]	/* EndIf */\012EIF[ ]	/* EndIf */\012NPUSHB[ ]	/* 11 values pushed */\01218 25 37 18 25 38 18 20 8 8 30 \012CALL[ ]	/* CallFunction */";
};
width = 1300;
}
);
note = u;
unicode = 0075;
},
{
glyphname = v;
layers = (
{
layerId = "B9B2530D-1BC0-47AE-88F4-2EE543D2AECB";
paths = (
{
closed = 1;
nodes = (
"8 1012 LINE",
"8 1012 LINE",
"14 1012 LINE SMOOTH",
"44 1012 OFFCURVE",
"88 1002 OFFCURVE",
"122 977 OFFCURVE",
"148 935 OFFCURVE",
"160 903 QCURVE SMOOTH",
"489 0 LINE",
"676 0 LINE",
"999 852 LINE SMOOTH",
"1018 901 OFFCURVE",
"1049 963 OFFCURVE",
"1083 999 OFFCURVE",
"1125 1012 OFFCURVE",
"1155 1012 QCURVE SMOOTH",
"1180 1012 LINE",
"1180 1098 LINE",
"741 1098 LINE",
"741 1012 LINE",
"756 1012 LINE SMOOTH",
"824 1012 OFFCURVE",
"891 964 OFFCURVE",
"891 911 QCURVE SMOOTH",
"891 894 OFFCURVE",
"882 848 OFFCURVE",
"872 823 QCURVE SMOOTH",
"725 424 LINE SMOOTH",
"711 387 OFFCURVE",
"680 307 OFFCURVE",
"651 230 OFFCURVE",
"628 165 OFFCURVE",
"623 143 QCURVE",
"616 143 LINE",
"612 169 OFFCURVE",
"592 244 OFFCURVE",
"567 328 OFFCURVE",
"539 415 OFFCURVE",
"526 451 QCURVE SMOOTH",
"387 838 LINE SMOOTH",
"379 861 OFFCURVE",
"371 896 OFFCURVE",
"371 913 QCURVE SMOOTH",
"371 964 OFFCURVE",
"432 1012 OFFCURVE",
"494 1012 QCURVE SMOOTH",
"520 1012 LINE",
"520 1098 LINE",
"8 1098 LINE",
"8 1012 LINE",
"8 1012 LINE"
);
}
);
userData = {
assembly = "NPUSHB[ ]	/* 42 values pushed */\01216 7 2 5 1 1 76 6 4 2 3 1 1 0 95 3 1 0 0 40 77 0 5 5 38 5 78 47 46 41 40 35 33 32 31 29 28 33 17 7 8 24 \012CALL[ ]	/* CallFunction */";
};
width = 1186;
}
);
note = v;
unicode = 0076;
},
{
glyphname = w;
layers = (
{
layerId = "B9B2530D-1BC0-47AE-88F4-2EE543D2AECB";
paths = (
{
closed = 1;
nodes = (
"975 1092 LINE",
"975 1092 LINE",
"846 1092 LINE",
"633 473 LINE SMOOTH",
"620 436 OFFCURVE",
"594 354 OFFCURVE",
"571 275 OFFCURVE",
"554 206 OFFCURVE",
"549 180 QCURVE",
"543 180 LINE",
"538 206 OFFCURVE",
"522 282 OFFCURVE",
"503 369 OFFCURVE",
"481 457 OFFCURVE",
"471 494 QCURVE SMOOTH",
"375 838 LINE SMOOTH",
"369 861 OFFCURVE",
"358 909 OFFCURVE",
"358 926 QCURVE SMOOTH",
"358 976 OFFCURVE",
"420 1012 OFFCURVE",
"481 1012 QCURVE SMOOTH",
"508 1012 LINE",
"508 1098 LINE",
"2 1098 LINE",
"2 1012 LINE",
"8 1012 LINE SMOOTH",
"38 1012 OFFCURVE",
"82 1002 OFFCURVE",
"116 977 OFFCURVE",
"142 935 OFFCURVE",
"154 903 QCURVE",
"422 0 LINE",
"584 0 LINE",
"874 856 LINE",
"911 721 LINE",
"1155 0 LINE",
"1319 0 LINE",
"1583 852 LINE SMOOTH",
"1598 903 OFFCURVE",
"1628 965 OFFCURVE",
"1663 1000 OFFCURVE",
"1707 1012 OFFCURVE",
"1737 1012 QCURVE SMOOTH",
"1763 1012 LINE",
"1763 1098 LINE",
"1325 1098 LINE",
"1325 1012 LINE",
"1339 1012 LINE SMOOTH",
"1408 1012 OFFCURVE",
"1475 964 OFFCURVE",
"1475 911 QCURVE SMOOTH",
"1475 894 OFFCURVE",
"1464 835 OFFCURVE",
"1456 809 QCURVE SMOOTH",
"1354 479 LINE SMOOTH",
"1323 380 OFFCURVE",
"1283 231 OFFCURVE",
"1274 180 QCURVE",
"1268 180 LINE",
"1263 206 OFFCURVE",
"1243 280 OFFCURVE",
"1219 363 OFFCURVE",
"1192 448 OFFCURVE",
"1180 485 QCURVE SMOOTH",
"975 1092 LINE",
"975 1092 LINE"
);
}
);
userData = {
assembly = "NPUSHB[ ]	/* 52 values pushed */\01256 47 31 6 4 3 0 1 76 7 5 2 3 0 0 1 95 8 6 2 1 1 40 77 4 1 3 3 38 3 78 64 63 45 43 42 41 39 38 33 32 29 28 23 21 20 19 17 16 9 8 22 \012CALL[ ]	/* CallFunction */";
};
width = 1765;
}
);
note = w;
unicode = 0077;
},
{
glyphname = x;
layers = (
{
layerId = "B9B2530D-1BC0-47AE-88F4-2EE543D2AECB";
paths = (
{
closed = 1;
nodes = (
"786 952 LINE",
"786 952 LINE",
"786 924 OFFCURVE",
"758 862 OFFCURVE",
"735 827 QCURVE SMOOTH",
"629 674 LINE",
"494 858 LINE SMOOTH",
"471 890 OFFCURVE",
"446 931 OFFCURVE",
"446 952 QCURVE SMOOTH",
"446 964 OFFCURVE",
"456 986 OFFCURVE",
"482 1003 OFFCURVE",
"528 1012 OFFCURVE",
"563 1012 QCURVE SMOOTH",
"569 1012 LINE",
"569 1098 LINE",
"49 1098 LINE",
"49 1012 LINE",
"76 1012 LINE SMOOTH",
"122 1012 OFFCURVE",
"207 956 OFFCURVE",
"252 903 QCURVE",
"510 551 LINE",
"252 217 LINE SMOOTH",
"222 179 OFFCURVE",
"172 128 OFFCURVE",
"122 98 OFFCURVE",
"66 86 OFFCURVE",
"29 86 QCURVE SMOOTH",
"10 86 LINE",
"10 0 LINE",
"498 0 LINE",
"498 86 LINE",
"492 86 LINE SMOOTH",
"423 86 OFFCURVE",
"365 115 OFFCURVE",
"365 150 QCURVE SMOOTH",
"365 166 OFFCURVE",
"375 201 OFFCURVE",
"391 235 OFFCURVE",
"411 267 OFFCURVE",
"420 279 QCURVE SMOOTH",
"563 479 LINE",
"700 295 LINE SMOOTH",
"724 263 OFFCURVE",
"754 219 OFFCURVE",
"772 188 OFFCURVE",
"778 165 OFFCURVE",
"778 154 QCURVE SMOOTH",
"778 86 OFFCURVE",
"655 86 QCURVE SMOOTH",
"645 86 LINE",
"645 0 LINE",
"1174 0 LINE",
"1174 86 LINE",
"1147 86 LINE SMOOTH",
"1109 86 OFFCURVE",
"1028 135 OFFCURVE",
"983 195 QCURVE SMOOTH",
"682 600 LINE",
"893 881 LINE SMOOTH",
"924 922 OFFCURVE",
"974 974 OFFCURVE",
"1021 1002 OFFCURVE",
"1070 1012 OFFCURVE",
"1100 1012 QCURVE SMOOTH",
"1118 1012 LINE",
"1118 1098 LINE",
"670 1098 LINE",
"670 1012 LINE",
"676 1012 LINE SMOOTH",
"723 1012 OFFCURVE",
"786 989 OFFCURVE",
"786 952 QCURVE",
"786 952 LINE"
);
}
);
userData = {
assembly = "NPUSHB[ ]	/* 57 values pushed */\01269 51 31 25 14 5 3 0 1 76 11 9 2 3 0 0 1 95 10 1 1 1 40 77 8 6 5 3 3 3 4 95 7 1 4 4 38 4 78 61 59 58 57 56 54 33 18 31 33 17 40 33 18 18 12 8 31 \012CALL[ ]	/* CallFunction */";
};
width = 1184;
}
);
note = x;
unicode = 0078;
},
{
glyphname = y;
layers = (
{
layerId = "B9B2530D-1BC0-47AE-88F4-2EE543D2AECB";
paths = (
{
closed = 1;
nodes = (
"1157 1098 LINE",
"1157 1098 LINE",
"731 1098 LINE",
"731 1012 LINE",
"737 1012 LINE SMOOTH",
"805 1012 OFFCURVE",
"872 964 OFFCURVE",
"872 911 QCURVE SMOOTH",
"872 894 OFFCURVE",
"863 848 OFFCURVE",
"854 823 QCURVE SMOOTH",
"717 424 LINE SMOOTH",
"691 350 OFFCURVE",
"652 221 OFFCURVE",
"641 176 QCURVE",
"635 176 LINE",
"631 202 OFFCURVE",
"609 274 OFFCURVE",
"582 355 OFFCURVE",
"551 438 OFFCURVE",
"537 473 QCURVE SMOOTH",
"387 838 LINE SMOOTH",
"378 861 OFFCURVE",
"371 896 OFFCURVE",
"371 913 QCURVE SMOOTH",
"371 964 OFFCURVE",
"432 1012 OFFCURVE",
"494 1012 QCURVE SMOOTH",
"500 1012 LINE",
"500 1098 LINE",
"8 1098 LINE",
"8 1012 LINE",
"14 1012 LINE SMOOTH",
"44 1012 OFFCURVE",
"87 1002 OFFCURVE",
"120 976 OFFCURVE",
"146 935 OFFCURVE",
"160 903 QCURVE SMOOTH",
"539 8 LINE",
"514 -78 OFFCURVE",
"441 -225 OFFCURVE",
"332 -333 OFFCURVE",
"182 -395 OFFCURVE",
"78 -395 QCURVE",
"78 -492 LINE",
"96 -492 LINE SMOOTH",
"187 -492 OFFCURVE",
"325 -476 OFFCURVE",
"431 -434 OFFCURVE",
"514 -364 OFFCURVE",
"584 -257 OFFCURVE",
"648 -107 OFFCURVE",
"684 -8 QCURVE SMOOTH",
"995 852 LINE SMOOTH",
"1013 901 OFFCURVE",
"1043 963 OFFCURVE",
"1078 999 OFFCURVE",
"1121 1012 OFFCURVE",
"1151 1012 QCURVE SMOOTH",
"1157 1012 LINE",
"1157 1098 LINE",
"1157 1098 LINE"
);
}
);
userData = {
assembly = "NPUSHB[ ]	/* 46 values pushed */\01245 36 22 3 2 0 1 76 6 5 3 3 0 0 4 95 7 1 4 4 40 77 0 2 2 1 97 0 1 1 42 1 78 59 58 56 55 33 18 25 18 27 33 8 8 28 \012CALL[ ]	/* CallFunction */";
};
width = 1157;
}
);
note = y;
unicode = 0079;
},
{
glyphname = z;
layers = (
{
layerId = "B9B2530D-1BC0-47AE-88F4-2EE543D2AECB";
paths = (
{
closed = 1;
nodes = (
"696 117 LINE",
"696 117 LINE",
"324 117 LINE",
"920 1014 LINE",
"920 1098 LINE",
"135 1098 LINE",
"115 807 LINE",
"201 807 LINE",
"203 815 LINE SMOOTH",
"214 856 OFFCURVE",
"235 918 OFFCURVE",
"268 960 OFFCURVE",
"320 981 OFFCURVE",
"360 981 QCURVE SMOOTH",
"680 981 LINE",
"86 82 LINE",
"86 0 LINE",
"922 0 LINE",
"932 332 LINE",
"846 332 LINE",
"836 285 LINE SMOOTH",
"829 252 OFFCURVE",
"810 191 OFFCURVE",
"779 145 OFFCURVE",
"732 117 OFFCURVE",
"696 117 QCURVE",
"696 117 LINE"
);
}
);
userData = {
assembly = "NPUSHB[ ]	/* 14 values pushed */\01222 1 3 4 19 1 1 3 10 1 2 0 3 76 \012MPPEM[ ]	/* MeasurePixelPerEm */\012PUSHB[ ]	/* 1 value pushed */\01212 \012LT[ ]	/* LessThan */\012IF[ ]	/* If */\012NPUSHB[ ]	/* 29 values pushed */\0120 1 3 0 0 1 114 0 3 3 4 95 0 4 4 40 77 5 1 0 0 2 96 0 2 2 38 2 78 \012ELSE[ ]	/* Else */\012NPUSHB[ ]	/* 30 values pushed */\0120 1 3 0 3 1 0 128 0 3 3 4 95 0 4 4 40 77 5 1 0 0 2 96 0 2 2 38 2 78 \012EIF[ ]	/* EndIf */\012NPUSHB[ ]	/* 17 values pushed */\0121 0 21 20 13 11 9 8 7 6 0 25 1 23 6 8 22 \012CALL[ ]	/* CallFunction */";
};
width = 1047;
}
);
note = z;
unicode = 007A;
},
{
glyphname = braceleft;
layers = (
{
layerId = "B9B2530D-1BC0-47AE-88F4-2EE543D2AECB";
paths = (
{
closed = 1;
nodes = (
"639 -262 LINE",
"639 -262 LINE",
"774 -262 LINE",
"774 -174 LINE",
"713 -174 LINE SMOOTH",
"622 -174 OFFCURVE",
"545 -64 OFFCURVE",
"545 41 QCURVE SMOOTH",
"545 395 LINE SMOOTH",
"545 497 OFFCURVE",
"435 629 OFFCURVE",
"317 649 QCURVE",
"317 651 LINE",
"432 670 OFFCURVE",
"545 803 OFFCURVE",
"545 903 QCURVE SMOOTH",
"545 1253 LINE SMOOTH",
"545 1360 OFFCURVE",
"622 1468 OFFCURVE",
"713 1468 QCURVE SMOOTH",
"774 1468 LINE",
"774 1556 LINE",
"639 1556 LINE SMOOTH",
"493 1556 OFFCURVE",
"344 1404 OFFCURVE",
"344 1264 QCURVE SMOOTH",
"344 907 LINE SMOOTH",
"344 845 OFFCURVE",
"307 763 OFFCURVE",
"241 714 OFFCURVE",
"153 694 OFFCURVE",
"102 692 QCURVE",
"102 606 LINE",
"153 604 OFFCURVE",
"241 583 OFFCURVE",
"307 534 OFFCURVE",
"344 452 OFFCURVE",
"344 389 QCURVE SMOOTH",
"344 33 LINE SMOOTH",
"344 -35 OFFCURVE",
"382 -144 OFFCURVE",
"456 -220 OFFCURVE",
"567 -262 OFFCURVE",
"639 -262 QCURVE",
"639 -262 LINE"
);
}
);
userData = {
assembly = "NPUSHB[ ]	/* 52 values pushed */\01231 1 1 2 1 76 0 2 0 1 5 2 1 105 0 5 6 1 0 5 0 101 0 4 4 3 97 0 3 3 39 4 78 1 0 40 38 25 23 22 20 13 12 11 10 0 43 1 41 7 8 22 \012CALL[ ]	/* CallFunction */";
};
width = 877;
}
);
note = braceleft;
unicode = 007B;
},
{
glyphname = bar;
layers = (
{
layerId = "B9B2530D-1BC0-47AE-88F4-2EE543D2AECB";
paths = (
{
closed = 1;
nodes = (
"633 1556 LINE",
"510 1556 LINE",
"510 -492 LINE",
"633 -492 LINE",
"633 -492 LINE"
);
}
);
userData = {
assembly = "NPUSHB[ ]	/* 16 values pushed */\0120 1 1 39 77 0 0 0 42 0 78 17 16 2 8 24 \012CALL[ ]	/* CallFunction */";
};
width = 1145;
}
);
note = bar;
unicode = 007C;
},
{
glyphname = braceright;
layers = (
{
layerId = "B9B2530D-1BC0-47AE-88F4-2EE543D2AECB";
paths = (
{
closed = 1;
nodes = (
"102 -174 LINE",
"102 -174 LINE",
"102 -262 LINE",
"238 -262 LINE SMOOTH",
"310 -262 OFFCURVE",
"420 -220 OFFCURVE",
"494 -144 OFFCURVE",
"532 -35 OFFCURVE",
"532 33 QCURVE SMOOTH",
"532 389 LINE SMOOTH",
"532 452 OFFCURVE",
"570 534 OFFCURVE",
"635 583 OFFCURVE",
"723 604 OFFCURVE",
"774 606 QCURVE",
"774 692 LINE",
"723 694 OFFCURVE",
"635 714 OFFCURVE",
"570 763 OFFCURVE",
"532 845 OFFCURVE",
"532 907 QCURVE SMOOTH",
"532 1264 LINE SMOOTH",
"532 1404 OFFCURVE",
"383 1556 OFFCURVE",
"238 1556 QCURVE SMOOTH",
"102 1556 LINE",
"102 1468 LINE",
"164 1468 LINE SMOOTH",
"255 1468 OFFCURVE",
"332 1360 OFFCURVE",
"332 1253 QCURVE SMOOTH",
"332 903 LINE SMOOTH",
"332 803 OFFCURVE",
"445 670 OFFCURVE",
"559 651 QCURVE",
"559 649 LINE",
"441 629 OFFCURVE",
"332 497 OFFCURVE",
"332 395 QCURVE SMOOTH",
"332 41 LINE SMOOTH",
"332 -64 OFFCURVE",
"255 -174 OFFCURVE",
"164 -174 QCURVE SMOOTH",
"102 -174 LINE",
"102 -174 LINE"
);
}
);
userData = {
assembly = "NPUSHB[ ]	/* 52 values pushed */\0128 1 4 3 1 76 0 3 0 4 0 3 4 105 6 1 0 0 5 0 5 101 0 1 1 2 97 0 2 2 39 1 78 2 0 41 39 30 29 28 27 20 18 17 15 0 43 2 42 7 8 22 \012CALL[ ]	/* CallFunction */";
};
width = 877;
}
);
note = braceright;
unicode = 007D;
},
{
glyphname = asciitilde;
layers = (
{
layerId = "B9B2530D-1BC0-47AE-88F4-2EE543D2AECB";
paths = (
{
closed = 1;
nodes = (
"774 551 LINE",
"774 551 LINE",
"847 551 OFFCURVE",
"940 615 OFFCURVE",
"997 717 OFFCURVE",
"1025 845 OFFCURVE",
"1032 909 QCURVE",
"909 909 LINE",
"895 795 OFFCURVE",
"841 672 OFFCURVE",
"784 672 QCURVE SMOOTH",
"763 672 OFFCURVE",
"721 689 OFFCURVE",
"680 717 OFFCURVE",
"638 754 OFFCURVE",
"616 774 QCURVE SMOOTH",
"592 795 OFFCURVE",
"535 843 OFFCURVE",
"471 883 OFFCURVE",
"403 909 OFFCURVE",
"369 909 QCURVE SMOOTH",
"293 909 OFFCURVE",
"198 845 OFFCURVE",
"142 743 OFFCURVE",
"117 615 OFFCURVE",
"111 551 QCURVE",
"231 551 LINE",
"242 672 OFFCURVE",
"300 788 OFFCURVE",
"360 788 QCURVE SMOOTH",
"383 788 OFFCURVE",
"427 770 OFFCURVE",
"470 740 OFFCURVE",
"514 701 OFFCURVE",
"537 680 QCURVE SMOOTH",
"560 659 OFFCURVE",
"617 614 OFFCURVE",
"680 576 OFFCURVE",
"744 551 OFFCURVE",
"774 551 QCURVE",
"774 551 LINE"
);
}
);
userData = {
assembly = "PUSHB[ ]	/* 2 values pushed */\0126 100 \012WCVTP[ ]	/* WriteCVTInPixels */\012NPUSHB[ ]	/* 46 values pushed */\0125 1 3 0 1 4 3 1 105 0 4 0 0 4 89 0 4 4 0 97 2 6 2 0 4 0 81 1 0 33 32 30 28 20 18 14 13 11 9 0 39 1 37 7 8 22 \012CALL[ ]	/* CallFunction */\012PUSHB[ ]	/* 2 values pushed */\0126 0 \012WCVTP[ ]	/* WriteCVTInPixels */";
};
width = 1145;
}
);
note = asciitilde;
unicode = 007E;
},
{
glyphname = exclamdown;
layers = (
{
layerId = "B9B2530D-1BC0-47AE-88F4-2EE543D2AECB";
paths = (
{
closed = 1;
nodes = (
"469 971 LINE",
"469 971 LINE",
"469 1010 OFFCURVE",
"449 1063 OFFCURVE",
"414 1096 OFFCURVE",
"367 1110 OFFCURVE",
"340 1110 QCURVE SMOOTH",
"314 1110 OFFCURVE",
"267 1096 OFFCURVE",
"232 1063 OFFCURVE",
"211 1010 OFFCURVE",
"211 971 QCURVE SMOOTH",
"211 931 OFFCURVE",
"232 877 OFFCURVE",
"267 845 OFFCURVE",
"314 831 OFFCURVE",
"340 831 QCURVE SMOOTH",
"367 831 OFFCURVE",
"414 845 OFFCURVE",
"449 877 OFFCURVE",
"469 931 OFFCURVE",
"469 971 QCURVE",
"469 971 LINE"
);
},
{
closed = 1;
nodes = (
"387 684 LINE",
"293 684 LINE",
"221 -367 LINE",
"459 -367 LINE",
"459 -367 LINE"
);
}
);
userData = {
assembly = "NPUSHB[ ]	/* 25 values pushed */\0120 3 0 2 3 2 99 0 0 0 1 97 0 1 1 46 0 78 17 22 40 36 4 8 26 \012CALL[ ]	/* CallFunction */";
};
width = 682;
}
);
note = exclamdown;
unicode = 00A1;
},
{
glyphname = cent;
layers = (
{
layerId = "B9B2530D-1BC0-47AE-88F4-2EE543D2AECB";
paths = (
{
closed = 1;
nodes = (
"584 180 LINE",
"584 180 LINE",
"584 0 LINE",
"686 0 LINE",
"686 176 LINE",
"777 178 OFFCURVE",
"930 222 OFFCURVE",
"983 250 QCURVE",
"983 362 LINE",
"959 351 OFFCURVE",
"891 328 OFFCURVE",
"813 309 OFFCURVE",
"728 297 OFFCURVE",
"686 297 QCURVE",
"686 1206 LINE",
"724 1199 OFFCURVE",
"780 1157 OFFCURVE",
"816 1096 OFFCURVE",
"834 1019 OFFCURVE",
"834 977 QCURVE",
"925 977 OFFCURVE",
"1016 1035 OFFCURVE",
"1016 1106 QCURVE SMOOTH",
"1016 1154 OFFCURVE",
"957 1228 OFFCURVE",
"863 1279 OFFCURVE",
"745 1308 OFFCURVE",
"686 1313 QCURVE",
"686 1462 LINE",
"584 1462 LINE",
"584 1313 LINE",
"496 1305 OFFCURVE",
"342 1238 OFFCURVE",
"228 1103 OFFCURVE",
"162 891 OFFCURVE",
"162 739 QCURVE SMOOTH",
"162 597 OFFCURVE",
"224 394 OFFCURVE",
"336 261 OFFCURVE",
"491 190 OFFCURVE",
"584 180 QCURVE",
"584 180 LINE"
);
},
{
closed = 1;
nodes = (
"360 741 LINE",
"360 741 LINE",
"360 862 OFFCURVE",
"393 1031 OFFCURVE",
"453 1140 OFFCURVE",
"535 1197 OFFCURVE",
"584 1206 QCURVE",
"584 309 LINE",
"469 340 OFFCURVE",
"360 558 OFFCURVE",
"360 741 QCURVE",
"360 741 LINE"
);
}
);
userData = {
assembly = "NPUSHB[ ]	/* 54 values pushed */\01245 26 13 10 4 1 0 44 32 2 2 1 39 33 2 3 2 3 76 0 1 0 2 0 1 2 128 0 2 0 3 4 2 3 105 0 0 0 37 77 0 4 4 38 4 78 17 23 22 24 27 5 8 27 \012CALL[ ]	/* CallFunction */";
};
width = 1145;
}
);
note = cent;
unicode = 00A2;
},
{
glyphname = sterling;
layers = (
{
layerId = "B9B2530D-1BC0-47AE-88F4-2EE543D2AECB";
paths = (
{
closed = 1;
nodes = (
"500 690 LINE",
"500 690 LINE",
"819 690 LINE",
"819 786 LINE",
"471 786 LINE",
"459 816 OFFCURVE",
"431 891 OFFCURVE",
"407 976 OFFCURVE",
"391 1068 OFFCURVE",
"391 1116 QCURVE SMOOTH",
"391 1244 OFFCURVE",
"502 1380 OFFCURVE",
"621 1380 QCURVE SMOOTH",
"686 1380 OFFCURVE",
"767 1334 OFFCURVE",
"812 1261 OFFCURVE",
"829 1168 OFFCURVE",
"829 1120 QCURVE",
"904 1120 OFFCURVE",
"991 1187 OFFCURVE",
"991 1253 QCURVE SMOOTH",
"991 1302 OFFCURVE",
"952 1386 OFFCURVE",
"866 1448 OFFCURVE",
"728 1483 OFFCURVE",
"629 1483 QCURVE SMOOTH",
"532 1483 OFFCURVE",
"377 1433 OFFCURVE",
"269 1338 OFFCURVE",
"211 1200 OFFCURVE",
"211 1112 QCURVE SMOOTH",
"211 1070 OFFCURVE",
"225 981 OFFCURVE",
"247 896 OFFCURVE",
"275 818 OFFCURVE",
"289 786 QCURVE",
"100 786 LINE",
"100 690 LINE",
"328 690 LINE",
"349 634 OFFCURVE",
"379 519 OFFCURVE",
"379 459 QCURVE SMOOTH",
"379 398 OFFCURVE",
"341 294 OFFCURVE",
"281 209 OFFCURVE",
"206 144 OFFCURVE",
"168 121 QCURVE SMOOTH",
"131 98 LINE",
"131 -10 LINE",
"158 2 LINE SMOOTH",
"224 33 OFFCURVE",
"342 72 OFFCURVE",
"410 72 QCURVE SMOOTH",
"465 72 OFFCURVE",
"568 43 OFFCURVE",
"668 9 OFFCURVE",
"766 -20 OFFCURVE",
"817 -20 QCURVE SMOOTH",
"868 -20 OFFCURVE",
"951 8 OFFCURVE",
"1017 52 OFFCURVE",
"1067 106 OFFCURVE",
"1085 131 QCURVE",
"1085 264 LINE",
"1066 241 OFFCURVE",
"1021 198 OFFCURVE",
"967 164 OFFCURVE",
"906 143 OFFCURVE",
"870 143 QCURVE SMOOTH",
"839 143 OFFCURVE",
"750 167 OFFCURVE",
"653 197 OFFCURVE",
"555 221 OFFCURVE",
"514 221 QCURVE SMOOTH",
"480 221 OFFCURVE",
"407 204 OFFCURVE",
"365 184 QCURVE",
"360 193 LINE",
"442 248 OFFCURVE",
"541 383 OFFCURVE",
"541 471 QCURVE SMOOTH",
"541 533 OFFCURVE",
"515 639 OFFCURVE",
"500 690 QCURVE",
"500 690 LINE"
);
}
);
userData = {
assembly = "NPUSHB[ ]	/* 90 values pushed */\01220 1 0 4 6 1 1 0 36 21 2 3 1 35 1 2 3 4 76 0 7 8 5 8 7 5 128 0 0 4 1 4 0 1 128 0 3 1 2 1 3 2 128 9 1 5 10 1 4 0 5 4 103 0 8 8 6 97 0 6 6 43 77 0 1 1 2 97 0 2 2 44 2 78 82 81 80 79 36 22 41 17 29 35 41 35 41 11 8 31 \012CALL[ ]	/* CallFunction */";
};
width = 1145;
}
);
note = sterling;
unicode = 00A3;
},
{
glyphname = currency;
layers = (
{
layerId = "B9B2530D-1BC0-47AE-88F4-2EE543D2AECB";
paths = (
{
closed = 1;
nodes = (
"197 733 LINE",
"197 733 LINE",
"197 671 OFFCURVE",
"232 560 OFFCURVE",
"264 514 QCURVE",
"131 379 LINE",
"217 293 LINE",
"352 428 LINE",
"399 394 OFFCURVE",
"509 358 OFFCURVE",
"571 358 QCURVE SMOOTH",
"633 358 OFFCURVE",
"744 396 OFFCURVE",
"791 428 QCURVE",
"928 293 LINE",
"1012 379 LINE",
"877 514 LINE",
"911 560 OFFCURVE",
"948 671 OFFCURVE",
"948 733 QCURVE SMOOTH",
"948 795 OFFCURVE",
"911 906 OFFCURVE",
"877 952 QCURVE",
"1012 1087 LINE",
"926 1176 LINE",
"788 1038 LINE",
"742 1072 OFFCURVE",
"631 1110 OFFCURVE",
"571 1110 QCURVE SMOOTH",
"508 1110 OFFCURVE",
"397 1072 OFFCURVE",
"350 1038 QCURVE",
"217 1174 LINE",
"131 1087 LINE",
"266 952 LINE",
"232 906 OFFCURVE",
"197 795 OFFCURVE",
"197 733 QCURVE",
"197 733 LINE"
);
},
{
closed = 1;
nodes = (
"311 733 LINE",
"311 733 LINE",
"311 789 OFFCURVE",
"352 885 OFFCURVE",
"423 956 OFFCURVE",
"517 997 OFFCURVE",
"571 997 QCURVE SMOOTH",
"627 997 OFFCURVE",
"723 956 OFFCURVE",
"793 885 OFFCURVE",
"834 789 OFFCURVE",
"834 733 QCURVE SMOOTH",
"834 679 OFFCURVE",
"793 584 OFFCURVE",
"723 513 OFFCURVE",
"627 471 OFFCURVE",
"571 471 QCURVE SMOOTH",
"517 471 OFFCURVE",
"423 513 OFFCURVE",
"352 584 OFFCURVE",
"311 679 OFFCURVE",
"311 733 QCURVE",
"311 733 LINE"
);
}
);
userData = {
assembly = "NPUSHB[ ]	/* 61 values pushed */\01214 12 6 4 4 3 0 33 21 15 3 4 2 3 32 30 24 22 4 1 2 3 76 13 5 2 0 74 31 23 2 1 73 0 2 0 1 2 1 101 0 3 3 0 97 0 0 0 46 3 78 54 52 44 42 28 26 40 4 8 23 \012CALL[ ]	/* CallFunction */";
};
width = 1145;
}
);
note = currency;
unicode = 00A4;
},
{
glyphname = yen;
layers = (
{
layerId = "B9B2530D-1BC0-47AE-88F4-2EE543D2AECB";
paths = (
{
closed = 1;
nodes = (
"264 0 LINE",
"264 0 LINE",
"893 0 LINE",
"893 86 LINE",
"846 86 LINE SMOOTH",
"811 86 OFFCURVE",
"750 96 OFFCURVE",
"705 127 OFFCURVE",
"678 185 OFFCURVE",
"678 233 QCURVE SMOOTH",
"678 362 LINE",
"965 362 LINE",
"965 459 LINE",
"678 459 LINE",
"678 602 LINE",
"965 602 LINE",
"965 698 LINE",
"711 698 LINE",
"961 1217 LINE SMOOTH",
"984 1264 OFFCURVE",
"1019 1326 OFFCURVE",
"1052 1362 OFFCURVE",
"1090 1376 OFFCURVE",
"1116 1376 QCURVE SMOOTH",
"1135 1376 LINE",
"1135 1462 LINE",
"717 1462 LINE",
"717 1376 LINE",
"723 1376 LINE SMOOTH",
"791 1376 OFFCURVE",
"848 1336 OFFCURVE",
"848 1294 QCURVE SMOOTH",
"848 1271 OFFCURVE",
"823 1180 OFFCURVE",
"799 1126 QCURVE SMOOTH",
"682 877 LINE SMOOTH",
"672 856 OFFCURVE",
"647 803 OFFCURVE",
"624 752 OFFCURVE",
"606 709 OFFCURVE",
"602 698 QCURVE",
"596 718 OFFCURVE",
"576 780 OFFCURVE",
"551 852 OFFCURVE",
"523 926 OFFCURVE",
"508 958 QCURVE SMOOTH",
"410 1176 LINE SMOOTH",
"393 1211 OFFCURVE",
"377 1272 OFFCURVE",
"377 1296 QCURVE SMOOTH",
"377 1338 OFFCURVE",
"432 1376 OFFCURVE",
"494 1376 QCURVE SMOOTH",
"508 1376 LINE",
"508 1462 LINE",
"10 1462 LINE",
"10 1376 LINE",
"16 1376 LINE SMOOTH",
"46 1376 OFFCURVE",
"88 1365 OFFCURVE",
"121 1339 OFFCURVE",
"147 1298 OFFCURVE",
"162 1268 QCURVE SMOOTH",
"440 698 LINE",
"193 698 LINE",
"193 602 LINE",
"479 602 LINE",
"479 459 LINE",
"193 459 LINE",
"193 362 LINE",
"479 362 LINE",
"479 223 LINE SMOOTH",
"477 178 OFFCURVE",
"450 123 OFFCURVE",
"405 95 OFFCURVE",
"345 86 OFFCURVE",
"311 86 QCURVE SMOOTH",
"264 86 LINE",
"264 0 LINE",
"264 0 LINE"
);
}
);
userData = {
assembly = "NPUSHB[ ]	/* 80 values pushed */\01238 1 4 1 75 11 1 4 12 1 3 2 4 3 103 13 1 2 14 1 1 0 2 1 103 10 8 7 3 5 5 6 95 9 1 6 6 37 77 15 1 0 0 16 95 0 16 16 38 16 78 77 76 75 73 68 67 66 65 64 63 62 61 56 54 53 52 50 49 33 18 21 17 17 17 21 33 17 8 30 \012CALL[ ]	/* CallFunction */";
};
width = 1145;
}
);
note = yen;
unicode = 00A5;
},
{
glyphname = brokenbar;
layers = (
{
layerId = "B9B2530D-1BC0-47AE-88F4-2EE543D2AECB";
paths = (
{
closed = 1;
nodes = (
"633 1556 LINE",
"510 1556 LINE",
"510 737 LINE",
"633 737 LINE",
"633 737 LINE"
);
},
{
closed = 1;
nodes = (
"633 328 LINE",
"510 328 LINE",
"510 -492 LINE",
"633 -492 LINE",
"633 -492 LINE"
);
}
);
userData = {
assembly = "NPUSHB[ ]	/* 28 values pushed */\0120 0 0 1 95 0 1 1 39 77 0 3 3 2 95 0 2 2 42 2 78 17 17 17 16 4 8 26 \012CALL[ ]	/* CallFunction */";
};
width = 1145;
}
);
note = brokenbar;
unicode = 00A6;
},
{
glyphname = section;
layers = (
{
layerId = "B9B2530D-1BC0-47AE-88F4-2EE543D2AECB";
paths = (
{
closed = 1;
nodes = (
"598 795 LINE",
"598 795 LINE",
"680 754 OFFCURVE",
"783 685 OFFCURVE",
"840 621 OFFCURVE",
"860 559 OFFCURVE",
"860 524 QCURVE SMOOTH",
"860 490 OFFCURVE",
"838 432 OFFCURVE",
"821 408 QCURVE",
"772 451 OFFCURVE",
"652 514 OFFCURVE",
"590 545 QCURVE SMOOTH",
"502 588 OFFCURVE",
"387 654 OFFCURVE",
"319 717 OFFCURVE",
"291 782 OFFCURVE",
"291 823 QCURVE SMOOTH",
"291 864 OFFCURVE",
"320 920 OFFCURVE",
"342 940 QCURVE",
"395 898 OFFCURVE",
"524 830 OFFCURVE",
"598 795 QCURVE",
"598 795 LINE"
);
},
{
closed = 1;
nodes = (
"571 -133 LINE",
"571 -133 LINE",
"509 -133 OFFCURVE",
"420 -86 OFFCURVE",
"363 -8 OFFCURVE",
"336 93 OFFCURVE",
"336 147 QCURVE",
"318 147 OFFCURVE",
"273 134 OFFCURVE",
"234 101 OFFCURVE",
"207 46 OFFCURVE",
"207 4 QCURVE SMOOTH",
"207 -54 OFFCURVE",
"257 -142 OFFCURVE",
"349 -202 OFFCURVE",
"478 -233 OFFCURVE",
"557 -233 QCURVE SMOOTH",
"661 -233 OFFCURVE",
"810 -179 OFFCURVE",
"905 -82 OFFCURVE",
"950 52 OFFCURVE",
"950 133 QCURVE SMOOTH",
"950 196 OFFCURVE",
"916 296 OFFCURVE",
"887 336 QCURVE",
"911 360 OFFCURVE",
"955 419 OFFCURVE",
"989 486 OFFCURVE",
"1010 559 OFFCURVE",
"1010 596 QCURVE SMOOTH",
"1010 656 OFFCURVE",
"971 758 OFFCURVE",
"889 849 OFFCURVE",
"763 933 OFFCURVE",
"676 975 QCURVE SMOOTH",
"598 1013 OFFCURVE",
"480 1069 OFFCURVE",
"399 1128 OFFCURVE",
"358 1201 OFFCURVE",
"358 1255 QCURVE SMOOTH",
"358 1352 OFFCURVE",
"471 1454 OFFCURVE",
"573 1454 QCURVE SMOOTH",
"628 1454 OFFCURVE",
"703 1411 OFFCURVE",
"750 1340 OFFCURVE",
"770 1250 OFFCURVE",
"770 1202 QCURVE",
"836 1202 OFFCURVE",
"915 1261 OFFCURVE",
"915 1327 QCURVE SMOOTH",
"915 1376 OFFCURVE",
"874 1460 OFFCURVE",
"791 1521 OFFCURVE",
"666 1556 OFFCURVE",
"582 1556 QCURVE SMOOTH",
"501 1556 OFFCURVE",
"362 1513 OFFCURVE",
"262 1430 OFFCURVE",
"205 1309 OFFCURVE",
"205 1231 QCURVE SMOOTH",
"205 1157 OFFCURVE",
"243 1046 OFFCURVE",
"281 1001 QCURVE",
"228 964 OFFCURVE",
"160 849 OFFCURVE",
"160 772 QCURVE SMOOTH",
"160 711 OFFCURVE",
"193 606 OFFCURVE",
"265 514 OFFCURVE",
"380 431 OFFCURVE",
"461 391 QCURVE SMOOTH",
"581 332 OFFCURVE",
"724 251 OFFCURVE",
"799 184 OFFCURVE",
"821 117 OFFCURVE",
"821 72 QCURVE SMOOTH",
"821 -22 OFFCURVE",
"697 -133 OFFCURVE",
"571 -133 QCURVE",
"571 -133 LINE"
);
}
);
userData = {
assembly = "NPUSHB[ ]	/* 53 values pushed */\01279 40 14 3 4 0 2 1 76 0 2 3 0 3 2 0 128 5 1 0 0 4 0 4 101 0 3 3 1 97 0 1 1 39 3 78 25 24 88 86 62 60 56 55 49 47 24 103 25 101 6 8 22 \012CALL[ ]	/* CallFunction */";
};
width = 1114;
}
);
note = section;
unicode = 00A7;
},
{
glyphname = dieresis;
layers = (
{
layerId = "B9B2530D-1BC0-47AE-88F4-2EE543D2AECB";
paths = (
{
closed = 1;
nodes = (
"291 1409 LINE",
"291 1409 LINE",
"291 1346 OFFCURVE",
"350 1294 OFFCURVE",
"395 1294 QCURVE SMOOTH",
"417 1294 OFFCURVE",
"455 1306 OFFCURVE",
"484 1334 OFFCURVE",
"500 1378 OFFCURVE",
"500 1409 QCURVE SMOOTH",
"500 1441 OFFCURVE",
"484 1485 OFFCURVE",
"455 1512 OFFCURVE",
"417 1524 OFFCURVE",
"395 1524 QCURVE SMOOTH",
"373 1524 OFFCURVE",
"335 1512 OFFCURVE",
"307 1485 OFFCURVE",
"291 1441 OFFCURVE",
"291 1409 QCURVE",
"291 1409 LINE"
);
},
{
closed = 1;
nodes = (
"680 1409 LINE",
"680 1409 LINE",
"680 1346 OFFCURVE",
"739 1294 OFFCURVE",
"784 1294 QCURVE SMOOTH",
"806 1294 OFFCURVE",
"844 1306 OFFCURVE",
"873 1334 OFFCURVE",
"889 1378 OFFCURVE",
"889 1409 QCURVE SMOOTH",
"889 1441 OFFCURVE",
"873 1485 OFFCURVE",
"844 1512 OFFCURVE",
"806 1524 OFFCURVE",
"784 1524 QCURVE SMOOTH",
"762 1524 OFFCURVE",
"724 1512 OFFCURVE",
"696 1485 OFFCURVE",
"680 1441 OFFCURVE",
"680 1409 QCURVE",
"680 1409 LINE"
);
}
);
userData = {
assembly = "PUSHB[ ]	/* 2 values pushed */\0126 100 \012WCVTP[ ]	/* WriteCVTInPixels */\012NPUSHB[ ]	/* 26 values pushed */\0122 1 0 1 1 0 89 2 1 0 0 1 97 3 1 1 0 1 81 40 40 40 36 4 8 26 \012CALL[ ]	/* CallFunction */\012PUSHB[ ]	/* 2 values pushed */\0126 0 \012WCVTP[ ]	/* WriteCVTInPixels */";
};
width = 1182;
}
);
note = dieresis;
unicode = 00A8;
},
{
glyphname = copyright;
layers = (
{
layerId = "B9B2530D-1BC0-47AE-88F4-2EE543D2AECB";
paths = (
{
closed = 1;
nodes = (
"901 365 LINE",
"901 365 LINE",
"771 365 OFFCURVE",
"633 556 OFFCURVE",
"633 733 QCURVE SMOOTH",
"633 822 OFFCURVE",
"662 958 OFFCURVE",
"726 1052 OFFCURVE",
"827 1100 OFFCURVE",
"899 1100 QCURVE SMOOTH",
"940 1100 OFFCURVE",
"995 1073 OFFCURVE",
"1029 1028 OFFCURVE",
"1044 973 OFFCURVE",
"1044 944 QCURVE",
"1073 944 OFFCURVE",
"1124 957 OFFCURVE",
"1162 982 OFFCURVE",
"1184 1018 OFFCURVE",
"1184 1040 QCURVE SMOOTH",
"1184 1071 OFFCURVE",
"1149 1124 OFFCURVE",
"1079 1163 OFFCURVE",
"974 1186 OFFCURVE",
"903 1186 QCURVE SMOOTH",
"795 1186 OFFCURVE",
"632 1119 OFFCURVE",
"521 999 OFFCURVE",
"465 833 OFFCURVE",
"465 733 QCURVE SMOOTH",
"465 630 OFFCURVE",
"516 462 OFFCURVE",
"619 342 OFFCURVE",
"772 276 OFFCURVE",
"874 276 QCURVE SMOOTH",
"951 276 OFFCURVE",
"1066 306 OFFCURVE",
"1143 354 OFFCURVE",
"1182 412 OFFCURVE",
"1182 440 QCURVE SMOOTH",
"1182 462 OFFCURVE",
"1165 495 OFFCURVE",
"1153 504 QCURVE",
"1139 479 OFFCURVE",
"1092 429 OFFCURVE",
"1028 389 OFFCURVE",
"948 365 OFFCURVE",
"901 365 QCURVE",
"901 365 LINE"
);
},
{
closed = 1;
nodes = (
"113 731 LINE",
"113 731 LINE",
"113 627 OFFCURVE",
"167 435 OFFCURVE",
"264 268 OFFCURVE",
"401 131 OFFCURVE",
"568 33 OFFCURVE",
"760 -20 OFFCURVE",
"864 -20 QCURVE SMOOTH",
"968 -20 OFFCURVE",
"1161 33 OFFCURVE",
"1328 131 OFFCURVE",
"1466 268 OFFCURVE",
"1564 435 OFFCURVE",
"1618 627 OFFCURVE",
"1618 731 QCURVE SMOOTH",
"1618 835 OFFCURVE",
"1564 1028 OFFCURVE",
"1466 1195 OFFCURVE",
"1328 1333 OFFCURVE",
"1161 1431 OFFCURVE",
"968 1485 OFFCURVE",
"864 1485 QCURVE SMOOTH",
"760 1485 OFFCURVE",
"568 1431 OFFCURVE",
"401 1333 OFFCURVE",
"264 1195 OFFCURVE",
"167 1028 OFFCURVE",
"113 835 OFFCURVE",
"113 731 QCURVE",
"113 731 LINE"
);
},
{
closed = 1;
nodes = (
"225 731 LINE",
"225 731 LINE",
"225 820 OFFCURVE",
"271 983 OFFCURVE",
"354 1126 OFFCURVE",
"471 1243 OFFCURVE",
"613 1326 OFFCURVE",
"776 1372 OFFCURVE",
"864 1372 QCURVE SMOOTH",
"953 1372 OFFCURVE",
"1117 1326 OFFCURVE",
"1259 1243 OFFCURVE",
"1376 1126 OFFCURVE",
"1459 983 OFFCURVE",
"1505 819 OFFCURVE",
"1505 731 QCURVE SMOOTH",
"1505 643 OFFCURVE",
"1459 480 OFFCURVE",
"1376 338 OFFCURVE",
"1259 221 OFFCURVE",
"1117 138 OFFCURVE",
"953 92 OFFCURVE",
"864 92 QCURVE SMOOTH",
"776 92 OFFCURVE",
"613 138 OFFCURVE",
"471 221 OFFCURVE",
"354 338 OFFCURVE",
"271 480 OFFCURVE",
"225 643 OFFCURVE",
"225 731 QCURVE",
"225 731 LINE"
);
}
);
userData = {
assembly = "PUSHB[ ]	/* 2 values pushed */\0126 100 \012WCVTP[ ]	/* WriteCVTInPixels */\012NPUSHB[ ]	/* 80 values pushed */\0125 1 0 3 1 76 0 3 4 0 4 3 0 128 0 5 0 8 2 5 8 105 0 2 0 4 3 2 4 105 9 1 0 0 1 7 0 1 105 0 7 6 6 7 89 0 7 7 6 97 0 6 7 6 81 1 0 100 98 86 84 70 68 56 54 39 37 33 32 24 22 14 12 0 47 1 45 10 8 22 \012CALL[ ]	/* CallFunction */\012PUSHB[ ]	/* 2 values pushed */\0126 0 \012WCVTP[ ]	/* WriteCVTInPixels */";
};
width = 1731;
}
);
note = copyright;
unicode = 00A9;
},
{
glyphname = ordfeminine;
layers = (
{
layerId = "B9B2530D-1BC0-47AE-88F4-2EE543D2AECB";
paths = (
{
closed = 1;
nodes = (
"250 985 LINE",
"250 985 LINE",
"250 1019 OFFCURVE",
"268 1071 OFFCURVE",
"309 1108 OFFCURVE",
"376 1129 OFFCURVE",
"426 1130 QCURVE SMOOTH",
"489 1133 LINE",
"489 1036 LINE SMOOTH",
"489 1000 OFFCURVE",
"469 940 OFFCURVE",
"432 896 OFFCURVE",
"378 872 OFFCURVE",
"344 872 QCURVE SMOOTH",
"304 872 OFFCURVE",
"250 921 OFFCURVE",
"250 985 QCURVE",
"250 985 LINE"
);
},
{
closed = 1;
nodes = (
"387 1397 LINE",
"387 1397 LINE",
"421 1397 OFFCURVE",
"461 1376 OFFCURVE",
"482 1339 OFFCURVE",
"489 1288 OFFCURVE",
"489 1257 QCURVE SMOOTH",
"489 1198 LINE",
"401 1194 LINE SMOOTH",
"234 1186 OFFCURVE",
"72 1089 OFFCURVE",
"72 987 QCURVE SMOOTH",
"72 884 OFFCURVE",
"186 778 OFFCURVE",
"285 778 QCURVE SMOOTH",
"324 778 OFFCURVE",
"388 796 OFFCURVE",
"441 826 OFFCURVE",
"484 865 OFFCURVE",
"502 885 QCURVE",
"512 885 LINE",
"549 791 LINE",
"748 791 LINE",
"748 860 LINE",
"698 860 OFFCURVE",
"659 894 OFFCURVE",
"659 940 QCURVE SMOOTH",
"659 1251 LINE SMOOTH",
"659 1312 OFFCURVE",
"626 1396 OFFCURVE",
"559 1449 OFFCURVE",
"459 1473 OFFCURVE",
"391 1473 QCURVE SMOOTH",
"337 1473 OFFCURVE",
"241 1459 OFFCURVE",
"169 1429 OFFCURVE",
"127 1381 OFFCURVE",
"127 1346 QCURVE SMOOTH",
"127 1298 OFFCURVE",
"211 1257 OFFCURVE",
"289 1257 QCURVE",
"289 1286 OFFCURVE",
"297 1337 OFFCURVE",
"318 1375 OFFCURVE",
"356 1397 OFFCURVE",
"387 1397 QCURVE",
"387 1397 LINE"
);
}
);
userData = {
assembly = "PUSHB[ ]	/* 6 values pushed */\01242 1 0 1 1 76 \012MPPEM[ ]	/* MeasurePixelPerEm */\012PUSHB[ ]	/* 1 value pushed */\01238 \012LT[ ]	/* LessThan */\012IF[ ]	/* If */\012NPUSHB[ ]	/* 37 values pushed */\0120 3 2 8 2 3 8 128 0 8 0 1 0 8 1 105 5 1 0 7 1 6 0 6 101 9 1 2 2 4 97 0 4 4 66 2 78 \012ELSE[ ]	/* Else */\012MPPEM[ ]	/* MeasurePixelPerEm */\012PUSHB[ ]	/* 1 value pushed */\01241 \012LT[ ]	/* LessThan */\012IF[ ]	/* If */\012NPUSHB[ ]	/* 42 values pushed */\0120 3 2 8 2 3 8 128 0 8 0 1 0 8 1 105 0 6 7 0 6 87 5 1 0 0 7 0 7 101 9 1 2 2 4 97 0 4 4 66 2 78 \012ELSE[ ]	/* Else */\012MPPEM[ ]	/* MeasurePixelPerEm */\012PUSHB[ ]	/* 1 value pushed */\01250 \012LT[ ]	/* LessThan */\012IF[ ]	/* If */\012NPUSHB[ ]	/* 43 values pushed */\0120 3 2 8 2 3 8 128 0 8 0 1 0 8 1 105 0 5 0 6 7 5 6 103 0 0 0 7 0 7 101 9 1 2 2 4 97 0 4 4 66 2 78 \012ELSE[ ]	/* Else */\012NPUSHB[ ]	/* 49 values pushed */\0120 3 2 8 2 3 8 128 0 4 9 1 2 3 4 2 105 0 8 0 1 0 8 1 105 0 0 5 7 0 89 0 5 0 6 7 5 6 103 0 0 0 7 97 0 7 0 7 81 \012EIF[ ]	/* EndIf */\012EIF[ ]	/* EndIf */\012EIF[ ]	/* EndIf */\012NPUSHB[ ]	/* 23 values pushed */\01218 17 55 53 49 47 41 40 39 38 31 29 23 22 17 62 18 60 37 34 10 10 24 \012CALL[ ]	/* CallFunction */";
};
width = 782;
}
);
note = ordfeminine;
unicode = 00AA;
},
{
glyphname = guillemotleft;
layers = (
{
layerId = "B9B2530D-1BC0-47AE-88F4-2EE543D2AECB";
paths = (
{
closed = 1;
nodes = (
"133 520 LINE",
"446 164 LINE",
"549 164 LINE",
"342 553 LINE",
"549 942 LINE",
"446 942 LINE",
"133 586 LINE",
"133 586 LINE"
);
},
{
closed = 1;
nodes = (
"504 520 LINE",
"817 164 LINE",
"920 164 LINE",
"713 553 LINE",
"920 942 LINE",
"817 942 LINE",
"504 586 LINE",
"504 586 LINE"
);
}
);
userData = {
assembly = "NPUSHB[ ]	/* 37 values pushed */\01213 10 7 6 3 0 6 1 0 1 76 2 1 0 1 1 0 87 2 1 0 0 1 95 3 1 1 0 1 79 18 19 18 17 4 8 26 \012CALL[ ]	/* CallFunction */";
};
width = 1053;
}
);
note = guillemotleft;
unicode = 00AB;
},
{
glyphname = logicalnot;
layers = (
{
layerId = "B9B2530D-1BC0-47AE-88F4-2EE543D2AECB";
paths = (
{
closed = 1;
nodes = (
"133 793 LINE",
"133 672 LINE",
"889 672 LINE",
"889 252 LINE",
"1012 252 LINE",
"1012 793 LINE",
"1012 793 LINE"
);
}
);
userData = {
assembly = "NPUSHB[ ]	/* 34 values pushed */\0120 0 1 0 134 3 1 2 1 1 2 87 3 1 2 2 1 95 0 1 2 1 79 0 0 0 5 0 5 17 17 4 8 24 \012CALL[ ]	/* CallFunction */";
};
width = 1145;
}
);
note = logicalnot;
unicode = 00AC;
},
{
glyphname = registered;
layers = (
{
layerId = "B9B2530D-1BC0-47AE-88F4-2EE543D2AECB";
paths = (
{
closed = 1;
nodes = (
"477 358 LINE",
"477 358 LINE",
"477 289 LINE",
"887 289 LINE",
"887 358 LINE",
"858 358 LINE SMOOTH",
"838 358 OFFCURVE",
"803 363 OFFCURVE",
"776 378 OFFCURVE",
"760 406 OFFCURVE",
"758 430 QCURVE",
"758 670 LINE",
"866 670 LINE",
"1092 289 LINE",
"1309 289 LINE",
"1309 358 LINE",
"1284 358 OFFCURVE",
"1249 362 OFFCURVE",
"1223 374 OFFCURVE",
"1204 395 OFFCURVE",
"1194 412 QCURVE SMOOTH",
"1012 705 LINE",
"1047 716 OFFCURVE",
"1114 753 OFFCURVE",
"1166 807 OFFCURVE",
"1198 881 OFFCURVE",
"1198 930 QCURVE SMOOTH",
"1198 1174 OFFCURVE",
"846 1174 QCURVE SMOOTH",
"477 1174 LINE",
"477 1102 LINE",
"504 1102 LINE SMOOTH",
"524 1102 OFFCURVE",
"560 1098 OFFCURVE",
"587 1083 OFFCURVE",
"603 1054 OFFCURVE",
"604 1030 QCURVE SMOOTH",
"604 430 LINE SMOOTH",
"603 406 OFFCURVE",
"587 378 OFFCURVE",
"560 363 OFFCURVE",
"524 358 OFFCURVE",
"504 358 QCURVE SMOOTH",
"477 358 LINE",
"477 358 LINE"
);
},
{
closed = 1;
nodes = (
"758 748 LINE",
"758 748 LINE",
"758 1094 LINE",
"838 1094 LINE SMOOTH",
"892 1094 OFFCURVE",
"967 1076 OFFCURVE",
"1014 1037 OFFCURVE",
"1036 973 OFFCURVE",
"1036 928 QCURVE SMOOTH",
"1036 882 OFFCURVE",
"1017 814 OFFCURVE",
"973 770 OFFCURVE",
"899 748 OFFCURVE",
"844 748 QCURVE SMOOTH",
"758 748 LINE",
"758 748 LINE"
);
},
{
closed = 1;
nodes = (
"113 731 LINE",
"113 731 LINE",
"113 627 OFFCURVE",
"167 435 OFFCURVE",
"264 268 OFFCURVE",
"401 131 OFFCURVE",
"568 33 OFFCURVE",
"760 -20 OFFCURVE",
"864 -20 QCURVE SMOOTH",
"968 -20 OFFCURVE",
"1161 33 OFFCURVE",
"1328 131 OFFCURVE",
"1466 268 OFFCURVE",
"1564 435 OFFCURVE",
"1618 627 OFFCURVE",
"1618 731 QCURVE SMOOTH",
"1618 835 OFFCURVE",
"1564 1028 OFFCURVE",
"1466 1195 OFFCURVE",
"1328 1333 OFFCURVE",
"1161 1431 OFFCURVE",
"968 1485 OFFCURVE",
"864 1485 QCURVE SMOOTH",
"760 1485 OFFCURVE",
"568 1431 OFFCURVE",
"401 1333 OFFCURVE",
"264 1195 OFFCURVE",
"167 1028 OFFCURVE",
"113 835 OFFCURVE",
"113 731 QCURVE",
"113 731 LINE"
);
},
{
closed = 1;
nodes = (
"225 731 LINE",
"225 731 LINE",
"225 820 OFFCURVE",
"271 983 OFFCURVE",
"354 1126 OFFCURVE",
"471 1243 OFFCURVE",
"613 1326 OFFCURVE",
"776 1372 OFFCURVE",
"864 1372 QCURVE SMOOTH",
"953 1372 OFFCURVE",
"1117 1326 OFFCURVE",
"1259 1243 OFFCURVE",
"1376 1126 OFFCURVE",
"1459 983 OFFCURVE",
"1505 819 OFFCURVE",
"1505 731 QCURVE SMOOTH",
"1505 643 OFFCURVE",
"1459 480 OFFCURVE",
"1376 338 OFFCURVE",
"1259 221 OFFCURVE",
"1117 138 OFFCURVE",
"953 92 OFFCURVE",
"864 92 QCURVE SMOOTH",
"776 92 OFFCURVE",
"613 138 OFFCURVE",
"471 221 OFFCURVE",
"354 338 OFFCURVE",
"271 480 OFFCURVE",
"225 643 OFFCURVE",
"225 731 QCURVE",
"225 731 LINE"
);
}
);
userData = {
assembly = "PUSHB[ ]	/* 2 values pushed */\0126 100 \012WCVTP[ ]	/* WriteCVTInPixels */\012NPUSHB[ ]	/* 103 values pushed */\01222 1 5 8 33 1 0 5 2 76 0 10 0 13 2 10 13 105 0 2 9 1 1 8 2 1 105 15 1 8 0 5 0 8 5 103 6 3 14 3 0 7 1 4 12 0 4 103 0 12 11 11 12 89 0 12 12 11 97 0 11 12 11 81 46 44 2 0 111 109 97 95 81 79 67 65 56 54 44 58 46 57 41 40 39 37 32 31 30 29 28 27 16 14 13 11 0 43 2 42 16 8 22 \012CALL[ ]	/* CallFunction */\012PUSHB[ ]	/* 2 values pushed */\0126 0 \012WCVTP[ ]	/* WriteCVTInPixels */";
};
width = 1731;
}
);
note = registered;
unicode = 00AE;
},
{
glyphname = macron;
layers = (
{
layerId = "B9B2530D-1BC0-47AE-88F4-2EE543D2AECB";
paths = (
{
closed = 1;
nodes = (
"950 1677 LINE",
"-10 1677 LINE",
"-10 1556 LINE",
"950 1556 LINE",
"950 1556 LINE"
);
}
);
userData = {
assembly = "PUSHB[ ]	/* 2 values pushed */\0126 100 \012WCVTP[ ]	/* WriteCVTInPixels */\012NPUSHB[ ]	/* 21 values pushed */\0120 1 0 0 1 87 0 1 1 0 95 0 0 1 0 79 17 16 2 8 24 \012CALL[ ]	/* CallFunction */\012PUSHB[ ]	/* 2 values pushed */\0126 0 \012WCVTP[ ]	/* WriteCVTInPixels */";
};
width = 940;
}
);
note = macron;
unicode = 00AF;
},
{
glyphname = degree;
layers = (
{
layerId = "B9B2530D-1BC0-47AE-88F4-2EE543D2AECB";
paths = (
{
closed = 1;
nodes = (
"98 1151 LINE",
"98 1151 LINE",
"98 1087 OFFCURVE",
"147 974 OFFCURVE",
"231 890 OFFCURVE",
"344 842 OFFCURVE",
"408 842 QCURVE SMOOTH",
"473 842 OFFCURVE",
"586 890 OFFCURVE",
"670 974 OFFCURVE",
"719 1087 OFFCURVE",
"719 1151 QCURVE SMOOTH",
"719 1216 OFFCURVE",
"670 1329 OFFCURVE",
"586 1413 OFFCURVE",
"473 1462 OFFCURVE",
"408 1462 QCURVE SMOOTH",
"344 1462 OFFCURVE",
"231 1413 OFFCURVE",
"147 1329 OFFCURVE",
"98 1216 OFFCURVE",
"98 1151 QCURVE",
"98 1151 LINE"
);
},
{
closed = 1;
nodes = (
"221 1151 LINE",
"221 1151 LINE",
"221 1191 OFFCURVE",
"250 1260 OFFCURVE",
"301 1311 OFFCURVE",
"369 1341 OFFCURVE",
"408 1341 QCURVE SMOOTH",
"448 1341 OFFCURVE",
"516 1311 OFFCURVE",
"567 1260 OFFCURVE",
"596 1191 OFFCURVE",
"596 1151 QCURVE SMOOTH",
"596 1113 OFFCURVE",
"567 1044 OFFCURVE",
"516 993 OFFCURVE",
"448 963 OFFCURVE",
"408 963 QCURVE SMOOTH",
"369 963 OFFCURVE",
"301 993 OFFCURVE",
"250 1044 OFFCURVE",
"221 1113 OFFCURVE",
"221 1151 QCURVE",
"221 1151 LINE"
);
}
);
userData = {
assembly = "PUSHB[ ]	/* 2 values pushed */\0126 100 \012WCVTP[ ]	/* WriteCVTInPixels */\012NPUSHB[ ]	/* 31 values pushed */\0120 0 0 3 2 0 3 105 0 2 1 1 2 89 0 2 2 1 97 0 1 2 1 81 40 42 40 36 4 8 26 \012CALL[ ]	/* CallFunction */\012PUSHB[ ]	/* 2 values pushed */\0126 0 \012WCVTP[ ]	/* WriteCVTInPixels */";
};
width = 819;
}
);
note = degree;
unicode = 00B0;
},
{
glyphname = plusminus;
layers = (
{
layerId = "B9B2530D-1BC0-47AE-88F4-2EE543D2AECB";
paths = (
{
closed = 1;
nodes = (
"1012 672 LINE",
"1012 793 LINE",
"633 793 LINE",
"633 1171 LINE",
"510 1171 LINE",
"510 793 LINE",
"133 793 LINE",
"133 672 LINE",
"510 672 LINE",
"510 293 LINE",
"633 293 LINE",
"633 672 LINE",
"633 672 LINE"
);
},
{
closed = 1;
nodes = (
"1012 121 LINE",
"133 121 LINE",
"133 0 LINE",
"1012 0 LINE",
"1012 0 LINE"
);
}
);
userData = {
assembly = "NPUSHB[ ]	/* 48 values pushed */\0124 1 2 8 5 2 1 0 2 1 103 0 3 0 0 7 3 0 103 0 7 7 6 95 0 6 6 38 6 78 0 0 15 14 13 12 0 11 0 11 17 17 17 17 17 9 8 27 \012CALL[ ]	/* CallFunction */";
};
width = 1145;
}
);
note = plusminus;
unicode = 00B1;
},
{
glyphname = uni00B2;
layers = (
{
layerId = "B9B2530D-1BC0-47AE-88F4-2EE543D2AECB";
paths = (
{
closed = 1;
nodes = (
"690 1262 LINE",
"690 1262 LINE",
"690 1370 OFFCURVE",
"528 1483 OFFCURVE",
"385 1483 QCURVE SMOOTH",
"315 1483 OFFCURVE",
"209 1457 OFFCURVE",
"138 1411 OFFCURVE",
"102 1348 OFFCURVE",
"102 1311 QCURVE SMOOTH",
"102 1257 OFFCURVE",
"181 1223 OFFCURVE",
"250 1223 QCURVE",
"250 1258 OFFCURVE",
"264 1323 OFFCURVE",
"296 1372 OFFCURVE",
"348 1401 OFFCURVE",
"385 1401 QCURVE SMOOTH",
"418 1401 OFFCURVE",
"464 1378 OFFCURVE",
"493 1336 OFFCURVE",
"506 1279 OFFCURVE",
"506 1245 QCURVE SMOOTH",
"506 1205 OFFCURVE",
"490 1121 OFFCURVE",
"453 1036 OFFCURVE",
"391 952 OFFCURVE",
"346 911 QCURVE SMOOTH",
"86 678 LINE",
"86 586 LINE",
"709 586 LINE",
"715 842 LINE",
"645 842 LINE",
"637 799 LINE SMOOTH",
"631 765 OFFCURVE",
"594 715 OFFCURVE",
"547 715 QCURVE SMOOTH",
"250 715 LINE",
"467 901 LINE SMOOTH",
"531 956 OFFCURVE",
"616 1046 OFFCURVE",
"668 1130 OFFCURVE",
"690 1214 OFFCURVE",
"690 1262 QCURVE",
"690 1262 LINE"
);
}
);
userData = {
assembly = "PUSHB[ ]	/* 6 values pushed */\01215 1 2 0 1 76 \012MPPEM[ ]	/* MeasurePixelPerEm */\012PUSHB[ ]	/* 1 value pushed */\01220 \012LT[ ]	/* LessThan */\012IF[ ]	/* If */\012NPUSHB[ ]	/* 35 values pushed */\0120 4 3 1 3 4 1 128 0 1 0 0 1 112 0 3 3 5 97 0 5 5 66 77 0 0 0 2 96 0 2 2 67 2 78 \012ELSE[ ]	/* Else */\012NPUSHB[ ]	/* 36 values pushed */\0120 4 3 1 3 4 1 128 0 1 0 3 1 0 126 0 3 3 5 97 0 5 5 66 77 0 0 0 2 96 0 2 2 67 2 78 \012EIF[ ]	/* EndIf */\012NPUSHB[ ]	/* 9 values pushed */\01238 20 43 17 19 38 6 10 28 \012CALL[ ]	/* CallFunction */";
};
width = 819;
}
);
note = uni00B2;
unicode = 00B2;
},
{
glyphname = uni00B3;
layers = (
{
layerId = "B9B2530D-1BC0-47AE-88F4-2EE543D2AECB";
paths = (
{
closed = 1;
nodes = (
"356 573 LINE",
"356 573 LINE",
"418 573 OFFCURVE",
"546 601 OFFCURVE",
"652 664 OFFCURVE",
"719 767 OFFCURVE",
"719 842 QCURVE SMOOTH",
"719 898 OFFCURVE",
"673 971 OFFCURVE",
"602 1017 OFFCURVE",
"516 1042 OFFCURVE",
"475 1049 QCURVE",
"475 1059 LINE",
"517 1071 OFFCURVE",
"593 1110 OFFCURVE",
"650 1164 OFFCURVE",
"684 1235 OFFCURVE",
"684 1280 QCURVE SMOOTH",
"684 1328 OFFCURVE",
"641 1403 OFFCURVE",
"561 1455 OFFCURVE",
"449 1483 OFFCURVE",
"381 1483 QCURVE SMOOTH",
"311 1483 OFFCURVE",
"204 1457 OFFCURVE",
"131 1411 OFFCURVE",
"94 1348 OFFCURVE",
"94 1311 QCURVE SMOOTH",
"94 1284 OFFCURVE",
"115 1250 OFFCURVE",
"154 1230 OFFCURVE",
"211 1223 OFFCURVE",
"246 1223 QCURVE",
"246 1258 OFFCURVE",
"259 1323 OFFCURVE",
"290 1372 OFFCURVE",
"342 1401 OFFCURVE",
"381 1401 QCURVE SMOOTH",
"444 1401 OFFCURVE",
"498 1330 OFFCURVE",
"498 1262 QCURVE SMOOTH",
"498 1221 OFFCURVE",
"470 1156 OFFCURVE",
"420 1110 OFFCURVE",
"354 1085 OFFCURVE",
"315 1085 QCURVE SMOOTH",
"248 1085 LINE",
"248 1001 LINE",
"315 1001 LINE SMOOTH",
"428 1001 OFFCURVE",
"532 916 OFFCURVE",
"532 844 QCURVE SMOOTH",
"532 749 OFFCURVE",
"435 666 OFFCURVE",
"350 666 QCURVE SMOOTH",
"305 666 OFFCURVE",
"240 697 OFFCURVE",
"197 747 OFFCURVE",
"176 810 OFFCURVE",
"176 842 QCURVE",
"133 842 OFFCURVE",
"82 786 OFFCURVE",
"82 741 QCURVE SMOOTH",
"82 666 OFFCURVE",
"222 573 OFFCURVE",
"356 573 QCURVE",
"356 573 LINE"
);
}
);
userData = {
assembly = "NPUSHB[ ]	/* 75 values pushed */\01253 1 3 4 1 76 0 6 5 4 5 6 4 128 0 1 3 2 3 1 2 128 0 4 0 3 1 4 3 105 0 5 5 7 97 0 7 7 66 77 0 2 2 0 97 8 1 0 0 67 0 78 1 0 44 42 34 33 29 27 21 19 18 16 12 10 6 5 0 65 1 63 9 10 22 \012CALL[ ]	/* CallFunction */";
};
width = 819;
}
);
note = uni00B3;
unicode = 00B3;
},
{
glyphname = acute;
layers = (
{
layerId = "B9B2530D-1BC0-47AE-88F4-2EE543D2AECB";
paths = (
{
closed = 1;
nodes = (
"391 1268 LINE",
"391 1268 LINE",
"391 1241 LINE",
"469 1241 LINE",
"510 1269 OFFCURVE",
"605 1352 OFFCURVE",
"695 1440 OFFCURVE",
"769 1521 OFFCURVE",
"788 1548 QCURVE",
"788 1569 LINE",
"569 1569 LINE",
"553 1535 OFFCURVE",
"510 1454 OFFCURVE",
"463 1373 OFFCURVE",
"414 1297 OFFCURVE",
"391 1268 QCURVE",
"391 1268 LINE"
);
}
);
userData = {
assembly = "PUSHB[ ]	/* 2 values pushed */\0126 100 \012WCVTP[ ]	/* WriteCVTInPixels */\012NPUSHB[ ]	/* 21 values pushed */\01214 7 2 1 0 1 76 0 0 1 0 133 0 1 1 118 22 21 2 8 24 \012CALL[ ]	/* CallFunction */\012PUSHB[ ]	/* 2 values pushed */\0126 0 \012WCVTP[ ]	/* WriteCVTInPixels */";
};
width = 1182;
}
);
note = acute;
unicode = 00B4;
},
{
glyphname = uni00B5;
layers = (
{
layerId = "B9B2530D-1BC0-47AE-88F4-2EE543D2AECB";
paths = (
{
closed = 1;
nodes = (
"569 -20 LINE",
"569 -20 LINE",
"623 -20 OFFCURVE",
"708 7 OFFCURVE",
"777 55 OFFCURVE",
"832 123 OFFCURVE",
"856 164 QCURVE",
"864 164 LINE",
"883 83 OFFCURVE",
"979 0 OFFCURVE",
"1063 0 QCURVE SMOOTH",
"1174 0 LINE",
"1174 86 LINE",
"1167 86 LINE SMOOTH",
"1145 86 OFFCURVE",
"1099 108 OFFCURVE",
"1062 152 OFFCURVE",
"1038 219 OFFCURVE",
"1038 264 QCURVE SMOOTH",
"1038 1098 LINE",
"846 1098 LINE",
"846 442 LINE SMOOTH",
"846 368 OFFCURVE",
"811 246 OFFCURVE",
"747 159 OFFCURVE",
"655 111 OFFCURVE",
"598 111 QCURVE SMOOTH",
"539 111 OFFCURVE",
"460 154 OFFCURVE",
"413 233 OFFCURVE",
"393 343 OFFCURVE",
"393 410 QCURVE SMOOTH",
"393 1098 LINE",
"201 1098 LINE",
"201 461 LINE SMOOTH",
"200 333 OFFCURVE",
"191 125 OFFCURVE",
"183 -46 OFFCURVE",
"176 -187 OFFCURVE",
"176 -248 QCURVE SMOOTH",
"176 -317 OFFCURVE",
"204 -411 OFFCURVE",
"250 -468 OFFCURVE",
"310 -492 OFFCURVE",
"342 -492 QCURVE SMOOTH",
"379 -492 OFFCURVE",
"433 -465 OFFCURVE",
"468 -417 OFFCURVE",
"485 -352 OFFCURVE",
"485 -313 QCURVE",
"428 -304 OFFCURVE",
"364 -237 OFFCURVE",
"331 -129 OFFCURVE",
"321 15 OFFCURVE",
"319 100 QCURVE",
"360 43 OFFCURVE",
"483 -20 OFFCURVE",
"569 -20 QCURVE",
"569 -20 LINE"
);
}
);
userData = {
assembly = "NPUSHB[ ]	/* 14 values pushed */\01250 1 3 2 3 1 5 3 8 1 1 0 3 76 \012MPPEM[ ]	/* MeasurePixelPerEm */\012PUSHB[ ]	/* 1 value pushed */\01210 \012LT[ ]	/* LessThan */\012IF[ ]	/* If */\012NPUSHB[ ]	/* 36 values pushed */\0124 1 2 2 40 77 0 3 3 0 97 6 7 2 0 0 44 77 0 5 5 0 98 6 7 2 0 0 44 77 0 1 1 42 1 78 \012ELSE[ ]	/* Else */\012MPPEM[ ]	/* MeasurePixelPerEm */\012PUSHB[ ]	/* 1 value pushed */\01214 \012LT[ ]	/* LessThan */\012IF[ ]	/* If */\012NPUSHB[ ]	/* 33 values pushed */\0124 1 2 2 40 77 0 5 5 6 98 0 6 6 38 77 0 3 3 0 97 7 1 0 0 44 77 0 1 1 42 1 78 \012ELSE[ ]	/* Else */\012MPPEM[ ]	/* MeasurePixelPerEm */\012PUSHB[ ]	/* 1 value pushed */\01221 \012LT[ ]	/* LessThan */\012IF[ ]	/* If */\012NPUSHB[ ]	/* 36 values pushed */\0124 1 2 2 40 77 0 3 3 0 97 6 7 2 0 0 44 77 0 5 5 0 98 6 7 2 0 0 44 77 0 1 1 42 1 78 \012ELSE[ ]	/* Else */\012MPPEM[ ]	/* MeasurePixelPerEm */\012PUSHB[ ]	/* 1 value pushed */\01223 \012LT[ ]	/* LessThan */\012IF[ ]	/* If */\012NPUSHB[ ]	/* 33 values pushed */\0124 1 2 2 40 77 0 5 5 6 98 0 6 6 38 77 0 3 3 0 97 7 1 0 0 44 77 0 1 1 42 1 78 \012ELSE[ ]	/* Else */\012MPPEM[ ]	/* MeasurePixelPerEm */\012PUSHB[ ]	/* 1 value pushed */\01225 \012LT[ ]	/* LessThan */\012IF[ ]	/* If */\012NPUSHB[ ]	/* 36 values pushed */\0124 1 2 2 40 77 0 3 3 0 97 6 7 2 0 0 44 77 0 5 5 0 98 6 7 2 0 0 44 77 0 1 1 42 1 78 \012ELSE[ ]	/* Else */\012NPUSHB[ ]	/* 33 values pushed */\0124 1 2 2 40 77 0 5 5 6 98 0 6 6 38 77 0 3 3 0 97 7 1 0 0 44 77 0 1 1 42 1 78 \012EIF[ ]	/* EndIf */\012EIF[ ]	/* EndIf */\012EIF[ ]	/* EndIf */\012EIF[ ]	/* EndIf */\012EIF[ ]	/* EndIf */\012NPUSHB[ ]	/* 21 values pushed */\0121 0 48 46 44 43 38 37 32 30 25 24 14 12 0 57 1 55 8 8 22 \012CALL[ ]	/* CallFunction */";
};
width = 1260;
}
);
note = uni00B5;
unicode = 00B5;
},
{
glyphname = paragraph;
layers = (
{
layerId = "B9B2530D-1BC0-47AE-88F4-2EE543D2AECB";
paths = (
{
closed = 1;
nodes = (
"860 1452 LINE",
"860 1452 LINE",
"860 -227 LINE",
"1180 -227 LINE",
"1180 -141 LINE",
"1153 -141 LINE SMOOTH",
"1119 -141 OFFCURVE",
"1057 -131 OFFCURVE",
"1012 -100 OFFCURVE",
"985 -42 OFFCURVE",
"985 6 QCURVE SMOOTH",
"985 1323 LINE SMOOTH",
"985 1371 OFFCURVE",
"1012 1429 OFFCURVE",
"1057 1460 OFFCURVE",
"1119 1470 OFFCURVE",
"1153 1470 QCURVE SMOOTH",
"1180 1470 LINE",
"1180 1556 LINE",
"399 1556 LINE SMOOTH",
"312 1556 OFFCURVE",
"192 1504 OFFCURVE",
"116 1408 OFFCURVE",
"82 1274 OFFCURVE",
"82 1192 QCURVE SMOOTH",
"82 1112 OFFCURVE",
"113 967 OFFCURVE",
"185 856 OFFCURVE",
"305 791 OFFCURVE",
"395 791 QCURVE SMOOTH",
"541 791 LINE",
"541 6 LINE SMOOTH",
"541 -42 OFFCURVE",
"514 -100 OFFCURVE",
"469 -131 OFFCURVE",
"408 -141 OFFCURVE",
"373 -141 QCURVE SMOOTH",
"346 -141 LINE",
"346 -227 LINE",
"666 -227 LINE",
"666 1452 LINE",
"860 1452 LINE",
"860 1452 LINE"
);
}
);
userData = {
assembly = "MPPEM[ ]	/* MeasurePixelPerEm */\012PUSHB[ ]	/* 1 value pushed */\01229 \012LT[ ]	/* LessThan */\012IF[ ]	/* If */\012NPUSHB[ ]	/* 30 values pushed */\0120 3 0 2 0 3 2 128 6 1 2 7 1 1 2 1 99 5 8 2 0 0 4 95 0 4 4 39 0 78 \012ELSE[ ]	/* Else */\012NPUSHB[ ]	/* 36 values pushed */\0120 5 4 0 0 5 114 0 3 0 2 0 3 2 128 6 1 2 7 1 1 2 1 99 8 1 0 0 4 96 0 4 4 39 0 78 \012EIF[ ]	/* EndIf */\012NPUSHB[ ]	/* 23 values pushed */\0121 0 39 38 37 35 26 24 23 21 13 11 6 4 3 2 0 41 1 40 9 8 22 \012CALL[ ]	/* CallFunction */";
};
width = 1264;
}
);
note = paragraph;
unicode = 00B6;
},
{
glyphname = periodcentered;
layers = (
{
layerId = "B9B2530D-1BC0-47AE-88F4-2EE543D2AECB";
paths = (
{
closed = 1;
nodes = (
"127 729 LINE",
"127 729 LINE",
"127 690 OFFCURVE",
"147 637 OFFCURVE",
"182 604 OFFCURVE",
"229 590 OFFCURVE",
"256 590 QCURVE SMOOTH",
"282 590 OFFCURVE",
"329 604 OFFCURVE",
"364 637 OFFCURVE",
"385 690 OFFCURVE",
"385 729 QCURVE SMOOTH",
"385 769 OFFCURVE",
"364 823 OFFCURVE",
"329 855 OFFCURVE",
"282 868 OFFCURVE",
"256 868 QCURVE SMOOTH",
"229 868 OFFCURVE",
"182 855 OFFCURVE",
"147 823 OFFCURVE",
"127 769 OFFCURVE",
"127 729 QCURVE",
"127 729 LINE"
);
}
);
userData = {
assembly = "NPUSHB[ ]	/* 21 values pushed */\0120 0 1 1 0 89 0 0 0 1 97 0 1 0 1 81 40 36 2 8 24 \012CALL[ ]	/* CallFunction */";
};
width = 512;
}
);
note = periodcentered;
unicode = 00B7;
},
{
glyphname = cedilla;
layers = (
{
layerId = "B9B2530D-1BC0-47AE-88F4-2EE543D2AECB";
paths = (
{
closed = 1;
nodes = (
"551 -258 LINE",
"551 -258 LINE",
"551 -177 OFFCURVE",
"452 -78 OFFCURVE",
"352 -70 QCURVE",
"373 18 LINE",
"276 18 LINE",
"233 -141 LINE",
"300 -146 OFFCURVE",
"387 -206 OFFCURVE",
"387 -266 QCURVE SMOOTH",
"387 -319 OFFCURVE",
"321 -381 OFFCURVE",
"262 -381 QCURVE SMOOTH",
"234 -381 OFFCURVE",
"160 -373 OFFCURVE",
"123 -365 QCURVE",
"123 -469 LINE",
"141 -474 OFFCURVE",
"183 -483 OFFCURVE",
"225 -489 OFFCURVE",
"265 -492 OFFCURVE",
"281 -492 QCURVE SMOOTH",
"412 -492 OFFCURVE",
"551 -367 OFFCURVE",
"551 -258 QCURVE",
"551 -258 LINE"
);
}
);
userData = {
assembly = "PUSHB[ ]	/* 2 values pushed */\0126 100 \012WCVTP[ ]	/* WriteCVTInPixels */\012NPUSHB[ ]	/* 39 values pushed */\01221 18 9 3 1 2 8 1 0 1 2 76 0 2 1 2 133 0 1 0 0 1 89 0 1 1 0 98 0 0 1 0 82 22 38 50 3 8 25 \012CALL[ ]	/* CallFunction */\012PUSHB[ ]	/* 2 values pushed */\0126 0 \012WCVTP[ ]	/* WriteCVTInPixels */";
};
width = 682;
}
);
note = cedilla;
unicode = 00B8;
},
{
glyphname = uni00B9;
layers = (
{
layerId = "B9B2530D-1BC0-47AE-88F4-2EE543D2AECB";
paths = (
{
closed = 1;
nodes = (
"315 1325 LINE",
"315 1325 LINE",
"324 1325 LINE",
"324 735 LINE SMOOTH",
"324 709 OFFCURVE",
"311 678 OFFCURVE",
"288 662 OFFCURVE",
"258 657 OFFCURVE",
"240 657 QCURVE SMOOTH",
"127 657 LINE",
"127 588 LINE",
"688 588 LINE",
"688 657 LINE",
"594 657 LINE SMOOTH",
"576 657 OFFCURVE",
"545 662 OFFCURVE",
"522 678 OFFCURVE",
"508 709 OFFCURVE",
"508 735 QCURVE SMOOTH",
"508 1473 LINE",
"406 1473 LINE",
"325 1416 OFFCURVE",
"223 1356 OFFCURVE",
"155 1329 OFFCURVE",
"110 1323 OFFCURVE",
"86 1319 QCURVE",
"86 1282 OFFCURVE",
"126 1235 OFFCURVE",
"160 1235 QCURVE SMOOTH",
"182 1235 OFFCURVE",
"218 1245 OFFCURVE",
"253 1266 OFFCURVE",
"291 1301 OFFCURVE",
"315 1325 QCURVE",
"315 1325 LINE"
);
}
);
userData = {
assembly = "PUSHB[ ]	/* 7 values pushed */\01231 8 2 0 1 1 76 \012MPPEM[ ]	/* MeasurePixelPerEm */\012PUSHB[ ]	/* 1 value pushed */\01250 \012LT[ ]	/* LessThan */\012IF[ ]	/* If */\012NPUSHB[ ]	/* 25 values pushed */\0120 0 1 2 1 0 2 128 0 1 1 66 77 4 1 2 2 3 96 0 3 3 67 3 78 \012ELSE[ ]	/* Else */\012NPUSHB[ ]	/* 22 values pushed */\0120 1 0 1 133 0 0 2 0 133 4 1 2 2 3 96 0 3 3 67 3 78 \012EIF[ ]	/* EndIf */\012PUSHB[ ]	/* 8 values pushed */\01217 17 37 23 36 5 10 27 \012CALL[ ]	/* CallFunction */";
};
width = 819;
}
);
note = uni00B9;
unicode = 00B9;
},
{
glyphname = ordmasculine;
layers = (
{
layerId = "B9B2530D-1BC0-47AE-88F4-2EE543D2AECB";
paths = (
{
closed = 1;
nodes = (
"250 1126 LINE",
"250 1126 LINE",
"250 1257 OFFCURVE",
"320 1386 OFFCURVE",
"406 1386 QCURVE SMOOTH",
"492 1386 OFFCURVE",
"565 1257 OFFCURVE",
"565 1126 QCURVE SMOOTH",
"565 993 OFFCURVE",
"494 860 OFFCURVE",
"408 860 QCURVE SMOOTH",
"320 860 OFFCURVE",
"250 993 OFFCURVE",
"250 1126 QCURVE",
"250 1126 LINE"
);
},
{
closed = 1;
nodes = (
"741 1126 LINE",
"741 1126 LINE",
"741 1214 OFFCURVE",
"695 1344 OFFCURVE",
"609 1430 OFFCURVE",
"487 1473 OFFCURVE",
"410 1473 QCURVE SMOOTH",
"242 1473 OFFCURVE",
"72 1302 OFFCURVE",
"72 1126 QCURVE SMOOTH",
"72 951 OFFCURVE",
"248 778 OFFCURVE",
"406 778 QCURVE SMOOTH",
"571 778 OFFCURVE",
"741 950 OFFCURVE",
"741 1126 QCURVE",
"741 1126 LINE"
);
}
);
userData = {
assembly = "MPPEM[ ]	/* MeasurePixelPerEm */\012PUSHB[ ]	/* 1 value pushed */\01250 \012LT[ ]	/* LessThan */\012IF[ ]	/* If */\012NPUSHB[ ]	/* 18 values pushed */\0120 0 0 2 0 2 101 0 1 1 3 97 0 3 3 66 1 78 \012ELSE[ ]	/* Else */\012NPUSHB[ ]	/* 24 values pushed */\0120 3 0 1 0 3 1 105 0 0 2 2 0 89 0 0 0 2 97 0 2 0 2 81 \012EIF[ ]	/* EndIf */\012PUSHB[ ]	/* 7 values pushed */\01236 38 36 34 4 10 26 \012CALL[ ]	/* CallFunction */";
};
width = 813;
}
);
note = ordmasculine;
unicode = 00BA;
},
{
glyphname = guillemotright;
layers = (
{
layerId = "B9B2530D-1BC0-47AE-88F4-2EE543D2AECB";
paths = (
{
closed = 1;
nodes = (
"549 586 LINE",
"236 942 LINE",
"133 942 LINE",
"340 553 LINE",
"133 164 LINE",
"236 164 LINE",
"549 520 LINE",
"549 520 LINE"
);
},
{
closed = 1;
nodes = (
"920 586 LINE",
"606 942 LINE",
"504 942 LINE",
"711 553 LINE",
"504 164 LINE",
"606 164 LINE",
"920 520 LINE",
"920 520 LINE"
);
}
);
userData = {
assembly = "NPUSHB[ ]	/* 37 values pushed */\01213 10 7 6 3 0 6 0 1 1 76 3 1 1 0 0 1 87 3 1 1 1 0 95 2 1 0 1 0 79 18 19 18 17 4 8 26 \012CALL[ ]	/* CallFunction */";
};
width = 1053;
}
);
note = guillemotright;
unicode = 00BB;
},
{
glyphname = questiondown;
layers = (
{
layerId = "B9B2530D-1BC0-47AE-88F4-2EE543D2AECB";
paths = (
{
closed = 1;
nodes = (
"502 682 LINE",
"502 682 LINE",
"502 451 LINE",
"407 412 OFFCURVE",
"259 319 OFFCURVE",
"157 205 OFFCURVE",
"104 66 OFFCURVE",
"104 -18 QCURVE SMOOTH",
"104 -106 OFFCURVE",
"172 -244 OFFCURVE",
"292 -339 OFFCURVE",
"456 -389 OFFCURVE",
"553 -389 QCURVE SMOOTH",
"652 -389 OFFCURVE",
"796 -354 OFFCURVE",
"891 -293 OFFCURVE",
"936 -209 OFFCURVE",
"936 -160 QCURVE SMOOTH",
"936 -127 OFFCURVE",
"910 -77 OFFCURVE",
"865 -44 OFFCURVE",
"803 -27 OFFCURVE",
"766 -27 QCURVE",
"766 -80 OFFCURVE",
"742 -175 OFFCURVE",
"688 -247 OFFCURVE",
"601 -289 OFFCURVE",
"537 -289 QCURVE SMOOTH",
"478 -289 OFFCURVE",
"393 -255 OFFCURVE",
"339 -193 OFFCURVE",
"313 -106 OFFCURVE",
"313 -53 QCURVE SMOOTH",
"313 9 OFFCURVE",
"344 129 OFFCURVE",
"417 239 OFFCURVE",
"538 335 OFFCURVE",
"627 371 QCURVE",
"627 682 LINE",
"502 682 LINE",
"502 682 LINE"
);
},
{
closed = 1;
nodes = (
"696 969 LINE",
"696 969 LINE",
"696 1008 OFFCURVE",
"676 1061 OFFCURVE",
"641 1094 OFFCURVE",
"594 1108 OFFCURVE",
"567 1108 QCURVE SMOOTH",
"541 1108 OFFCURVE",
"494 1094 OFFCURVE",
"459 1061 OFFCURVE",
"438 1008 OFFCURVE",
"438 969 QCURVE SMOOTH",
"438 929 OFFCURVE",
"459 875 OFFCURVE",
"494 843 OFFCURVE",
"541 829 OFFCURVE",
"567 829 QCURVE SMOOTH",
"594 829 OFFCURVE",
"641 843 OFFCURVE",
"676 875 OFFCURVE",
"696 929 OFFCURVE",
"696 969 QCURVE",
"696 969 LINE"
);
}
);
userData = {
assembly = "NPUSHB[ ]	/* 60 values pushed */\01237 2 2 2 0 1 76 6 1 0 4 2 4 0 2 128 0 2 1 4 2 1 126 0 1 0 3 1 3 102 0 4 4 5 97 0 5 5 40 4 78 1 0 56 54 46 44 28 26 18 17 13 11 0 39 1 38 7 8 22 \012CALL[ ]	/* CallFunction */";
};
width = 1024;
}
);
note = questiondown;
unicode = 00BF;
},
